<?xml version="1.0" standalone="no"?>
<!DOCTYPE svg PUBLIC "-//W3C//DTD SVG 1.1//EN" "http://www.w3.org/Graphics/SVG/1.1/DTD/svg11.dtd" >
<svg xmlns="http://www.w3.org/2000/svg" xmlns:xlink="http://www.w3.org/1999/xlink" version="1.1">
<metadata>
Created by FontForge 20170731 at Fri Dec 10 16:52:53 2021
 By Aleksey,,,
Copyright 2020 The League Spartan Project Authors (https://github.com/theleagueof/league-spartan)
</metadata>
<defs>
<font id="LeagueSpartan-Light" horiz-adv-x="0" >
  <font-face 
    font-family="League Spartan Light"
    font-weight="300"
    font-stretch="normal"
    units-per-em="2000"
    panose-1="0 0 0 0 0 0 0 0 0 0"
    ascent="1600"
    descent="-400"
    x-height="821"
    cap-height="1320"
    bbox="-300 -443 2212 2146"
    underline-thickness="50"
    underline-position="-175"
    unicode-range="U+000D-FB02"
  />
<missing-glyph horiz-adv-x="757" 
d="M71 1320l411 -440l205 -880l-411 440zM134 64l327 397l163 795l-327 -397zM621 1320l-140 -440l-345 -880l140 440z" />
    <glyph glyph-name="fi" unicode="fi" horiz-adv-x="1060" 
d="M31 821h183v240q0 128 40 201.5t101 105.5t125 32q76 0 118 -21.5t49 -27.5l-49 -91q-6 6 -34.5 22t-79.5 16q-38 0 -74 -18.5t-60 -72.5t-24 -162v-224h248v-102h-248v-719h-112v719h-183v102zM768 0v821h113v-821h-113zM826 1154q-36 0 -61.5 25.5t-25.5 61.5
q0 37 26 62.5t61 25.5q24 0 44.5 -12t33 -31.5t12.5 -44.5q0 -36 -26.5 -61.5t-63.5 -25.5z" />
    <glyph glyph-name="fl" unicode="fl" horiz-adv-x="1029" 
d="M31 821h183v240q0 128 40 201.5t101 105.5t125 32q76 0 118 -21.5t49 -27.5l-49 -91q-6 6 -34.5 22t-79.5 16q-38 0 -74 -18.5t-60 -72.5t-24 -162v-224h248v-102h-248v-719h-112v719h-183v102zM869 0h-116v1376h116v-1376z" />
    <glyph glyph-name="f_f" unicode="ff" horiz-adv-x="1250" 
d="M31 821h183v240q0 128 40 201.5t101 105.5t125 32q76 0 118 -21.5t49 -27.5l-49 -91q-6 6 -34.5 22t-79.5 16q-38 0 -74 -18.5t-60 -72.5t-24 -162v-224h248v-102h-248v-719h-112v719h-183v102zM651 821h183v240q0 128 40 201.5t101 105.5t125 32q76 0 118 -21.5
t49 -27.5l-49 -91q-6 6 -34.5 22t-79.5 16q-38 0 -74 -18.5t-60 -72.5t-24 -162v-224h248v-102h-248v-719h-112v719h-183v102z" />
    <glyph glyph-name="f_f_i" unicode="ffi" horiz-adv-x="1680" 
d="M31 821h183v240q0 128 40 201.5t101 105.5t125 32q76 0 118 -21.5t49 -27.5l-49 -91q-6 6 -34.5 22t-79.5 16q-38 0 -74 -18.5t-60 -72.5t-24 -162v-224h248v-102h-248v-719h-112v719h-183v102zM651 821h183v240q0 128 40 201.5t101 105.5t125 32q76 0 118 -21.5
t49 -27.5l-49 -91q-6 6 -34.5 22t-79.5 16q-38 0 -74 -18.5t-60 -72.5t-24 -162v-224h248v-102h-248v-719h-112v719h-183v102zM1388 0v821h113v-821h-113zM1446 1154q-36 0 -61.5 25.5t-25.5 61.5q0 37 26 62.5t61 25.5q24 0 44.5 -12t33 -31.5t12.5 -44.5
q0 -36 -26.5 -61.5t-63.5 -25.5z" />
    <glyph glyph-name="f_f_l" unicode="ffl" horiz-adv-x="1649" 
d="M31 821h183v240q0 128 40 201.5t101 105.5t125 32q76 0 118 -21.5t49 -27.5l-49 -91q-6 6 -34.5 22t-79.5 16q-38 0 -74 -18.5t-60 -72.5t-24 -162v-224h248v-102h-248v-719h-112v719h-183v102zM651 821h183v240q0 128 40 201.5t101 105.5t125 32q76 0 118 -21.5
t49 -27.5l-49 -91q-6 6 -34.5 22t-79.5 16q-38 0 -74 -18.5t-60 -72.5t-24 -162v-224h248v-102h-248v-719h-112v719h-183v102zM1489 0h-116v1376h116v-1376z" />
    <glyph glyph-name=".notdef" horiz-adv-x="757" 
d="M71 1320l411 -440l205 -880l-411 440zM134 64l327 397l163 795l-327 -397zM621 1320l-140 -440l-345 -880l140 440z" />
    <glyph glyph-name=".null" 
 />
    <glyph glyph-name="nonmarkingreturn" horiz-adv-x="666" 
 />
    <glyph glyph-name="CR" unicode="&#xd;" horiz-adv-x="1200" 
 />
    <glyph glyph-name="space" unicode=" " horiz-adv-x="484" 
 />
    <glyph glyph-name="exclam" unicode="!" horiz-adv-x="625" 
d="M254 337l-27 1039h135l-29 -1039h-79zM293 -24q-31 0 -56.5 15t-40.5 40.5t-15 56.5q0 48 32.5 81t79.5 33t80 -33t33 -81q0 -46 -33 -79t-80 -33z" />
    <glyph glyph-name="quotedbl" unicode="&#x22;" horiz-adv-x="730" 
d="M204 1297q39 0 59.5 -26.5t20.5 -59.5v-5q0 -14 -5.5 -49t-15 -82.5t-19.5 -98t-21 -94.5h-60q-7 44 -14 94.5t-13 98t-9.5 82.5t-3.5 49v5q0 34 21.5 60t59.5 26zM488 1297q39 0 59.5 -26t20.5 -60v-5q0 -14 -6 -49t-15.5 -82.5t-20 -98t-20.5 -94.5h-59
q-7 44 -13.5 94.5t-12.5 98t-9.5 82.5t-3.5 49v5q0 34 20.5 60t59.5 26z" />
    <glyph glyph-name="numbersign" unicode="#" horiz-adv-x="1238" 
d="M567 1320h86l-349 -1320h-85zM926 1320h85l-349 -1320h-85zM259 927h845l-27 -86h-845zM155 481h845l-27 -86h-845z" />
    <glyph glyph-name="dollar" unicode="$" horiz-adv-x="1027" 
d="M479 1534h83v-227h-83v227zM479 21h83v-227h-83v227zM502 1344q110 0 187.5 -26t121.5 -54.5t51 -36.5l-62 -94q-15 13 -52.5 38t-96.5 45.5t-140 20.5q-129 0 -203 -54t-74 -150q0 -65 39 -113.5t106.5 -87.5t152.5 -78q67 -30 134.5 -67t124 -87t91 -116t34.5 -153
q0 -79 -32 -144t-90.5 -112.5t-138.5 -73t-176 -25.5q-114 0 -207 29.5t-150 61t-63 37.5l67 99q12 -10 42.5 -29.5t76.5 -40.5t106.5 -35t131.5 -14q154 0 233.5 72t79.5 181q0 85 -51 145.5t-131 106.5t-167 87q-92 43 -167 92t-120 114t-45 156q0 89 51.5 158t139 108.5
t196.5 39.5z" />
    <glyph glyph-name="percent" unicode="%" horiz-adv-x="1425" 
d="M1039 1320h93l-780 -1320h-93zM93 1029q0 70 34.5 125t93 86.5t130.5 31.5q70 0 127.5 -31.5t92.5 -86.5t35 -125q0 -68 -33.5 -123t-91 -87t-130.5 -32q-76 0 -134 32t-91 87t-33 123zM183 1029q0 -77 45.5 -120t120.5 -43q70 0 118 42t48 121q0 75 -48.5 119.5
t-117.5 44.5q-71 0 -118.5 -44.5t-47.5 -119.5zM787 290q0 71 34 125.5t92.5 86t130.5 31.5q70 0 127.5 -31.5t92.5 -86t35 -125.5q0 -68 -33 -123t-91 -87t-131 -32q-76 0 -134 32t-90.5 87t-32.5 123zM877 290q0 -77 45.5 -120t120.5 -43q70 0 118 42.5t48 120.5
q0 75 -48.5 120t-117.5 45q-72 0 -119 -45t-47 -120z" />
    <glyph glyph-name="ampersand" unicode="&#x26;" horiz-adv-x="1315" 
d="M73 319q0 83 32.5 146.5t83 110t106 78t102.5 49.5t71 26q-16 13 -45 46t-59.5 79t-51.5 99.5t-21 108.5q0 80 44 143.5t119 101t170 37.5q98 0 169.5 -37t110 -100.5t38.5 -145.5q0 -89 -39 -153.5t-94.5 -107.5t-106 -67.5t-72.5 -34.5l326 -358q23 26 61.5 79.5
t73.5 118.5l77 -62q-10 -24 -35 -63.5t-54.5 -78t-52.5 -61.5l257 -273h-147l-188 204q-53 -54 -126 -106.5t-165 -87t-203 -34.5q-113 0 -199 43.5t-134 121t-48 178.5zM530 655q-19 -5 -59 -19.5t-88 -40t-91.5 -64t-72.5 -89.5t-29 -118q0 -80 38.5 -134.5t101 -82
t134.5 -27.5q87 0 168 31.5t145.5 77t102.5 88.5zM621 1248q-70 0 -119.5 -28t-75.5 -71t-26 -88q0 -47 24.5 -97t56 -93.5t58 -72t29.5 -32.5q26 7 70.5 27t90.5 55.5t78 88t32 124.5q0 80 -61 133.5t-157 53.5z" />
    <glyph glyph-name="quotesingle" unicode="'" horiz-adv-x="436" 
d="M199 1297q39 0 60 -27t21 -66q0 -40 -18.5 -130.5t-42.5 -191.5h-61q-10 65 -19 129.5t-14.5 116t-5.5 76.5q0 40 21 66.5t59 26.5z" />
    <glyph glyph-name="parenleft" unicode="(" horiz-adv-x="590" 
d="M378 -401q-58 70 -119 199t-103.5 302t-42.5 375q0 156 25 297.5t65 261.5t86 212t89 148l82 -51q-52 -66 -107.5 -192.5t-93.5 -298.5t-38 -377q0 -192 37 -355t91 -283t104 -184z" />
    <glyph glyph-name="parenright" unicode=")" horiz-adv-x="590" 
d="M150 -401l-75 54q50 64 104 184t91 283t37 355q0 205 -38 377t-94 298.5t-107 192.5l82 51q43 -56 89 -148t86 -212t65 -261.5t25 -297.5q0 -202 -42.5 -375t-104 -302t-118.5 -199z" />
    <glyph glyph-name="asterisk" unicode="*" horiz-adv-x="848" 
d="M446 1151l199 67l25 -73l-204 -70l121 -173l-64 -44l-118 169l-126 -168l-64 44l131 172l-205 70l24 73l200 -67l2 210h78z" />
    <glyph glyph-name="plus" unicode="+" horiz-adv-x="1080" 
d="M572 615v-362h-100v362h-361v98h361v361h100v-361h360v-98h-360z" />
    <glyph glyph-name="comma" unicode="," horiz-adv-x="541" 
d="M251 210q55 0 93.5 -38.5t38.5 -99.5q0 -67 -26.5 -125t-69.5 -103.5t-94 -72.5l-59 56q29 14 61.5 37t58.5 53.5t33 66.5q-22 -11 -49 -11q-47 1 -79 35t-32 78q0 37 16 65t44.5 43.5t63.5 15.5z" />
    <glyph glyph-name="hyphen" unicode="-" horiz-adv-x="774" 
d="M111 405v101h515v-101h-515z" />
    <glyph glyph-name="period" unicode="." horiz-adv-x="625" 
d="M293 -24q-47 0 -79.5 33t-32.5 79q0 48 32.5 81t79.5 33t80 -33t33 -81q0 -46 -33 -79t-80 -33z" />
    <glyph glyph-name="slash" unicode="/" horiz-adv-x="937" 
d="M720 1376h107l-659 -1568h-107z" />
    <glyph glyph-name="zero" unicode="0" horiz-adv-x="1151" 
d="M77 659q0 178 41.5 307.5t111 213t155 124t173.5 40.5t173.5 -40.5t154.5 -124t110 -213t41 -307.5t-41 -306.5t-110 -212t-154.5 -124t-173.5 -40.5t-173.5 40.5t-155 124t-111 212t-41.5 306.5zM193 659q0 -193 51.5 -321.5t134.5 -192t179 -63.5q97 0 179.5 63.5
t133 192t50.5 321.5q0 194 -50.5 322.5t-133 192.5t-179.5 64q-96 0 -179 -64t-134.5 -193t-51.5 -322z" />
    <glyph glyph-name="one" unicode="1" horiz-adv-x="591" 
d="M296 1184l-238 -139v113l273 162h78v-1320h-113v1184z" />
    <glyph glyph-name="two" unicode="2" horiz-adv-x="1065" 
d="M526 1240q-89 0 -156.5 -34t-112 -80t-67.5 -83t-25 -41l-102 43q2 7 19 39t52 75.5t89 86t129.5 70.5t173.5 28q95 0 167 -25.5t122 -75t76 -122.5t26 -168q0 -83 -42.5 -174.5t-110.5 -182t-146 -172.5t-152 -149t-128 -111.5t-72 -58.5h640v-105h-822v96
q38 31 104.5 85.5t148 126.5t162.5 154t150 167.5t110.5 168.5t41.5 155q0 160 -71.5 223.5t-203.5 63.5z" />
    <glyph glyph-name="three" unicode="3" horiz-adv-x="1016" 
d="M104 1134q5 16 28.5 50t68 70.5t114 63t165.5 26.5q127 0 213 -47t129.5 -125t43.5 -174q0 -81 -33 -146t-85 -105.5t-111 -48.5q60 -5 121.5 -44t103 -108.5t41.5 -167.5q0 -113 -53.5 -204.5t-149 -144.5t-224.5 -53q-121 0 -207 41t-138.5 100t-72.5 114l103 56
q16 -44 55.5 -92t104.5 -81.5t153 -33.5q101 0 171 41t106 109t36 150q0 93 -44.5 151t-115.5 86t-153 28h-26v94h34q72 0 135.5 30t102.5 86.5t39 136.5q0 105 -69.5 178t-212.5 73q-76 0 -128 -21.5t-83 -50.5t-45.5 -53.5t-15.5 -29.5z" />
    <glyph glyph-name="four" unicode="4" horiz-adv-x="955" 
d="M717 1320v-937h150v-105h-150v-278h-113v278h-561v98l561 944h113zM604 383v735v0l-435 -735h435z" />
    <glyph glyph-name="five" unicode="5" horiz-adv-x="1046" 
d="M197 255q5 -14 23 -42.5t52.5 -59t87.5 -52.5t128 -22q151 0 237.5 97t84.5 258q-2 149 -79 228.5t-202 79.5q-78 0 -136.5 -28.5t-95 -69.5t-51.5 -78l-105 33l110 721h619v-105h-518l-72 -486q5 10 36 37t90 51.5t146 24.5q101 0 185 -45t135 -135t51 -225
q1 -134 -48.5 -238t-146.5 -163.5t-237 -59.5q-101 0 -172.5 27t-118.5 66t-72 75.5t-32 54.5z" />
    <glyph glyph-name="six" unicode="6" horiz-adv-x="1089" 
d="M551 851q116 0 212 -56.5t154 -155t58 -224.5q0 -127 -61.5 -226t-164.5 -156t-226 -57q-126 0 -227 57.5t-160 160.5t-59 238q0 138 48.5 235.5t116.5 182.5l374 470h138l-447 -551q26 29 90 55.5t154 26.5zM528 76q93 0 169.5 46t122 122.5t45.5 170.5t-45.5 170.5
t-122 121.5t-169.5 45q-94 0 -171 -45t-122.5 -121.5t-45.5 -170.5t45.5 -170.5t122.5 -122.5t171 -46z" />
    <glyph glyph-name="seven" unicode="7" horiz-adv-x="1016" 
d="M123 1320h808v-88l-701 -1232h-128l695 1215h-674v105z" />
    <glyph glyph-name="eight" unicode="8" horiz-adv-x="1085" 
d="M524 -24q-122 0 -215 51.5t-146 138.5t-53 193q0 101 35.5 171t93.5 114.5t126 67.5q-49 20 -94 58t-74.5 97.5t-29.5 143.5q0 98 47 173t128 117.5t181 42.5q101 0 181 -42.5t126.5 -117.5t46.5 -173q0 -126 -59.5 -196t-136.5 -103q68 -23 126 -67.5t94 -114.5t36 -171
q0 -106 -52.5 -193t-145.5 -138.5t-215 -51.5zM523 81q82 0 148.5 38t106 103t39.5 146q0 82 -39.5 147t-106 103t-148.5 38t-149 -38t-106 -103t-39 -147q0 -81 39 -146t106 -103t149 -38zM524 754q67 0 122.5 33.5t88.5 89.5t33 123q0 68 -33 123.5t-88.5 88.5t-123.5 33
q-67 0 -123.5 -33t-89.5 -88.5t-33 -123.5q0 -67 33 -123t89.5 -89.5t124.5 -33.5z" />
    <glyph glyph-name="nine" unicode="9" horiz-adv-x="1088" 
d="M312 0l447 551q-26 -29 -90 -55.5t-154 -26.5q-115 0 -211.5 56.5t-154.5 155t-58 224.5q0 127 62 226t164 156t226 57q126 0 227 -57.5t160 -160.5t59 -238q0 -138 -48.5 -235.5t-116.5 -182.5l-374 -470h-138zM538 568q94 0 170.5 45t122.5 122t46 170q0 94 -46 170.5
t-122.5 122.5t-170.5 46q-93 0 -169.5 -46t-122 -122.5t-45.5 -170.5q0 -93 45.5 -170t122 -122t169.5 -45z" />
    <glyph glyph-name="colon" unicode=":" horiz-adv-x="505" 
d="M250 -24q-47 0 -79.5 33t-32.5 79q0 48 32.5 81t79.5 33t80 -33t33 -81q0 -46 -33 -79t-80 -33zM250 635q-47 0 -79.5 33t-32.5 79q0 48 32.5 81t79.5 33t80 -33t33 -81q0 -46 -33 -79t-80 -33z" />
    <glyph glyph-name="semicolon" unicode=";" horiz-adv-x="523" 
d="M234 637q-47 0 -79.5 33t-32.5 79q0 48 32.5 81t79.5 33t80 -33t33 -81q0 -46 -33 -79t-80 -33zM238 210q55 0 93.5 -38.5t38.5 -99.5q0 -67 -26.5 -125t-69.5 -103.5t-94 -72.5l-59 56q29 14 61.5 37t58.5 53.5t33 66.5q-22 -11 -49 -11q-47 1 -79 35t-32 78q0 37 16 65
t44.5 43.5t63.5 15.5z" />
    <glyph glyph-name="less" unicode="&#x3c;" horiz-adv-x="1072" 
d="M905 226l-811 386v107l811 388v-109l-708 -332l708 -333v-107z" />
    <glyph glyph-name="equal" unicode="=" horiz-adv-x="1012" 
d="M117 777v100h741v-100h-741zM117 454v99h741v-99h-741z" />
    <glyph glyph-name="greater" unicode="&#x3e;" horiz-adv-x="1072" 
d="M107 226v107l708 333l-708 332v109l812 -388v-107z" />
    <glyph glyph-name="question" unicode="?" horiz-adv-x="907" 
d="M374 337v269q0 58 25 87.5t72 57.5q47 30 97.5 71t85 96t34.5 124q0 100 -72 149.5t-188 49.5q-80 0 -138 -31t-92.5 -73.5t-44.5 -77.5l-99 44q3 17 20 46.5t48 63t76 63.5t105 49t134 19q114 0 196.5 -37t127.5 -102.5t45 -153.5q0 -82 -37 -146t-96.5 -115t-127.5 -96
q-42 -26 -54 -53t-12 -84v-220h-105zM428 -24q-47 0 -80 33t-33 79q0 49 33 81.5t80 32.5q46 0 79 -32.5t33 -81.5q0 -46 -33 -79t-79 -33z" />
    <glyph glyph-name="at" unicode="@" horiz-adv-x="1541" 
d="M756 -24q-147 0 -274.5 49.5t-224 140.5t-151 216.5t-54.5 278.5q0 152 57.5 277.5t159 216.5t232.5 140t278 49q140 0 263 -46t217 -130.5t147.5 -201.5t53.5 -259q0 -116 -45.5 -196t-114.5 -121t-139 -41q-85 0 -123 40t-42 99q-6 -38 -41.5 -76.5t-95 -65
t-137.5 -26.5q-104 0 -179.5 45.5t-116.5 120.5t-41 166q0 90 40 163t114.5 116.5t177.5 43.5q74 0 128 -25.5t87 -56t40 -45.5v104h90v-409q0 -15 7 -42t28 -48.5t63 -21.5q41 0 87.5 28.5t80.5 90.5t34 159q0 115 -44 213.5t-123 173t-185.5 116t-230.5 41.5
q-122 0 -235 -44t-201.5 -123.5t-140.5 -188t-52 -236.5q0 -127 49 -235t134 -187.5t194 -123.5t229 -44q103 0 186 28.5t141 69t85 77.5l83 -67q-34 -43 -103.5 -90t-169 -80t-222.5 -33zM733 408q114 0 177 74t63 175q0 69 -32 121t-86.5 81.5t-121.5 29.5
q-107 0 -176.5 -68t-69.5 -171q0 -101 66.5 -171.5t179.5 -70.5z" />
    <glyph glyph-name="A" unicode="A" horiz-adv-x="1141" 
d="M509 1320h123l473 -1320h-119l-123 342h-584l-124 -342h-121zM313 447h517l-258 732h-3z" />
    <glyph glyph-name="B" unicode="B" horiz-adv-x="1041" 
d="M119 1320h328q105 0 199.5 -28t153 -96.5t58.5 -192.5q0 -86 -34 -156t-82 -113t-90 -48q33 -2 79 -22t90.5 -58.5t74 -97.5t29.5 -138q0 -108 -41.5 -191.5t-128.5 -131t-224 -47.5h-412v1320zM229 99h310q109 0 167.5 39.5t81 102t22.5 128.5q0 110 -73.5 183
t-214.5 73h-293v-526zM229 722h268q86 0 141 40.5t81.5 101.5t26.5 122q0 130 -77 182.5t-206 52.5h-234v-499z" />
    <glyph glyph-name="C" unicode="C" horiz-adv-x="1252" 
d="M737 86q138 0 234.5 37t136.5 72l49 -97q-43 -40 -153.5 -81t-266.5 -41q-146 0 -269.5 52.5t-215.5 146t-143 217t-51 266.5t50.5 267.5t142.5 218.5t216 147t270 53q156 0 266.5 -41t153.5 -81l-49 -97q-40 35 -136.5 72t-234.5 37q-116 0 -217 -41.5t-178 -117.5
t-120.5 -181.5t-43.5 -232.5q0 -128 43.5 -234t120.5 -182t178 -117.5t217 -41.5z" />
    <glyph glyph-name="D" unicode="D" horiz-adv-x="1111" 
d="M115 1320h272q211 0 346 -84.5t199.5 -233.5t64.5 -341q0 -193 -64 -342t-199 -234t-347 -85h-272v1320zM226 1214v-1108h152q176 0 286.5 71t163 195.5t53.5 286.5t-51 287t-163.5 196.5t-288.5 71.5h-152z" />
    <glyph glyph-name="E" unicode="E" horiz-adv-x="1042" 
d="M123 1320h752v-105h-641v-501h625v-104h-625v-505h641v-105h-752v1320z" />
    <glyph glyph-name="F" unicode="F" horiz-adv-x="886" 
d="M119 1320h653v-105h-543v-501h508v-105h-508v-609h-110v1320z" />
    <glyph glyph-name="G" unicode="G" horiz-adv-x="1423" 
d="M671 707h663v-66q0 -137 -48.5 -257t-135.5 -212t-203.5 -144t-253.5 -52q-140 0 -258 54t-205 149t-135.5 218.5t-48.5 263.5q0 139 48.5 262.5t135.5 218.5t205 148.5t258 53.5q85 0 160 -19t139 -54t116.5 -82t91.5 -102l-95 -59q-69 93 -174 150t-238 57
q-115 0 -212.5 -45.5t-169 -124.5t-110.5 -183t-39 -221t39 -221t110.5 -184t169 -125.5t212.5 -45.5q111 0 204.5 41t162.5 113.5t109 167.5t45 203h-543v97z" />
    <glyph glyph-name="H" unicode="H" horiz-adv-x="1225" 
d="M949 609h-715v-609h-111v1320h111v-606h715v606h109v-1320h-109v609z" />
    <glyph glyph-name="I" unicode="I" horiz-adv-x="433" 
d="M140 1320h113v-1320h-113v1320z" />
    <glyph glyph-name="J" unicode="J" horiz-adv-x="758" 
d="M632 399q0 -130 -36.5 -225t-112.5 -146.5t-195 -51.5q-96 0 -159.5 27t-98 60t-42.5 50l57 95q11 -19 36 -48t73.5 -52t124.5 -23q91 0 144 43t75 115t22 159v918h112v-921z" />
    <glyph glyph-name="K" unicode="K" horiz-adv-x="946" 
d="M355 660l557 -660h-136l-531 625v-625h-113v1320h113v-634l499 634h132z" />
    <glyph glyph-name="L" unicode="L" horiz-adv-x="888" 
d="M119 1320h112v-1215h538v-105h-650v1320z" />
    <glyph glyph-name="M" unicode="M" horiz-adv-x="1398" 
d="M1221 1320v-1320h-112v1034l7 111l-29 -118l-363 -967h-111l-363 967l-28 118l7 -111v-1034h-112v1320h138l403 -1108l11 -50l10 50l405 1108h137z" />
    <glyph glyph-name="N" unicode="N" horiz-adv-x="1315" 
d="M229 1210l6 -1v-1209h-112v1320h165l754 -1209l-5 -1v1210h111v-1320h-166z" />
    <glyph glyph-name="O" unicode="O" horiz-adv-x="1426" 
d="M162 661q0 -163 68.5 -293.5t188.5 -206.5t274 -76q155 0 274 76t187 206.5t68 293.5t-68 293t-187 205.5t-274 75.5q-154 0 -274 -75.5t-188.5 -205.5t-68.5 -293zM46 661q0 144 49 268.5t136.5 217.5t205.5 145t256 52q139 0 256 -52t204.5 -145t135.5 -217.5
t48 -268.5q0 -145 -47.5 -269.5t-135 -218t-205 -145.5t-256.5 -52q-140 0 -258 52t-205 145.5t-135.5 218t-48.5 269.5z" />
    <glyph glyph-name="P" unicode="P" horiz-adv-x="1005" 
d="M137 1320h324q122 0 220.5 -38.5t157.5 -122.5t59 -223q0 -137 -59 -225.5t-157.5 -130.5t-220.5 -42h-212v-538h-112v1320zM249 638h182q96 0 175 28t126.5 93.5t47.5 175.5q0 111 -47.5 172.5t-126.5 87t-175 25.5h-182v-582z" />
    <glyph glyph-name="Q" unicode="Q" horiz-adv-x="1396" 
d="M1066 -80q57 0 98.5 13t65.5 27t26 18l58 -88q-22 -21 -83.5 -50.5t-168.5 -29.5q-67 0 -116.5 14.5t-91.5 34t-86.5 34t-103.5 14.5q-62 0 -110.5 -23t-78.5 -46t-33 -27l-65 74q65 54 135 87t167 33q76 0 136.5 -21t120 -42.5t130.5 -21.5zM162 661q0 -163 68.5 -293.5
t188.5 -206.5t274 -76q155 0 274 76t187 206.5t68 293.5t-68 293t-187 205.5t-274 75.5q-154 0 -274 -75.5t-188.5 -205.5t-68.5 -293zM46 661q0 144 49 268.5t136.5 217.5t205.5 145t256 52q139 0 256 -52t204.5 -145t135.5 -217.5t48 -268.5q0 -145 -47.5 -269.5
t-135 -218t-205 -145.5t-256.5 -52q-140 0 -258 52t-205 145.5t-135.5 218t-48.5 269.5z" />
    <glyph glyph-name="R" unicode="R" horiz-adv-x="1074" 
d="M125 1320h426q103 0 189.5 -43t139 -126t52.5 -205q0 -121 -50.5 -201.5t-121 -121t-131.5 -42.5l330 -581h-128l-316 573h-278v-573h-112v1320zM237 664h276q135 0 219.5 68t84.5 212q0 145 -84 210.5t-220 65.5h-276v-556z" />
    <glyph glyph-name="S" unicode="S" horiz-adv-x="1027" 
d="M502 1344q110 0 187.5 -26t121.5 -54.5t51 -36.5l-62 -94q-15 13 -52.5 38t-96.5 45.5t-140 20.5q-129 0 -203 -54t-74 -150q0 -65 39 -113.5t106.5 -87.5t152.5 -78q67 -30 134.5 -67t124 -87t91 -116t34.5 -153q0 -79 -32 -144t-90.5 -112.5t-138.5 -73t-176 -25.5
q-114 0 -207 29.5t-150 61t-63 37.5l67 99q12 -10 42.5 -29.5t76.5 -40.5t106.5 -35t131.5 -14q154 0 233.5 72t79.5 181q0 85 -51 145.5t-131 106.5t-167 87q-92 43 -167 92t-120 114t-45 156q0 89 51.5 158t139 108.5t196.5 39.5z" />
    <glyph glyph-name="T" unicode="T" horiz-adv-x="974" 
d="M408 1215h-376v105h865v-105h-376v-1215h-113v1215z" />
    <glyph glyph-name="U" unicode="U" horiz-adv-x="1230" 
d="M977 1320h112v-824q0 -163 -65.5 -279.5t-176.5 -178.5t-249 -62q-137 0 -249 62t-178 178.5t-66 279.5v824h112v-818q0 -127 51 -221t137.5 -146t192.5 -52t191.5 52t136.5 146t51 221v818z" />
    <glyph glyph-name="V" unicode="V" horiz-adv-x="1204" 
d="M649 0h-138l-489 1320h126l432 -1192l435 1192h125z" />
    <glyph glyph-name="W" unicode="W" horiz-adv-x="1563" 
d="M1192 0h-149l-306 1213h24l-306 -1213h-149l-266 1320h126l220 -1176h-2l304 1176h123l304 -1176h-3l221 1176h126z" />
    <glyph glyph-name="X" unicode="X" horiz-adv-x="1162" 
d="M638 710l475 -710h-142l-412 619l-414 -619h-135l472 710l-425 610h139l365 -522l361 522h136z" />
    <glyph glyph-name="Y" unicode="Y" horiz-adv-x="1062" 
d="M453 475l-439 845h134l361 -711l359 711h134l-437 -845v-475h-112v475z" />
    <glyph glyph-name="Z" unicode="Z" horiz-adv-x="1139" 
d="M146 1320h895l-782 -1215h739v-105h-945l787 1215h-694v105z" />
    <glyph glyph-name="bracketleft" unicode="[" horiz-adv-x="666" 
d="M120 -416v1792h388v-96h-288v-1600h288v-96h-388z" />
    <glyph glyph-name="backslash" unicode="\" horiz-adv-x="937" 
d="M838 0h-109l-659 1376h109z" />
    <glyph glyph-name="bracketright" unicode="]" horiz-adv-x="666" 
d="M95 -416v96h288v1600h-288v96h388v-1792h-388z" />
    <glyph glyph-name="asciicircum" unicode="^" horiz-adv-x="861" 
d="M769 968h-113l-243 301l-243 -301h-115l316 376h84z" />
    <glyph glyph-name="underscore" unicode="_" horiz-adv-x="807" 
d="M23 -141v85h753v-85h-753z" />
    <glyph glyph-name="grave" unicode="`" horiz-adv-x="688" 
d="M475 989l-323 205l77 97l296 -238z" />
    <glyph glyph-name="a" unicode="a" horiz-adv-x="1033" 
d="M785 0v172q-7 -27 -46.5 -74t-109 -84.5t-164.5 -37.5q-111 0 -204.5 51.5t-150 149t-56.5 233.5t56.5 233.5t150 149.5t204.5 52q95 0 164 -35.5t109.5 -81.5t45.5 -77v170h112v-821h-111zM167 410q0 -104 45 -179t116.5 -115t150.5 -40q87 0 155 41t107.5 116t39.5 177
t-39.5 177t-107.5 116.5t-155 41.5q-79 0 -150.5 -40.5t-116.5 -115.5t-45 -179z" />
    <glyph glyph-name="b" unicode="b" horiz-adv-x="1016" 
d="M112 0v1376h116v-725q5 33 47 78.5t115 80.5t169 35q112 0 201.5 -52t142.5 -149.5t53 -233.5t-53 -233.5t-142.5 -149t-201.5 -51.5q-94 0 -167 36t-117 82t-50 78v-172h-113zM841 410q0 104 -41.5 179t-109 115.5t-146.5 40.5q-86 0 -158 -41.5t-115 -116.5t-43 -177
t43 -177t115 -116t158 -41q79 0 146.5 40t109 115t41.5 179z" />
    <glyph glyph-name="c" unicode="c" horiz-adv-x="819" 
d="M475 76q88 0 141 27.5t65 38.5l60 -88q-8 -6 -45 -25.5t-95.5 -36t-132.5 -16.5q-99 0 -191 49t-151.5 146t-59.5 240q0 144 59.5 240.5t151.5 145t191 48.5q74 0 130 -18t92 -40t45 -32l-59 -87q-9 8 -33.5 26.5t-66.5 34.5t-101 16q-71 0 -140 -39t-113.5 -113.5
t-44.5 -181.5t44.5 -182t113.5 -114t140 -39z" />
    <glyph glyph-name="d" unicode="d" horiz-adv-x="1016" 
d="M482 -24q-111 0 -201 51.5t-143 149t-53 233.5t53 233.5t143 149.5t201 52q95 0 168 -35t116 -80.5t47 -78.5v725h116v-1376h-113v172q-7 -32 -50.5 -78t-116.5 -82t-167 -36zM496 76q87 0 159 41t115 116t43 177t-43 177t-115 116.5t-159 41.5q-78 0 -145.5 -40.5
t-109.5 -115.5t-42 -179t42 -179t109.5 -115t145.5 -40z" />
    <glyph glyph-name="e" unicode="e" horiz-adv-x="934" 
d="M166 397q1 -86 34.5 -161t101.5 -121t171 -46q84 0 140.5 27.5t90 64t47.5 65.5l71 -70q-37 -57 -85.5 -97.5t-114 -61.5t-155.5 -21q-131 0 -223.5 58.5t-141 159.5t-48.5 227q0 120 48 216t138.5 152t218.5 56q116 0 201.5 -51t133 -141.5t47.5 -210.5q0 -9 -0.5 -23
t-1.5 -22h-673zM727 492q-1 54 -26.5 114.5t-83 103t-157.5 42.5q-104 0 -165.5 -41.5t-89.5 -101.5t-34 -117h556z" />
    <glyph glyph-name="f" unicode="f" horiz-adv-x="630" 
d="M31 821h183v240q0 128 40 201.5t101 105.5t125 32q76 0 118 -21.5t49 -27.5l-49 -91q-6 6 -34.5 22t-79.5 16q-38 0 -74 -18.5t-60 -72.5t-24 -162v-224h248v-102h-248v-719h-112v719h-183v102z" />
    <glyph glyph-name="g" unicode="g" horiz-adv-x="1042" 
d="M489 -438q-102 0 -178 22t-127.5 58.5t-79.5 78.5l84 74q18 -25 50 -56t91 -53.5t157 -22.5t164.5 44t100.5 117t34 161v29h111v-38q0 -134 -54.5 -226.5t-147 -140t-205.5 -47.5zM785 0v172q-7 -27 -46.5 -74t-109 -84.5t-164.5 -37.5q-111 0 -204.5 51.5t-150 149
t-56.5 233.5t56.5 233.5t150 149.5t204.5 52q95 0 164 -35.5t109.5 -81.5t45.5 -77v170h112v-821h-111zM167 410q0 -104 45 -179t116.5 -115t150.5 -40q87 0 155 41t107.5 116t39.5 177t-39.5 177t-107.5 116.5t-155 41.5q-79 0 -150.5 -40.5t-116.5 -115.5t-45 -179z" />
    <glyph glyph-name="h" unicode="h" horiz-adv-x="999" 
d="M531 845q77 0 151 -33.5t122 -106t48 -187.5v-518h-116v491q0 137 -63.5 197.5t-162.5 60.5q-67 0 -128.5 -38t-101.5 -104t-40 -148v-459h-116v1376h116v-713q7 35 47.5 77.5t104 73.5t139.5 31z" />
    <glyph glyph-name="i" unicode="i" horiz-adv-x="430" 
d="M138 0v821h113v-821h-113zM196 1154q-36 0 -61.5 25.5t-25.5 61.5q0 37 26 62.5t61 25.5q24 0 44.5 -12t33 -31.5t12.5 -44.5q0 -36 -26.5 -61.5t-63.5 -25.5z" />
    <glyph glyph-name="j" unicode="j" horiz-adv-x="450" 
d="M60 -440q-57 0 -96 13.5t-56 26.5l52 90q12 -10 29.5 -18t55.5 -8q52 0 78 32t35 89.5t9 133.5v902h114v-942q0 -97 -20.5 -169t-69 -111t-131.5 -39zM230 1154q-37 0 -62.5 25.5t-25.5 61.5q0 24 12 44t32 32t44 12q25 0 44.5 -12t31 -32t11.5 -44q0 -36 -25 -61.5
t-62 -25.5z" />
    <glyph glyph-name="k" unicode="k" horiz-adv-x="786" 
d="M590 821h148l-440 -391l463 -430h-149l-410 379v-379h-114v1376h114v-899z" />
    <glyph glyph-name="l" unicode="l" horiz-adv-x="399" 
d="M239 0h-116v1376h116v-1376z" />
    <glyph glyph-name="m" unicode="m" horiz-adv-x="1465" 
d="M1033 845q91 0 153 -40t93.5 -121.5t31.5 -207.5v-476h-113v446q0 155 -42 228t-150 73q-55 0 -108.5 -30.5t-88.5 -96.5t-35 -174v-446h-109v446q0 155 -54 228t-142 73q-56 0 -108.5 -29t-86 -95.5t-33.5 -176.5v-446h-113v821h113v-130q10 31 45.5 67t91.5 61.5
t128 25.5q76 0 126 -34t78 -81t35 -86q15 47 54 93t99 77t135 31z" />
    <glyph glyph-name="n" unicode="n" horiz-adv-x="984" 
d="M525 845q78 0 152 -33.5t122 -106t48 -187.5v-518h-116v491q0 137 -64 197.5t-164 60.5q-66 0 -127.5 -38t-101 -104t-39.5 -148v-459h-114v821h114v-158q7 35 47.5 77.5t104 73.5t138.5 31z" />
    <glyph glyph-name="o" unicode="o" horiz-adv-x="989" 
d="M477 -24q-123 0 -218.5 57.5t-150 155.5t-54.5 219t54.5 220.5t150 158t218.5 58.5t217.5 -58.5t148.5 -158t54 -220.5t-54 -219t-148.5 -155.5t-217.5 -57.5zM477 79q93 0 162.5 43t108 118t38.5 168q0 94 -38.5 169.5t-108 120t-162.5 44.5q-94 0 -164 -44.5t-109 -120
t-39 -169.5q0 -93 39 -168t109 -118t164 -43z" />
    <glyph glyph-name="p" unicode="p" horiz-adv-x="1044" 
d="M234 -416h-114v1237h117v-170q6 33 48.5 78.5t115 80.5t167.5 35q112 0 201.5 -52t142.5 -149.5t53 -233.5t-53.5 -233.5t-143.5 -149t-202 -51.5q-97 0 -170.5 37t-115 84t-46.5 75v-588zM851 410q0 104 -42 179t-109.5 115.5t-146.5 40.5q-87 0 -159 -41.5
t-114.5 -116.5t-42.5 -177t42.5 -177t114.5 -116t159 -41q79 0 146.5 40t109.5 115t42 179z" />
    <glyph glyph-name="q" unicode="q" horiz-adv-x="1044" 
d="M810 -416v588q-4 -28 -46 -75t-115 -84t-171 -37q-111 0 -201.5 51.5t-144 149t-53.5 233.5t53 233.5t143 149.5t201 52q95 0 167.5 -35t115.5 -80.5t48 -78.5v170h117v-1237h-114zM492 76q87 0 158.5 41t114 116t42.5 177t-42.5 177t-114 116.5t-158.5 41.5
q-79 0 -147 -40.5t-110 -115.5t-42 -179t42 -179t110 -115t147 -40z" />
    <glyph glyph-name="r" unicode="r" horiz-adv-x="657" 
d="M236 0h-112v821h112v-148h-5q4 26 36.5 66.5t88.5 73t132 32.5q58 0 99.5 -14.5t57.5 -29.5l-50 -97q-13 13 -48.5 26t-85.5 13q-69 0 -119.5 -46t-78 -109.5t-27.5 -116.5v-471z" />
    <glyph glyph-name="s" unicode="s" horiz-adv-x="779" 
d="M394 845q57 0 107.5 -12.5t88.5 -31t57 -33.5l-55 -79q-21 20 -73 42.5t-117 22.5q-80 0 -136.5 -33t-56.5 -96q0 -61 57 -97t150 -59q71 -18 129.5 -45t93.5 -73.5t35 -123.5q0 -66 -27 -113.5t-73.5 -77.5t-105.5 -45t-124 -15q-67 0 -124 15t-97.5 36t-61.5 39l57 89
q26 -27 85.5 -55.5t139.5 -28.5q93 0 153.5 43t60.5 113q0 51 -29 82t-76 49.5t-100 31.5q-51 13 -97.5 31.5t-82.5 46.5t-56.5 67.5t-20.5 92.5q0 66 41 114.5t109.5 75.5t148.5 27z" />
    <glyph glyph-name="t" unicode="t" horiz-adv-x="633" 
d="M45 821h171v337h113v-337h224v-103h-224v-487q0 -82 30 -117t75 -35q43 0 65 15t26 20l53 -87q-6 -5 -27 -17.5t-55 -23t-82 -10.5q-83 0 -140.5 53.5t-57.5 171.5v517h-171v103z" />
    <glyph glyph-name="u" unicode="u" horiz-adv-x="990" 
d="M221 392q0 -144 63.5 -228.5t191.5 -84.5q129 0 192 84.5t63 228.5v429h114v-449q0 -115 -43 -204.5t-125 -140.5t-201 -51q-118 0 -200 51t-125 140.5t-43 204.5v449h113v-429z" />
    <glyph glyph-name="v" unicode="v" horiz-adv-x="944" 
d="M30 821h122l301 -713l300 713h122l-355 -821h-134z" />
    <glyph glyph-name="w" unicode="w" horiz-adv-x="1263" 
d="M613 679l-216 -679h-134l-201 821h122l156 -694l214 678h118l213 -678l158 694h122l-200 -821h-134z" />
    <glyph glyph-name="x" unicode="x" horiz-adv-x="972" 
d="M538 431l359 -431h-136l-295 361l-294 -361h-131l357 427l-321 394h137l255 -319l259 319h130z" />
    <glyph glyph-name="y" unicode="y" horiz-adv-x="875" 
d="M422 110l302 711h118l-550 -1237h-118l186 416l-337 821h119z" />
    <glyph glyph-name="z" unicode="z" horiz-adv-x="816" 
d="M79 821h671l-529 -726h513v-95h-707l528 726h-476v95z" />
    <glyph glyph-name="braceleft" unicode="{" horiz-adv-x="686" 
d="M119 526q76 0 102.5 41.5t26.5 96.5v490q0 68 16.5 118t58 77t116.5 27h91v-97h-75q-55 0 -80.5 -25t-25.5 -81v-522q0 -67 -29.5 -115t-88.5 -58q59 -10 88.5 -57t29.5 -112v-522q0 -44 20 -75t86 -31h75v-97h-91q-75 0 -116.5 27t-58 77t-16.5 118v490q0 55 -26.5 97
t-102.5 42v91z" />
    <glyph glyph-name="bar" unicode="|" horiz-adv-x="368" 
d="M218 -244h-104v1654h104v-1654z" />
    <glyph glyph-name="braceright" unicode="}" horiz-adv-x="781" 
d="M197 -416v97h76q66 0 85.5 31t19.5 75v522q0 65 29.5 112t88.5 57q-58 10 -88 58t-30 115v522q0 56 -25 81t-80 25h-76v97h92q75 0 116.5 -27t58 -77t16.5 -118v-490q0 -55 26.5 -96.5t102.5 -41.5v-91q-76 0 -102.5 -42t-26.5 -97v-490q0 -68 -16.5 -118t-58 -77
t-116.5 -27h-92z" />
    <glyph glyph-name="asciitilde" unicode="~" horiz-adv-x="1177" 
d="M1034 731q-22 -42 -62.5 -89t-94.5 -79.5t-119 -32.5q-63 0 -111.5 26.5t-88.5 60t-80.5 60t-89.5 26.5q-45 0 -82.5 -24t-64.5 -58.5t-41 -67.5l-94 46q22 43 62 89.5t95 79t120 32.5t113.5 -26.5t88.5 -60t80.5 -60t89.5 -26.5q46 0 83.5 23.5t65 58t41.5 66.5z" />
    <glyph glyph-name="uni00A0" unicode="&#xa0;" horiz-adv-x="484" 
 />
    <glyph glyph-name="exclamdown" unicode="&#xa1;" horiz-adv-x="625" 
d="M243 -54l27 1039h79l29 -1039h-135zM309 1120q-47 0 -79.5 33t-32.5 81q0 31 15 56.5t40.5 40.5t56.5 15q47 0 80 -33t33 -79q0 -48 -33 -81t-80 -33z" />
    <glyph glyph-name="cent" unicode="&#xa2;" horiz-adv-x="819" 
d="M423 1018h82v-228h-82v228zM423 21h82v-227h-82v227zM475 76q88 0 141 27.5t65 38.5l60 -88q-8 -6 -45 -25.5t-95.5 -36t-132.5 -16.5q-99 0 -191 49t-151.5 146t-59.5 240q0 144 59.5 240.5t151.5 145t191 48.5q74 0 130 -18t92 -40t45 -32l-59 -87q-9 8 -33.5 26.5
t-66.5 34.5t-101 16q-71 0 -140 -39t-113.5 -113.5t-44.5 -181.5t44.5 -182t113.5 -114t140 -39z" />
    <glyph glyph-name="sterling" unicode="&#xa3;" horiz-adv-x="1197" 
d="M302 590q-5 9 -21 47.5t-34 93.5t-31.5 117t-13.5 118q0 102 42.5 188.5t131.5 139t230 52.5q114 0 197.5 -41.5t136.5 -101t73 -113.5l-95 -52q-16 45 -56.5 92.5t-103.5 81.5t-150 34q-137 0 -215.5 -73.5t-78.5 -210.5q0 -46 12.5 -103.5t30 -113t34.5 -98t24 -57.5
q31 -80 42.5 -129.5t11.5 -102.5q0 -49 -11 -89.5t-14 -51.5q46 -5 88.5 -27t86 -49t89.5 -47t99 -20q56 0 93 24.5t57.5 58t24.5 62.5l97 -38q-13 -44 -47.5 -91.5t-88.5 -80.5t-130 -33q-74 0 -130 24.5t-104.5 56.5t-97.5 56t-111 24q-50 0 -87 -26t-58 -58.5t-24 -52.5
h-97q4 52 39.5 104t89.5 86.5t112 34.5q5 13 14.5 48.5t9.5 82.5q0 56 -17 111t-50 123zM108 616h712v-85h-712v85z" />
    <glyph glyph-name="currency" unicode="&#xa4;" horiz-adv-x="960" 
d="M882 1031l59 -58l-161 -161l-59 59zM177 327l59 -59l-161 -160l-58 57zM75 1031l161 -160l-59 -59l-160 161zM780 327l161 -162l-59 -57l-161 160zM482 136q-124 0 -219 57.5t-149.5 155.5t-54.5 219t54.5 220.5t149.5 158t219 58.5q123 0 217.5 -58.5t148 -158
t53.5 -220.5t-53.5 -219t-148 -155.5t-217.5 -57.5zM482 239q93 0 162.5 43t108 118t38.5 168q0 94 -38.5 169.5t-108 120t-162.5 44.5q-94 0 -164 -44.5t-109 -120t-39 -169.5q0 -93 39 -168t109 -118t164 -43z" />
    <glyph glyph-name="yen" unicode="&#xa5;" horiz-adv-x="1062" 
d="M75 601h868v-88h-868v88zM75 374h868v-89h-868v89zM453 475l-439 845h134l361 -711l359 711h134l-437 -845v-475h-112v475z" />
    <glyph glyph-name="brokenbar" unicode="&#xa6;" horiz-adv-x="368" 
d="M208 845h-86v531h86v-531zM208 0h-86v531h86v-531z" />
    <glyph glyph-name="section" unicode="&#xa7;" horiz-adv-x="1091" 
d="M476 -440q-108 0 -186 39.5t-125.5 97t-64.5 109.5l102 37q12 -39 45.5 -82t91 -72.5t137.5 -29.5q107 0 168.5 31.5t87.5 84t26 114.5q0 77 -41.5 129t-113.5 91t-163 74q-154 59 -233 129.5t-79 182.5q0 75 41.5 130.5t96 90.5t93.5 45q-49 35 -91.5 74.5t-69 92.5
t-26.5 127q0 77 41.5 142t123.5 106t201 41q102 0 173.5 -37t114 -90.5t56.5 -103.5l-92 -41q-11 38 -43 78.5t-83 68.5t-123 28q-114 0 -185 -51.5t-71 -131.5q0 -78 41 -131.5t107.5 -90.5t139.5 -66q99 -39 177.5 -83t124 -104t45.5 -150q0 -70 -30.5 -123.5t-77 -90
t-94.5 -58.5q75 -43 116 -113.5t41 -157.5q0 -55 -19.5 -114t-65 -109t-123 -81.5t-191.5 -31.5zM442 715q-47 -13 -95 -40.5t-79.5 -69t-31.5 -101.5q0 -76 67 -127.5t156 -87.5q66 -27 111.5 -46t69.5 -29q29 9 70 36.5t73 72.5t32 107q0 56 -39.5 101t-103.5 81.5
t-138 65.5q-17 6 -37.5 14.5t-36.5 15t-18 7.5z" />
    <glyph glyph-name="dieresis" unicode="&#xa8;" horiz-adv-x="965" 
d="M655 1030q-36 0 -62 26.5t-26 61.5q0 36 26 62.5t62 26.5t62.5 -26.5t26.5 -62.5t-26.5 -62t-62.5 -26zM271 1030q-36 0 -62 26.5t-26 61.5q0 36 26 62.5t62 26.5t62.5 -26.5t26.5 -62.5t-26.5 -62t-62.5 -26z" />
    <glyph glyph-name="copyright" unicode="&#xa9;" horiz-adv-x="1509" 
d="M52 659q0 142 53 266t147.5 218t218 147.5t264.5 53.5q142 0 266 -53.5t218 -147.5t147.5 -218t53.5 -266q0 -141 -53.5 -264.5t-147.5 -218t-218 -147.5t-266 -53q-141 0 -264.5 53t-218 147.5t-147.5 218t-53 264.5zM130 659q0 -124 47 -233.5t130.5 -193t193 -131
t234.5 -47.5t234.5 47.5t193 131t131 193t47.5 233.5q0 125 -47.5 235t-131 193.5t-193 131t-234.5 47.5t-234.5 -47.5t-193 -131t-130.5 -193.5t-47 -235zM746 859q51 0 90 -15.5t53 -29.5l34 70q-3 3 -49.5 27.5t-132.5 24.5q-84 0 -151 -38t-105.5 -103.5t-38.5 -147.5
q0 -78 38.5 -142t105.5 -102.5t151 -38.5q40 0 76 8.5t64 20.5t42 20l-34 67q-14 -11 -52 -24.5t-88 -13.5q-90 0 -150.5 54.5t-60.5 153.5q0 97 59 153t149 56z" />
    <glyph glyph-name="ordfeminine" unicode="&#xaa;" horiz-adv-x="824" 
d="M133 1075q0 85 35 145t93.5 92t127.5 32q74 0 120.5 -31t53.5 -54v71l93 -2v-507h-91v74h-2q-3 -14 -25.5 -35t-60 -38t-88.5 -17q-69 0 -127.5 32t-93.5 92.5t-35 145.5zM222 1075q0 -87 51.5 -135.5t115.5 -48.5q74 0 125.5 52.5t51.5 131.5q0 80 -52.5 131.5
t-124.5 51.5q-64 0 -115.5 -48.5t-51.5 -134.5z" />
    <glyph glyph-name="guillemotleft" unicode="&#xab;" horiz-adv-x="945" 
d="M424 131l-61 -49l-286 363l286 362l61 -47l-251 -315zM796 131l-62 -49l-284 363l284 362l62 -47l-251 -315z" />
    <glyph glyph-name="logicalnot" unicode="&#xac;" horiz-adv-x="831" 
d="M679 506v-325h-102v224h-466v101h568z" />
    <glyph glyph-name="uni00AD" unicode="&#xad;" horiz-adv-x="774" 
d="M111 405v101h515v-101h-515z" />
    <glyph glyph-name="registered" unicode="&#xae;" horiz-adv-x="857" 
d="M52 984q0 99 48.5 180.5t129.5 130.5t179 49q100 0 181.5 -49t130 -130.5t48.5 -180.5q0 -98 -48.5 -179.5t-130 -129.5t-181.5 -48q-98 0 -179 48t-129.5 129.5t-48.5 179.5zM114 984q0 -82 40 -149t107 -106t148 -39q83 0 150.5 39t107 106t39.5 149t-39.5 149.5
t-107 107.5t-150.5 40q-81 0 -148 -40t-107 -107.5t-40 -149.5zM313 1152h104q47 0 77.5 -25t30.5 -73q0 -38 -17.5 -61.5t-47.5 -34.5l85 -137h-63l-75 131h-39v-131h-55v331zM368 995h35q29 0 47.5 12t18.5 46t-22 42t-50 8h-29v-108z" />
    <glyph glyph-name="macron" unicode="&#xaf;" horiz-adv-x="944" 
d="M175 1065v90h558v-90h-558z" />
    <glyph glyph-name="degree" unicode="&#xb0;" horiz-adv-x="587" 
d="M133 1235q0 60 41.5 96.5t100.5 36.5q58 0 99 -36.5t41 -96.5q0 -58 -39.5 -95.5t-100.5 -37.5q-63 0 -102.5 37.5t-39.5 95.5zM193 1235q0 -33 23 -57t59 -24q34 0 58 24t24 57q0 34 -24 57t-58 23t-58 -23t-24 -57z" />
    <glyph glyph-name="plusminus" unicode="&#xb1;" horiz-adv-x="1080" 
d="M472 389v362h-361v98h361v361h100v-361h360v-98h-360v-362h-100zM114 130v100h815v-100h-815z" />
    <glyph glyph-name="uni00B2" unicode="&#xb2;" horiz-adv-x="467" 
d="M254 1304q-35 0 -61.5 -13.5t-43.5 -31.5t-26 -32t-10 -16l-40 17q1 2 7.5 14.5t20.5 30t35 33.5t50.5 27t67.5 11q36 0 64.5 -9.5t48 -29t29.5 -48t10 -65.5q0 -33 -16.5 -68.5t-43 -70.5t-57 -67t-59 -58t-49.5 -43.5t-28 -22.5h248v-41h-320v37q15 12 41 33.5t58 49.5
t63.5 60t58 65t42.5 65.5t16 61.5q0 61 -27.5 86t-78.5 25z" />
    <glyph glyph-name="uni00B3" unicode="&#xb3;" horiz-adv-x="429" 
d="M60 1265q1 6 10.5 19.5t27.5 28.5t45.5 25t65.5 10q50 0 84.5 -18.5t51.5 -50t17 -68.5q0 -33 -13 -58.5t-33.5 -41.5t-43.5 -19q23 -3 47.5 -18t41 -43t16.5 -66q0 -45 -21.5 -81.5t-59.5 -57.5t-88 -21q-49 0 -83 16t-55 40t-28 45l41 23q6 -18 21.5 -37t41.5 -32
t61 -13q40 0 67.5 16t42 43t14.5 60q0 36 -18 59.5t-46 34.5t-60 11h-10v37h13q28 0 53.5 12t40.5 34t15 54q0 42 -27.5 71t-83.5 29q-30 0 -50.5 -8.5t-33 -20t-18 -21.5t-6.5 -12z" />
    <glyph glyph-name="acute" unicode="&#xb4;" horiz-adv-x="973" 
d="M318 989l-49 64l294 238l79 -97z" />
    <glyph glyph-name="uni00B5" unicode="&#xb5;" horiz-adv-x="990" 
d="M108 821h113v-1213h-113v1213zM221 392q0 -144 63.5 -228.5t191.5 -84.5q129 0 192 84.5t63 228.5v429h114v-449q0 -115 -43 -204.5t-125 -140.5t-201 -51q-118 0 -200 51t-125 140.5t-43 204.5v449h113v-429z" />
    <glyph glyph-name="paragraph" unicode="&#xb6;" horiz-adv-x="976" 
d="M810 0h-78v1233h-122v-1233h-77v617h-74q-103 0 -176.5 33.5t-120.5 87t-69 116.5t-22 123q0 82 40 160.5t126 130.5t222 52h351v-1320z" />
    <glyph glyph-name="periodcentered" unicode="&#xb7;" horiz-adv-x="505" 
d="M250 316q-47 0 -79.5 33t-32.5 79q0 48 32.5 81t79.5 33t80 -33t33 -81q0 -46 -33 -79t-80 -33z" />
    <glyph glyph-name="cedilla" unicode="&#xb8;" horiz-adv-x="781" 
d="M378 -422q-64 0 -117.5 20t-78.5 38l55 66q19 -15 56.5 -31t79.5 -16q54 0 91 23t37 62q0 40 -27 59t-72 19q-31 0 -57.5 -4.5t-38.5 -9.5l-36 20l76 218l66 -30l-51 -145q44 13 98.5 6t94 -36.5t39.5 -86.5t-32.5 -95.5t-82 -57.5t-100.5 -19z" />
    <glyph glyph-name="uni00B9" unicode="&#xb9;" horiz-adv-x="245" 
d="M134 1269l-90 -52v43l103 61h30v-500h-43v448z" />
    <glyph glyph-name="ordmasculine" unicode="&#xba;" horiz-adv-x="847" 
d="M131 1074q0 79 40 140t103.5 95.5t132.5 34.5q68 0 130 -34.5t101.5 -95.5t39.5 -140q0 -78 -38 -138.5t-99.5 -95t-133.5 -34.5q-76 0 -138.5 34.5t-100 95t-37.5 138.5zM227 1074q0 -82 52.5 -136t126.5 -54q70 0 124.5 54t54.5 136q0 57 -26 99.5t-67.5 67t-85.5 24.5
q-45 0 -86 -24.5t-67 -67t-26 -99.5z" />
    <glyph glyph-name="guillemotright" unicode="&#xbb;" horiz-adv-x="945" 
d="M516 82l-60 49l251 314l-251 315l60 47l286 -362zM146 82l-62 49l251 314l-251 315l62 47l284 -362z" />
    <glyph glyph-name="onequarter" unicode="&#xbc;" horiz-adv-x="1332" 
d="M263 1244l-140 -82v67l161 95h45v-774h-66v694zM1129 770v-547h88v-61h-88v-162h-66v162h-327v57l327 551h66zM1063 223v429h-1l-252 -429h253zM993 1320h74l-768 -1320h-74z" />
    <glyph glyph-name="onehalf" unicode="&#xbd;" horiz-adv-x="1472" 
d="M1129 722q-53 0 -92.5 -20t-65 -47t-39.5 -48.5t-15 -24.5l-60 26q1 4 11 22.5t31 44t52.5 50.5t75.5 41t102 16q55 0 97.5 -15t71.5 -43.5t44 -71.5t15 -99q0 -49 -24.5 -102.5t-64.5 -106t-86 -101t-89 -87.5t-74.5 -65t-42.5 -35h375v-61h-481v57q22 18 61 49.5
t86.5 74t95.5 90.5t88 98t64.5 98.5t24.5 91.5q0 93 -42 130.5t-119 37.5zM272 1244l-139 -82v67l160 95h45v-774h-66v694zM1002 1320h74l-768 -1320h-74z" />
    <glyph glyph-name="threequarters" unicode="&#xbe;" horiz-adv-x="1494" 
d="M111 1223q3 9 16.5 29t40 41.5t66.5 36.5t97 15q73 0 123 -27.5t75.5 -73t25.5 -100.5q0 -48 -19 -86t-49.5 -61.5t-64.5 -28.5q35 -2 70.5 -24.5t60 -63.5t24.5 -97q0 -66 -31 -119.5t-87 -84.5t-131 -31q-70 0 -120.5 23.5t-81.5 58t-42 67.5l60 33q9 -27 32.5 -55
t61 -47t89.5 -19q59 0 99.5 23.5t61.5 63t21 88.5q0 53 -25.5 87.5t-67.5 50.5t-89 16h-15v54h20q42 0 78.5 18t59 51t22.5 79q0 61 -40.5 104t-122.5 43q-44 0 -74.5 -12.5t-48.5 -29.5t-26.5 -31.5t-9.5 -17.5zM1273 770v-547h88v-61h-88v-162h-66v162h-327v57l327 551h66
zM1207 223v429h-1l-252 -429h253zM1169 1320h74l-768 -1320h-74z" />
    <glyph glyph-name="questiondown" unicode="&#xbf;" horiz-adv-x="907" 
d="M407 -23q-114 0 -197 37t-128 103t-45 153q0 82 37 146t96.5 115.5t127.5 95.5q42 27 54 54.5t12 82.5v221h105v-270q0 -57 -25 -87t-72 -58q-47 -29 -97.5 -70.5t-85 -96.5t-34.5 -123q0 -100 72 -150t188 -50q81 0 139 31.5t92.5 74t43.5 76.5l99 -44q-3 -17 -20 -46.5
t-48 -62.5t-76 -63t-104.5 -49.5t-133.5 -19.5zM416 1119q-47 0 -79.5 33t-32.5 81q0 47 32.5 79.5t79.5 32.5q46 0 79 -32.5t33 -79.5q0 -48 -33 -81t-79 -33z" />
    <glyph glyph-name="Agrave" unicode="&#xc0;" horiz-adv-x="1141" 
d="M509 1320h123l473 -1320h-119l-123 342h-584l-124 -342h-121zM313 447h517l-258 732h-3zM628 1376l-323 204l77 98l296 -238z" />
    <glyph glyph-name="Aacute" unicode="&#xc1;" horiz-adv-x="1141" 
d="M509 1320h123l473 -1320h-119l-123 342h-584l-124 -342h-121zM313 447h517l-258 732h-3zM494 1376l-49 64l296 238l76 -98z" />
    <glyph glyph-name="Acircumflex" unicode="&#xc2;" horiz-adv-x="1141" 
d="M509 1320h123l473 -1320h-119l-123 342h-584l-124 -342h-121zM313 447h517l-258 732h-3zM356 1407l-61 81l274 201l276 -202l-61 -82l-215 157z" />
    <glyph glyph-name="Atilde" unicode="&#xc3;" horiz-adv-x="1141" 
d="M509 1320h123l473 -1320h-119l-123 342h-584l-124 -342h-121zM313 447h517l-258 732h-3zM256 1414q9 39 32.5 80t60 70t84.5 29q61 0 100 -19t73.5 -38.5t80.5 -19.5q38 0 60 26.5t28 50.5h110q-11 -38 -35.5 -79.5t-61.5 -70.5t-85 -29q-61 0 -101.5 19t-73 38t-70.5 19
q-36 0 -60 -26t-33 -50h-109z" />
    <glyph glyph-name="Adieresis" unicode="&#xc4;" horiz-adv-x="1141" 
d="M509 1320h123l473 -1320h-119l-123 342h-584l-124 -342h-121zM313 447h517l-258 732h-3zM762 1415q-36 0 -62 27t-26 61q0 36 26 63t62 27t62.5 -26.5t26.5 -63.5q0 -36 -26.5 -62t-62.5 -26zM378 1415q-36 0 -62 27t-26 61q0 36 26 63t62 27t62.5 -26.5t26.5 -63.5
q0 -36 -26.5 -62t-62.5 -26z" />
    <glyph glyph-name="Aring" unicode="&#xc5;" horiz-adv-x="1141" 
d="M509 1320h123l473 -1320h-119l-123 342h-584l-124 -342h-121zM313 447h517l-258 732h-3zM570 1376q-79 0 -127 44t-48 113q0 68 51 113t124 45q74 0 124.5 -45t50.5 -113q0 -69 -49 -113t-126 -44zM570 1445q37 0 61.5 23.5t24.5 64.5q0 42 -24.5 65t-61.5 23
q-34 0 -60 -23t-26 -65q0 -41 26 -64.5t60 -23.5z" />
    <glyph glyph-name="AE" unicode="&#xc6;" horiz-adv-x="1627" 
d="M757 1320h128l-1 -978h-553l-193 -342h-120zM378 440h433v742l-3 14zM801 1320h751v-105h-641v-501h625v-104h-625v-505h641v-105h-751v1320z" />
    <glyph glyph-name="Ccedilla" unicode="&#xc7;" horiz-adv-x="1252" 
d="M737 86q138 0 234.5 37t136.5 72l49 -97q-43 -40 -153.5 -81t-266.5 -41q-146 0 -269.5 52.5t-215.5 146t-143 217t-51 266.5t50.5 267.5t142.5 218.5t216 147t270 53q156 0 266.5 -41t153.5 -81l-49 -97q-40 35 -136.5 72t-234.5 37q-116 0 -217 -41.5t-178 -117.5
t-120.5 -181.5t-43.5 -232.5q0 -128 43.5 -234t120.5 -182t178 -117.5t217 -41.5zM736 -422q-64 0 -117.5 20t-78.5 38l55 66q19 -15 56.5 -31t79.5 -16q54 0 91 23t37 62q0 40 -27 59t-72 19q-31 0 -57.5 -4.5t-38.5 -9.5l-36 20l76 218l66 -30l-51 -145q44 13 98.5 6
t94 -36.5t39.5 -86.5t-32.5 -95.5t-82 -57.5t-100.5 -19z" />
    <glyph glyph-name="Egrave" unicode="&#xc8;" horiz-adv-x="1042" 
d="M123 1320h752v-105h-641v-501h625v-104h-625v-505h641v-105h-752v1320zM560 1376l-323 204l77 98l296 -238z" />
    <glyph glyph-name="Eacute" unicode="&#xc9;" horiz-adv-x="1042" 
d="M123 1320h752v-105h-641v-501h625v-104h-625v-505h641v-105h-752v1320zM425 1376l-49 64l296 238l76 -98z" />
    <glyph glyph-name="Ecircumflex" unicode="&#xca;" horiz-adv-x="1042" 
d="M123 1320h752v-105h-641v-501h625v-104h-625v-505h641v-105h-752v1320zM288 1407l-61 81l274 201l276 -202l-61 -82l-215 157z" />
    <glyph glyph-name="Edieresis" unicode="&#xcb;" horiz-adv-x="1042" 
d="M123 1320h752v-105h-641v-501h625v-104h-625v-505h641v-105h-752v1320zM693 1415q-36 0 -62 27t-26 61q0 36 26 63t62 27t62.5 -26.5t26.5 -63.5q0 -36 -26.5 -62t-62.5 -26zM309 1415q-36 0 -62 27t-26 61q0 36 26 63t62 27t62.5 -26.5t26.5 -63.5q0 -36 -26.5 -62
t-62.5 -26z" />
    <glyph glyph-name="Igrave" unicode="&#xcc;" horiz-adv-x="433" 
d="M140 1320h113v-1320h-113v1320zM253 1376l-323 204l77 98l296 -238z" />
    <glyph glyph-name="Iacute" unicode="&#xcd;" horiz-adv-x="433" 
d="M140 1320h113v-1320h-113v1320zM118 1376l-49 64l296 238l76 -98z" />
    <glyph glyph-name="Icircumflex" unicode="&#xce;" horiz-adv-x="433" 
d="M140 1320h113v-1320h-113v1320zM-19 1407l-61 81l274 201l276 -202l-61 -82l-215 157z" />
    <glyph glyph-name="Idieresis" unicode="&#xcf;" horiz-adv-x="433" 
d="M140 1320h113v-1320h-113v1320zM386 1415q-36 0 -62 27t-26 61q0 36 26 63t62 27t62.5 -26.5t26.5 -63.5q0 -36 -26.5 -62t-62.5 -26zM2 1415q-36 0 -62 27t-26 61q0 36 26 63t62 27t62.5 -26.5t26.5 -63.5q0 -36 -26.5 -62t-62.5 -26z" />
    <glyph glyph-name="Eth" unicode="&#xd0;" horiz-adv-x="1111" 
d="M115 0v1320h272q211 0 346 -84.5t199.5 -233.5t64.5 -341q0 -193 -64 -342t-199 -234t-347 -85h-272zM-13 607v101h530v-101h-530zM226 106h152q176 0 286.5 71t163 195.5t53.5 286.5t-51 287t-163.5 196.5t-288.5 71.5h-152v-1108z" />
    <glyph glyph-name="Ntilde" unicode="&#xd1;" horiz-adv-x="1315" 
d="M229 1210l6 -1v-1209h-112v1320h165l754 -1209l-5 -1v1210h111v-1320h-166zM371 1515q10 39 33.5 80t60 70t84.5 29q60 0 99.5 -19t74 -38.5t80.5 -19.5q38 0 59.5 26.5t28.5 50.5h109q-11 -38 -35 -80t-61 -70.5t-85 -28.5q-61 0 -101.5 19t-73.5 38t-71 19
q-35 0 -59.5 -26t-32.5 -50h-110z" />
    <glyph glyph-name="Ograve" unicode="&#xd2;" horiz-adv-x="1426" 
d="M162 661q0 -163 68.5 -293.5t188.5 -206.5t274 -76q155 0 274 76t187 206.5t68 293.5t-68 293t-187 205.5t-274 75.5q-154 0 -274 -75.5t-188.5 -205.5t-68.5 -293zM46 661q0 144 49 268.5t136.5 217.5t205.5 145t256 52q139 0 256 -52t204.5 -145t135.5 -217.5
t48 -268.5q0 -145 -47.5 -269.5t-135 -218t-205 -145.5t-256.5 -52q-140 0 -258 52t-205 145.5t-135.5 218t-48.5 269.5zM751 1376l-323 204l77 98l296 -238z" />
    <glyph glyph-name="Oacute" unicode="&#xd3;" horiz-adv-x="1426" 
d="M162 661q0 -163 68.5 -293.5t188.5 -206.5t274 -76q155 0 274 76t187 206.5t68 293.5t-68 293t-187 205.5t-274 75.5q-154 0 -274 -75.5t-188.5 -205.5t-68.5 -293zM46 661q0 144 49 268.5t136.5 217.5t205.5 145t256 52q139 0 256 -52t204.5 -145t135.5 -217.5
t48 -268.5q0 -145 -47.5 -269.5t-135 -218t-205 -145.5t-256.5 -52q-140 0 -258 52t-205 145.5t-135.5 218t-48.5 269.5zM616 1376l-49 64l296 238l76 -98z" />
    <glyph glyph-name="Ocircumflex" unicode="&#xd4;" horiz-adv-x="1426" 
d="M162 661q0 -163 68.5 -293.5t188.5 -206.5t274 -76q155 0 274 76t187 206.5t68 293.5t-68 293t-187 205.5t-274 75.5q-154 0 -274 -75.5t-188.5 -205.5t-68.5 -293zM46 661q0 144 49 268.5t136.5 217.5t205.5 145t256 52q139 0 256 -52t204.5 -145t135.5 -217.5
t48 -268.5q0 -145 -47.5 -269.5t-135 -218t-205 -145.5t-256.5 -52q-140 0 -258 52t-205 145.5t-135.5 218t-48.5 269.5zM479 1407l-61 81l274 201l276 -202l-61 -82l-215 157z" />
    <glyph glyph-name="Otilde" unicode="&#xd5;" horiz-adv-x="1426" 
d="M162 661q0 -163 68.5 -293.5t188.5 -206.5t274 -76q155 0 274 76t187 206.5t68 293.5t-68 293t-187 205.5t-274 75.5q-154 0 -274 -75.5t-188.5 -205.5t-68.5 -293zM46 661q0 144 49 268.5t136.5 217.5t205.5 145t256 52q139 0 256 -52t204.5 -145t135.5 -217.5
t48 -268.5q0 -145 -47.5 -269.5t-135 -218t-205 -145.5t-256.5 -52q-140 0 -258 52t-205 145.5t-135.5 218t-48.5 269.5zM394 1515q10 39 33.5 80t60 70t84.5 29q60 0 99.5 -19t74 -38.5t80.5 -19.5q38 0 59.5 26.5t28.5 50.5h109q-11 -38 -35 -80t-61 -70.5t-85 -28.5
q-61 0 -101.5 19t-73.5 38t-71 19q-35 0 -59.5 -26t-32.5 -50h-110z" />
    <glyph glyph-name="Odieresis" unicode="&#xd6;" horiz-adv-x="1426" 
d="M162 661q0 -163 68.5 -293.5t188.5 -206.5t274 -76q155 0 274 76t187 206.5t68 293.5t-68 293t-187 205.5t-274 75.5q-154 0 -274 -75.5t-188.5 -205.5t-68.5 -293zM46 661q0 144 49 268.5t136.5 217.5t205.5 145t256 52q139 0 256 -52t204.5 -145t135.5 -217.5
t48 -268.5q0 -145 -47.5 -269.5t-135 -218t-205 -145.5t-256.5 -52q-140 0 -258 52t-205 145.5t-135.5 218t-48.5 269.5zM884 1415q-36 0 -62 27t-26 61q0 36 26 63t62 27t62.5 -26.5t26.5 -63.5q0 -36 -26.5 -62t-62.5 -26zM500 1415q-36 0 -62 27t-26 61q0 36 26 63t62 27
t62.5 -26.5t26.5 -63.5q0 -36 -26.5 -62t-62.5 -26z" />
    <glyph glyph-name="multiply" unicode="&#xd7;" horiz-adv-x="993" 
d="M549 664l291 -289l-70 -71l-290 290l-291 -290l-71 71l291 289l-289 289l70 71l290 -290l287 290l72 -71z" />
    <glyph glyph-name="Oslash" unicode="&#xd8;" horiz-adv-x="1396" 
d="M1294 1321l58 -52l-1276 -1300l-57 53zM162 661q0 -163 68.5 -293.5t188.5 -206.5t274 -76q155 0 274 76t187 206.5t68 293.5t-68 293t-187 205.5t-274 75.5q-154 0 -274 -75.5t-188.5 -205.5t-68.5 -293zM46 661q0 144 49 268.5t136.5 217.5t205.5 145t256 52
q139 0 256 -52t204.5 -145t135.5 -217.5t48 -268.5q0 -145 -47.5 -269.5t-135 -218t-205 -145.5t-256.5 -52q-140 0 -258 52t-205 145.5t-135.5 218t-48.5 269.5z" />
    <glyph glyph-name="Ugrave" unicode="&#xd9;" horiz-adv-x="1230" 
d="M977 1320h112v-824q0 -163 -65.5 -279.5t-176.5 -178.5t-249 -62q-137 0 -249 62t-178 178.5t-66 279.5v824h112v-818q0 -127 51 -221t137.5 -146t192.5 -52t191.5 52t136.5 146t51 221v818zM656 1376l-323 204l77 98l296 -238z" />
    <glyph glyph-name="Uacute" unicode="&#xda;" horiz-adv-x="1230" 
d="M977 1320h112v-824q0 -163 -65.5 -279.5t-176.5 -178.5t-249 -62q-137 0 -249 62t-178 178.5t-66 279.5v824h112v-818q0 -127 51 -221t137.5 -146t192.5 -52t191.5 52t136.5 146t51 221v818zM521 1376l-49 64l296 238l76 -98z" />
    <glyph glyph-name="Ucircumflex" unicode="&#xdb;" horiz-adv-x="1230" 
d="M977 1320h112v-824q0 -163 -65.5 -279.5t-176.5 -178.5t-249 -62q-137 0 -249 62t-178 178.5t-66 279.5v824h112v-818q0 -127 51 -221t137.5 -146t192.5 -52t191.5 52t136.5 146t51 221v818zM384 1407l-61 81l274 201l276 -202l-61 -82l-215 157z" />
    <glyph glyph-name="Udieresis" unicode="&#xdc;" horiz-adv-x="1230" 
d="M977 1320h112v-824q0 -163 -65.5 -279.5t-176.5 -178.5t-249 -62q-137 0 -249 62t-178 178.5t-66 279.5v824h112v-818q0 -127 51 -221t137.5 -146t192.5 -52t191.5 52t136.5 146t51 221v818zM789 1415q-36 0 -62 27t-26 61q0 36 26 63t62 27t62.5 -26.5t26.5 -63.5
q0 -36 -26.5 -62t-62.5 -26zM405 1415q-36 0 -62 27t-26 61q0 36 26 63t62 27t62.5 -26.5t26.5 -63.5q0 -36 -26.5 -62t-62.5 -26z" />
    <glyph glyph-name="Yacute" unicode="&#xdd;" horiz-adv-x="1062" 
d="M453 475l-439 845h134l361 -711l359 711h134l-437 -845v-475h-112v475zM432 1376l-49 64l296 238l76 -98z" />
    <glyph glyph-name="Thorn" unicode="&#xde;" horiz-adv-x="991" 
d="M123 1320h111v-245h270q115 0 203.5 -44.5t138.5 -134.5t50 -227q0 -136 -50 -230.5t-138.5 -144t-203.5 -49.5h-270v-245h-111v1320zM234 343h253q135 0 214 85t79 243t-79 232t-214 74h-253v-634z" />
    <glyph glyph-name="germandbls" unicode="&#xdf;" horiz-adv-x="968" 
d="M398 80q120 0 197 41t114 109t37 148q0 144 -92.5 220.5t-255.5 76.5v94q141 0 222.5 82.5t81.5 211.5q0 89 -31.5 141t-83 74t-114.5 22q-88 0 -147.5 -46.5t-88.5 -120t-29 -155.5v-978h-109v980q0 127 48.5 221.5t133 146.5t191.5 52q151 0 244.5 -86.5t93.5 -254.5
q0 -90 -40 -160.5t-97 -114.5t-107 -56q66 -10 133.5 -55t114 -120.5t46.5 -176.5q0 -126 -56 -215.5t-160 -137t-246 -47.5v104z" />
    <glyph glyph-name="agrave" unicode="&#xe0;" horiz-adv-x="1033" 
d="M785 0v172q-7 -27 -46.5 -74t-109 -84.5t-164.5 -37.5q-111 0 -204.5 51.5t-150 149t-56.5 233.5t56.5 233.5t150 149.5t204.5 52q95 0 164 -35.5t109.5 -81.5t45.5 -77v170h112v-821h-111zM167 410q0 -104 45 -179t116.5 -115t150.5 -40q87 0 155 41t107.5 116t39.5 177
t-39.5 177t-107.5 116.5t-155 41.5q-79 0 -150.5 -40.5t-116.5 -115.5t-45 -179zM640 989l-323 205l77 97l296 -238z" />
    <glyph glyph-name="aacute" unicode="&#xe1;" horiz-adv-x="1033" 
d="M785 0v172q-7 -27 -46.5 -74t-109 -84.5t-164.5 -37.5q-111 0 -204.5 51.5t-150 149t-56.5 233.5t56.5 233.5t150 149.5t204.5 52q95 0 164 -35.5t109.5 -81.5t45.5 -77v170h112v-821h-111zM167 410q0 -104 45 -179t116.5 -115t150.5 -40q87 0 155 41t107.5 116t39.5 177
t-39.5 177t-107.5 116.5t-155 41.5q-79 0 -150.5 -40.5t-116.5 -115.5t-45 -179zM366 944l-49 64l294 237l79 -97z" />
    <glyph glyph-name="acircumflex" unicode="&#xe2;" horiz-adv-x="1033" 
d="M785 0v172q-7 -27 -46.5 -74t-109 -84.5t-164.5 -37.5q-111 0 -204.5 51.5t-150 149t-56.5 233.5t56.5 233.5t150 149.5t204.5 52q95 0 164 -35.5t109.5 -81.5t45.5 -77v170h112v-821h-111zM167 410q0 -104 45 -179t116.5 -115t150.5 -40q87 0 155 41t107.5 116t39.5 177
t-39.5 177t-107.5 116.5t-155 41.5q-79 0 -150.5 -40.5t-116.5 -115.5t-45 -179zM702 926l-215 158l-213 -156l-62 82l275 201l275 -202z" />
    <glyph glyph-name="atilde" unicode="&#xe3;" horiz-adv-x="1033" 
d="M785 0v172q-7 -27 -46.5 -74t-109 -84.5t-164.5 -37.5q-111 0 -204.5 51.5t-150 149t-56.5 233.5t56.5 233.5t150 149.5t204.5 52q95 0 164 -35.5t109.5 -81.5t45.5 -77v170h112v-821h-111zM167 410q0 -104 45 -179t116.5 -115t150.5 -40q87 0 155 41t107.5 116t39.5 177
t-39.5 177t-107.5 116.5t-155 41.5q-79 0 -150.5 -40.5t-116.5 -115.5t-45 -179zM188 1016q10 39 33.5 80t60 70t84.5 29q60 0 99.5 -19t74 -38.5t80.5 -19.5q38 0 59.5 26.5t28.5 50.5h109q-11 -38 -35 -80t-61 -70.5t-85 -28.5q-61 0 -101.5 19t-73.5 38t-71 19
q-35 0 -59.5 -26t-32.5 -50h-110z" />
    <glyph glyph-name="adieresis" unicode="&#xe4;" horiz-adv-x="1033" 
d="M785 0v172q-7 -27 -46.5 -74t-109 -84.5t-164.5 -37.5q-111 0 -204.5 51.5t-150 149t-56.5 233.5t56.5 233.5t150 149.5t204.5 52q95 0 164 -35.5t109.5 -81.5t45.5 -77v170h112v-821h-111zM167 410q0 -104 45 -179t116.5 -115t150.5 -40q87 0 155 41t107.5 116t39.5 177
t-39.5 177t-107.5 116.5t-155 41.5q-79 0 -150.5 -40.5t-116.5 -115.5t-45 -179zM693 1005q-36 0 -62 26.5t-26 61.5q0 36 26 62.5t62 26.5t62.5 -26.5t26.5 -62.5t-26.5 -62t-62.5 -26zM309 1005q-36 0 -62 26.5t-26 61.5q0 36 26 62.5t62 26.5t62.5 -26.5t26.5 -62.5
t-26.5 -62t-62.5 -26z" />
    <glyph glyph-name="aring" unicode="&#xe5;" horiz-adv-x="1033" 
d="M785 0v172q-7 -27 -46.5 -74t-109 -84.5t-164.5 -37.5q-111 0 -204.5 51.5t-150 149t-56.5 233.5t56.5 233.5t150 149.5t204.5 52q95 0 164 -35.5t109.5 -81.5t45.5 -77v170h112v-821h-111zM167 410q0 -104 45 -179t116.5 -115t150.5 -40q87 0 155 41t107.5 116t39.5 177
t-39.5 177t-107.5 116.5t-155 41.5q-79 0 -150.5 -40.5t-116.5 -115.5t-45 -179zM487 928q-82 0 -132 45.5t-50 116.5q0 47 24.5 84t65.5 58t92 21t91.5 -21t64.5 -58t24 -84q0 -71 -50.5 -116.5t-129.5 -45.5zM487 1000q37 0 62 24t25 66q0 43 -25 66.5t-62 23.5
q-35 0 -62 -23.5t-27 -66.5q0 -42 27 -66t62 -24z" />
    <glyph glyph-name="ae" unicode="&#xe6;" horiz-adv-x="1446" 
d="M369 -24q-83 0 -153.5 29.5t-113 91t-42.5 154.5q0 80 44 139.5t116.5 93t159.5 33.5q69 0 120.5 -16.5t83 -36.5t41.5 -31v45q0 82 -23.5 135t-60.5 83t-77.5 42t-75.5 12q-80 0 -142.5 -32t-88.5 -63l-66 89q33 33 112 67t189 34q88 0 149.5 -32t98.5 -79.5t54 -94.5
q14 45 56.5 93t106 80.5t137.5 32.5q109 0 189.5 -48.5t125 -145t44.5 -241.5q0 -9 -1 -11.5t-1 -10.5h-612q0 -103 30 -173.5t88.5 -106t144.5 -35.5q70 0 122.5 29.5t86.5 66t46 56.5l79 -64q-25 -35 -72 -78.5t-115 -75t-155 -31.5q-72 0 -137.5 24.5t-113 65t-68.5 87.5
q-12 -30 -53 -72t-105.5 -73.5t-147.5 -31.5zM374 63q69 -1 122.5 28.5t84.5 75t31 92.5q0 81 -63 128.5t-155 47.5q-54 0 -107 -21.5t-88 -62.5t-35 -101q0 -81 60 -133.5t150 -53.5zM747 468h492q-2 29 -10.5 77t-33 96.5t-71 82t-123.5 33.5q-115 0 -179.5 -79
t-74.5 -210z" />
    <glyph glyph-name="ccedilla" unicode="&#xe7;" horiz-adv-x="812" 
d="M475 76q88 0 141 27.5t65 38.5l60 -88q-8 -6 -45 -25.5t-95.5 -36t-132.5 -16.5q-99 0 -191 49t-151.5 146t-59.5 240q0 144 59.5 240.5t151.5 145t191 48.5q74 0 130 -18t92 -40t45 -32l-59 -87q-9 8 -33.5 26.5t-66.5 34.5t-101 16q-71 0 -140 -39t-113.5 -113.5
t-44.5 -181.5t44.5 -182t113.5 -114t140 -39zM397 -422q-64 0 -117.5 20t-78.5 38l55 66q19 -15 56.5 -31t79.5 -16q54 0 91 23t37 62q0 40 -27 59t-72 19q-31 0 -57.5 -4.5t-38.5 -9.5l-36 20l76 218l66 -30l-51 -145q44 13 98.5 6t94 -36.5t39.5 -86.5t-32.5 -95.5
t-82 -57.5t-100.5 -19z" />
    <glyph glyph-name="egrave" unicode="&#xe8;" horiz-adv-x="935" 
d="M166 397q1 -86 34.5 -161t101.5 -121t171 -46q84 0 140.5 27.5t90 64t47.5 65.5l71 -70q-37 -57 -85.5 -97.5t-114 -61.5t-155.5 -21q-131 0 -223.5 58.5t-141 159.5t-48.5 227q0 120 48 216t138.5 152t218.5 56q116 0 201.5 -51t133 -141.5t47.5 -210.5q0 -9 -0.5 -23
t-1.5 -22h-673zM727 492q-1 54 -26.5 114.5t-83 103t-157.5 42.5q-104 0 -165.5 -41.5t-89.5 -101.5t-34 -117h556zM610 989l-323 205l77 97l296 -238z" />
    <glyph glyph-name="eacute" unicode="&#xe9;" horiz-adv-x="935" 
d="M166 397q1 -86 34.5 -161t101.5 -121t171 -46q84 0 140.5 27.5t90 64t47.5 65.5l71 -70q-37 -57 -85.5 -97.5t-114 -61.5t-155.5 -21q-131 0 -223.5 58.5t-141 159.5t-48.5 227q0 120 48 216t138.5 152t218.5 56q116 0 201.5 -51t133 -141.5t47.5 -210.5q0 -9 -0.5 -23
t-1.5 -22h-673zM727 492q-1 54 -26.5 114.5t-83 103t-157.5 42.5q-104 0 -165.5 -41.5t-89.5 -101.5t-34 -117h556zM335 944l-49 64l294 237l79 -97z" />
    <glyph glyph-name="ecircumflex" unicode="&#xea;" horiz-adv-x="935" 
d="M166 397q1 -86 34.5 -161t101.5 -121t171 -46q84 0 140.5 27.5t90 64t47.5 65.5l71 -70q-37 -57 -85.5 -97.5t-114 -61.5t-155.5 -21q-131 0 -223.5 58.5t-141 159.5t-48.5 227q0 120 48 216t138.5 152t218.5 56q116 0 201.5 -51t133 -141.5t47.5 -210.5q0 -9 -0.5 -23
t-1.5 -22h-673zM727 492q-1 54 -26.5 114.5t-83 103t-157.5 42.5q-104 0 -165.5 -41.5t-89.5 -101.5t-34 -117h556zM671 926l-215 158l-213 -156l-62 82l275 201l275 -202z" />
    <glyph glyph-name="edieresis" unicode="&#xeb;" horiz-adv-x="935" 
d="M166 397q1 -86 34.5 -161t101.5 -121t171 -46q84 0 140.5 27.5t90 64t47.5 65.5l71 -70q-37 -57 -85.5 -97.5t-114 -61.5t-155.5 -21q-131 0 -223.5 58.5t-141 159.5t-48.5 227q0 120 48 216t138.5 152t218.5 56q116 0 201.5 -51t133 -141.5t47.5 -210.5q0 -9 -0.5 -23
t-1.5 -22h-673zM727 492q-1 54 -26.5 114.5t-83 103t-157.5 42.5q-104 0 -165.5 -41.5t-89.5 -101.5t-34 -117h556zM662 1005q-36 0 -62 26.5t-26 61.5q0 36 26 62.5t62 26.5t62.5 -26.5t26.5 -62.5t-26.5 -62t-62.5 -26zM278 1005q-36 0 -62 26.5t-26 61.5q0 36 26 62.5
t62 26.5t62.5 -26.5t26.5 -62.5t-26.5 -62t-62.5 -26z" />
    <glyph glyph-name="igrave" unicode="&#xec;" horiz-adv-x="359" 
d="M106 0v821h110v-821h-110zM315 989l-323 205l77 97l296 -238z" />
    <glyph glyph-name="iacute" unicode="&#xed;" horiz-adv-x="359" 
d="M106 0v821h110v-821h-110zM40 944l-49 64l294 237l79 -97z" />
    <glyph glyph-name="icircumflex" unicode="&#xee;" horiz-adv-x="359" 
d="M106 0v821h110v-821h-110zM377 926l-215 158l-213 -156l-62 82l275 201l275 -202z" />
    <glyph glyph-name="idieresis" unicode="&#xef;" horiz-adv-x="359" 
d="M106 0v821h110v-821h-110zM367 1005q-36 0 -62 26.5t-26 61.5q0 36 26 62.5t62 26.5t62.5 -26.5t26.5 -62.5t-26.5 -62t-62.5 -26zM-17 1005q-36 0 -62 26.5t-26 61.5q0 36 26 62.5t62 26.5t62.5 -26.5t26.5 -62.5t-26.5 -62t-62.5 -26z" />
    <glyph glyph-name="eth" unicode="&#xf0;" horiz-adv-x="1080" 
d="M87 410q0 103 35 183.5t95 136.5t136 85.5t160 29.5q96 0 159 -22t98.5 -48.5t47.5 -39.5q-20 64 -69.5 132t-116.5 128.5t-138 99.5l-156 -166l-72 70l133 135q-25 13 -64 27.5t-77 26.5t-59 16l35 96q38 -9 84.5 -25t89.5 -32.5t68 -28.5l132 142l82 -71l-127 -117
q114 -65 207.5 -161t149.5 -235.5t56 -339.5q0 -130 -52 -233.5t-150.5 -163t-239.5 -59.5q-140 0 -240.5 55.5t-153.5 153.5t-53 225zM200 410q0 -95 40.5 -171t115 -120t176.5 -44q112 0 185.5 44.5t109.5 120.5t36 170q0 169 -85 251.5t-246 82.5q-149 0 -240.5 -89.5
t-91.5 -244.5z" />
    <glyph glyph-name="ntilde" unicode="&#xf1;" horiz-adv-x="984" 
d="M525 845q78 0 152 -33.5t122 -106t48 -187.5v-518h-116v491q0 137 -64 197.5t-164 60.5q-66 0 -127.5 -38t-101 -104t-39.5 -148v-459h-114v821h114v-158q7 35 47.5 77.5t104 73.5t138.5 31zM160 1016q10 39 33.5 80t60 70t84.5 29q60 0 99.5 -19t74 -38.5t80.5 -19.5
q38 0 59.5 26.5t28.5 50.5h109q-11 -38 -35 -80t-61 -70.5t-85 -28.5q-61 0 -101.5 19t-73.5 38t-71 19q-35 0 -59.5 -26t-32.5 -50h-110z" />
    <glyph glyph-name="ograve" unicode="&#xf2;" horiz-adv-x="989" 
d="M477 -24q-123 0 -218.5 57.5t-150 155.5t-54.5 219t54.5 220.5t150 158t218.5 58.5t217.5 -58.5t148.5 -158t54 -220.5t-54 -219t-148.5 -155.5t-217.5 -57.5zM477 79q93 0 162.5 43t108 118t38.5 168q0 94 -38.5 169.5t-108 120t-162.5 44.5q-94 0 -164 -44.5t-109 -120
t-39 -169.5q0 -93 39 -168t109 -118t164 -43zM629 989l-323 205l77 97l296 -238z" />
    <glyph glyph-name="oacute" unicode="&#xf3;" horiz-adv-x="989" 
d="M477 -24q-123 0 -218.5 57.5t-150 155.5t-54.5 219t54.5 220.5t150 158t218.5 58.5t217.5 -58.5t148.5 -158t54 -220.5t-54 -219t-148.5 -155.5t-217.5 -57.5zM477 79q93 0 162.5 43t108 118t38.5 168q0 94 -38.5 169.5t-108 120t-162.5 44.5q-94 0 -164 -44.5t-109 -120
t-39 -169.5q0 -93 39 -168t109 -118t164 -43zM354 944l-49 64l294 237l79 -97z" />
    <glyph glyph-name="ocircumflex" unicode="&#xf4;" horiz-adv-x="989" 
d="M477 -24q-123 0 -218.5 57.5t-150 155.5t-54.5 219t54.5 220.5t150 158t218.5 58.5t217.5 -58.5t148.5 -158t54 -220.5t-54 -219t-148.5 -155.5t-217.5 -57.5zM477 79q93 0 162.5 43t108 118t38.5 168q0 94 -38.5 169.5t-108 120t-162.5 44.5q-94 0 -164 -44.5t-109 -120
t-39 -169.5q0 -93 39 -168t109 -118t164 -43zM691 926l-215 158l-213 -156l-62 82l275 201l275 -202z" />
    <glyph glyph-name="otilde" unicode="&#xf5;" horiz-adv-x="985" 
d="M477 -24q-123 0 -218.5 57.5t-150 155.5t-54.5 219t54.5 220.5t150 158t218.5 58.5t217.5 -58.5t148.5 -158t54 -220.5t-54 -219t-148.5 -155.5t-217.5 -57.5zM477 79q93 0 162.5 43t108 118t38.5 168q0 94 -38.5 169.5t-108 120t-162.5 44.5q-94 0 -164 -44.5t-109 -120
t-39 -169.5q0 -93 39 -168t109 -118t164 -43zM156 1033q10 39 33.5 80t60 70t84.5 29q60 0 99.5 -19t74 -38.5t80.5 -19.5q38 0 59.5 26.5t28.5 50.5h109q-11 -38 -35 -80t-61 -70.5t-85 -28.5q-61 0 -101.5 19t-73.5 38t-71 19q-35 0 -59.5 -26t-32.5 -50h-110z" />
    <glyph glyph-name="odieresis" unicode="&#xf6;" horiz-adv-x="989" 
d="M477 -24q-123 0 -218.5 57.5t-150 155.5t-54.5 219t54.5 220.5t150 158t218.5 58.5t217.5 -58.5t148.5 -158t54 -220.5t-54 -219t-148.5 -155.5t-217.5 -57.5zM477 79q93 0 162.5 43t108 118t38.5 168q0 94 -38.5 169.5t-108 120t-162.5 44.5q-94 0 -164 -44.5t-109 -120
t-39 -169.5q0 -93 39 -168t109 -118t164 -43zM681 1005q-36 0 -62 26.5t-26 61.5q0 36 26 62.5t62 26.5t62.5 -26.5t26.5 -62.5t-26.5 -62t-62.5 -26zM297 1005q-36 0 -62 26.5t-26 61.5q0 36 26 62.5t62 26.5t62.5 -26.5t26.5 -62.5t-26.5 -62t-62.5 -26z" />
    <glyph glyph-name="divide" unicode="&#xf7;" horiz-adv-x="1012" 
d="M485 1061q37 0 61.5 -25.5t24.5 -60.5q0 -33 -24.5 -57.5t-61.5 -24.5q-33 0 -57.5 24.5t-24.5 57.5q0 37 24.5 61.5t57.5 24.5zM117 610v100h741v-100h-741zM485 434q37 0 61.5 -24.5t24.5 -61.5q0 -33 -25.5 -57t-60.5 -24q-33 0 -57.5 24t-24.5 57q0 37 24.5 61.5
t57.5 24.5z" />
    <glyph glyph-name="oslash" unicode="&#xf8;" horiz-adv-x="985" 
d="M860 853l52 -48l-819 -831l-52 48zM477 -24q-123 0 -218.5 57.5t-150 155.5t-54.5 219t54.5 220.5t150 158t218.5 58.5t217.5 -58.5t148.5 -158t54 -220.5t-54 -219t-148.5 -155.5t-217.5 -57.5zM477 79q93 0 162.5 43t108 118t38.5 168q0 94 -38.5 169.5t-108 120
t-162.5 44.5q-94 0 -164 -44.5t-109 -120t-39 -169.5q0 -93 39 -168t109 -118t164 -43z" />
    <glyph glyph-name="ugrave" unicode="&#xf9;" horiz-adv-x="990" 
d="M221 392q0 -144 63.5 -228.5t191.5 -84.5q129 0 192 84.5t63 228.5v429h114v-449q0 -115 -43 -204.5t-125 -140.5t-201 -51q-118 0 -200 51t-125 140.5t-43 204.5v449h113v-429zM630 989l-323 205l77 97l296 -238z" />
    <glyph glyph-name="uacute" unicode="&#xfa;" horiz-adv-x="990" 
d="M221 392q0 -144 63.5 -228.5t191.5 -84.5q129 0 192 84.5t63 228.5v429h114v-449q0 -115 -43 -204.5t-125 -140.5t-201 -51q-118 0 -200 51t-125 140.5t-43 204.5v449h113v-429zM355 944l-49 64l294 237l79 -97z" />
    <glyph glyph-name="ucircumflex" unicode="&#xfb;" horiz-adv-x="990" 
d="M221 392q0 -144 63.5 -228.5t191.5 -84.5q129 0 192 84.5t63 228.5v429h114v-449q0 -115 -43 -204.5t-125 -140.5t-201 -51q-118 0 -200 51t-125 140.5t-43 204.5v449h113v-429zM691 926l-215 158l-213 -156l-62 82l275 201l275 -202z" />
    <glyph glyph-name="udieresis" unicode="&#xfc;" horiz-adv-x="990" 
d="M221 392q0 -144 63.5 -228.5t191.5 -84.5q129 0 192 84.5t63 228.5v429h114v-449q0 -115 -43 -204.5t-125 -140.5t-201 -51q-118 0 -200 51t-125 140.5t-43 204.5v449h113v-429zM682 1005q-36 0 -62 26.5t-26 61.5q0 36 26 62.5t62 26.5t62.5 -26.5t26.5 -62.5t-26.5 -62
t-62.5 -26zM298 1005q-36 0 -62 26.5t-26 61.5q0 36 26 62.5t62 26.5t62.5 -26.5t26.5 -62.5t-26.5 -62t-62.5 -26z" />
    <glyph glyph-name="yacute" unicode="&#xfd;" horiz-adv-x="875" 
d="M422 110l302 711h118l-550 -1237h-118l186 416l-337 821h119zM298 944l-49 64l294 237l79 -97z" />
    <glyph glyph-name="thorn" unicode="&#xfe;" horiz-adv-x="1016" 
d="M112 0h113v-416h-113v416zM112 0v1376h116v-725q5 33 47 78.5t115 80.5t169 35q112 0 201.5 -52t142.5 -149.5t53 -233.5t-53 -233.5t-142.5 -149t-201.5 -51.5q-94 0 -167 36t-117 82t-50 78v-172h-113zM841 410q0 104 -41.5 179t-109 115.5t-146.5 40.5
q-86 0 -158 -41.5t-115 -116.5t-43 -177t43 -177t115 -116t158 -41q79 0 146.5 40t109 115t41.5 179z" />
    <glyph glyph-name="ydieresis" unicode="&#xff;" horiz-adv-x="875" 
d="M422 110l302 711h118l-550 -1237h-118l186 416l-337 821h119zM626 1005q-36 0 -62 26.5t-26 61.5q0 36 26 62.5t62 26.5t62.5 -26.5t26.5 -62.5t-26.5 -62t-62.5 -26zM242 1005q-36 0 -62 26.5t-26 61.5q0 36 26 62.5t62 26.5t62.5 -26.5t26.5 -62.5t-26.5 -62t-62.5 -26
z" />
    <glyph glyph-name="Amacron" unicode="&#x100;" horiz-adv-x="1141" 
d="M509 1320h123l473 -1320h-119l-123 342h-584l-124 -342h-121zM313 447h517l-258 732h-3zM292 1462v90h557v-90h-557z" />
    <glyph glyph-name="amacron" unicode="&#x101;" horiz-adv-x="1060" 
d="M785 0v172q-7 -27 -46.5 -74t-109 -84.5t-164.5 -37.5q-111 0 -204.5 51.5t-150 149t-56.5 233.5t56.5 233.5t150 149.5t204.5 52q95 0 164 -35.5t109.5 -81.5t45.5 -77v170h112v-821h-111zM167 410q0 -104 45 -179t116.5 -115t150.5 -40q87 0 155 41t107.5 116t39.5 177
t-39.5 177t-107.5 116.5t-155 41.5q-79 0 -150.5 -40.5t-116.5 -115.5t-45 -179zM231 1065v90h558v-90h-558z" />
    <glyph glyph-name="Abreve" unicode="&#x102;" horiz-adv-x="1141" 
d="M509 1320h123l473 -1320h-119l-123 342h-584l-124 -342h-121zM313 447h517l-258 732h-3zM571 1398q-77 0 -131 30t-85 75t-36 90l102 26q6 -28 23.5 -59t49.5 -52t77 -21q44 0 75.5 21t49.5 52t22 59l104 -26q-5 -43 -35.5 -88t-85 -76t-130.5 -31z" />
    <glyph glyph-name="abreve" unicode="&#x103;" horiz-adv-x="1060" 
d="M785 0v172q-7 -27 -46.5 -74t-109 -84.5t-164.5 -37.5q-111 0 -204.5 51.5t-150 149t-56.5 233.5t56.5 233.5t150 149.5t204.5 52q95 0 164 -35.5t109.5 -81.5t45.5 -77v170h112v-821h-111zM167 410q0 -104 45 -179t116.5 -115t150.5 -40q87 0 155 41t107.5 116t39.5 177
t-39.5 177t-107.5 116.5t-155 41.5q-79 0 -150.5 -40.5t-116.5 -115.5t-45 -179zM487 971q-78 0 -134.5 31t-88.5 77.5t-38 93.5l108 27q6 -29 24 -60.5t50.5 -53.5t78.5 -22t78 22t50.5 53.5t22.5 60.5l109 -27q-5 -45 -36.5 -92t-88 -78.5t-135.5 -31.5z" />
    <glyph glyph-name="Aogonek" unicode="&#x104;" horiz-adv-x="1155" 
d="M509 1320h123l473 -1320h-119l-123 342h-584l-124 -342h-121zM313 447h517l-258 732h-3zM1004 -424q-42 0 -87.5 14.5t-76.5 52.5t-31 107q0 51 29 106t71.5 103t81.5 81l53 -40q-30 -28 -63.5 -68.5t-57 -85.5t-23.5 -86q0 -61 37 -83t87 -22q44 0 79 23t53 48l67 -51
q-23 -38 -86 -68.5t-133 -30.5z" />
    <glyph glyph-name="aogonek" unicode="&#x105;" horiz-adv-x="1060" 
d="M785 0v172q-7 -27 -46.5 -74t-109 -84.5t-164.5 -37.5q-111 0 -204.5 51.5t-150 149t-56.5 233.5t56.5 233.5t150 149.5t204.5 52q95 0 164 -35.5t109.5 -81.5t45.5 -77v170h112v-821h-111zM167 410q0 -104 45 -179t116.5 -115t150.5 -40q87 0 155 41t107.5 116t39.5 177
t-39.5 177t-107.5 116.5t-155 41.5q-79 0 -150.5 -40.5t-116.5 -115.5t-45 -179zM836 -424q-42 0 -87.5 14.5t-76.5 52.5t-31 107q0 51 29 106t71.5 103t81.5 81l53 -40q-30 -28 -63.5 -68.5t-57 -85.5t-23.5 -86q0 -61 37 -83t87 -22q44 0 79 23t53 48l67 -51
q-23 -38 -86 -68.5t-133 -30.5z" />
    <glyph glyph-name="Cacute" unicode="&#x106;" horiz-adv-x="1252" 
d="M737 86q138 0 234.5 37t136.5 72l49 -97q-43 -40 -153.5 -81t-266.5 -41q-146 0 -269.5 52.5t-215.5 146t-143 217t-51 266.5t50.5 267.5t142.5 218.5t216 147t270 53q156 0 266.5 -41t153.5 -81l-49 -97q-40 35 -136.5 72t-234.5 37q-116 0 -217 -41.5t-178 -117.5
t-120.5 -181.5t-43.5 -232.5q0 -128 43.5 -234t120.5 -182t178 -117.5t217 -41.5zM646 1376l-49 64l296 238l76 -98z" />
    <glyph glyph-name="cacute" unicode="&#x107;" horiz-adv-x="812" 
d="M475 76q88 0 141 27.5t65 38.5l60 -88q-8 -6 -45 -25.5t-95.5 -36t-132.5 -16.5q-99 0 -191 49t-151.5 146t-59.5 240q0 144 59.5 240.5t151.5 145t191 48.5q74 0 130 -18t92 -40t45 -32l-59 -87q-9 8 -33.5 26.5t-66.5 34.5t-101 16q-71 0 -140 -39t-113.5 -113.5
t-44.5 -181.5t44.5 -182t113.5 -114t140 -39zM384 989l-49 64l294 238l79 -97z" />
    <glyph glyph-name="Ccircumflex" unicode="&#x108;" horiz-adv-x="1252" 
d="M737 86q138 0 234.5 37t136.5 72l49 -97q-43 -40 -153.5 -81t-266.5 -41q-146 0 -269.5 52.5t-215.5 146t-143 217t-51 266.5t50.5 267.5t142.5 218.5t216 147t270 53q156 0 266.5 -41t153.5 -81l-49 -97q-40 35 -136.5 72t-234.5 37q-116 0 -217 -41.5t-178 -117.5
t-120.5 -181.5t-43.5 -232.5q0 -128 43.5 -234t120.5 -182t178 -117.5t217 -41.5zM508 1407l-61 81l274 201l276 -202l-61 -82l-215 157z" />
    <glyph glyph-name="ccircumflex" unicode="&#x109;" horiz-adv-x="819" 
d="M475 76q88 0 141 27.5t65 38.5l60 -88q-8 -6 -45 -25.5t-95.5 -36t-132.5 -16.5q-99 0 -191 49t-151.5 146t-59.5 240q0 144 59.5 240.5t151.5 145t191 48.5q74 0 130 -18t92 -40t45 -32l-59 -87q-9 8 -33.5 26.5t-66.5 34.5t-101 16q-71 0 -140 -39t-113.5 -113.5
t-44.5 -181.5t44.5 -182t113.5 -114t140 -39zM690 926l-215 158l-213 -156l-62 82l275 201l275 -202z" />
    <glyph glyph-name="Cdotaccent" unicode="&#x10a;" horiz-adv-x="1252" 
d="M737 86q138 0 234.5 37t136.5 72l49 -97q-43 -40 -153.5 -81t-266.5 -41q-146 0 -269.5 52.5t-215.5 146t-143 217t-51 266.5t50.5 267.5t142.5 218.5t216 147t270 53q156 0 266.5 -41t153.5 -81l-49 -97q-40 35 -136.5 72t-234.5 37q-116 0 -217 -41.5t-178 -117.5
t-120.5 -181.5t-43.5 -232.5q0 -128 43.5 -234t120.5 -182t178 -117.5t217 -41.5zM722 1444q-37 0 -63 27t-26 62t26 62t63 27q35 0 62 -26.5t27 -62.5q0 -37 -27 -63t-62 -26z" />
    <glyph glyph-name="cdotaccent" unicode="&#x10b;" horiz-adv-x="812" 
d="M475 76q88 0 141 27.5t65 38.5l60 -88q-8 -6 -45 -25.5t-95.5 -36t-132.5 -16.5q-99 0 -191 49t-151.5 146t-59.5 240q0 144 59.5 240.5t151.5 145t191 48.5q74 0 130 -18t92 -40t45 -32l-59 -87q-9 8 -33.5 26.5t-66.5 34.5t-101 16q-71 0 -140 -39t-113.5 -113.5
t-44.5 -181.5t44.5 -182t113.5 -114t140 -39zM490 1030q-37 0 -63 26.5t-26 61.5q0 36 26 62.5t63 26.5q35 0 62 -26.5t27 -62.5t-27 -62t-62 -26z" />
    <glyph glyph-name="Ccaron" unicode="&#x10c;" horiz-adv-x="1252" 
d="M737 86q138 0 234.5 37t136.5 72l49 -97q-43 -40 -153.5 -81t-266.5 -41q-146 0 -269.5 52.5t-215.5 146t-143 217t-51 266.5t50.5 267.5t142.5 218.5t216 147t270 53q156 0 266.5 -41t153.5 -81l-49 -97q-40 35 -136.5 72t-234.5 37q-116 0 -217 -41.5t-178 -117.5
t-120.5 -181.5t-43.5 -232.5q0 -128 43.5 -234t120.5 -182t178 -117.5t217 -41.5zM723 1420l-241 175l54 72l187 -135l187 136l52 -72z" />
    <glyph glyph-name="ccaron" unicode="&#x10d;" horiz-adv-x="812" 
d="M475 76q88 0 141 27.5t65 38.5l60 -88q-8 -6 -45 -25.5t-95.5 -36t-132.5 -16.5q-99 0 -191 49t-151.5 146t-59.5 240q0 144 59.5 240.5t151.5 145t191 48.5q74 0 130 -18t92 -40t45 -32l-59 -87q-9 8 -33.5 26.5t-66.5 34.5t-101 16q-71 0 -140 -39t-113.5 -113.5
t-44.5 -181.5t44.5 -182t113.5 -114t140 -39zM491 971l-275 201l62 82l213 -155l215 156l60 -82z" />
    <glyph glyph-name="Dcaron" unicode="&#x10e;" horiz-adv-x="1111" 
d="M115 1320h272q211 0 346 -84.5t199.5 -233.5t64.5 -341q0 -193 -64 -342t-199 -234t-347 -85h-272v1320zM226 1214v-1108h152q176 0 286.5 71t163 195.5t53.5 286.5t-51 287t-163.5 196.5t-288.5 71.5h-152zM529 1420l-241 175l54 72l187 -135l187 136l52 -72z" />
    <glyph glyph-name="dcaron" unicode="&#x10f;" horiz-adv-x="1083" 
d="M1101 1106l-39 37q29 13 61 41t40 63q-14 -8 -32 -8q-31 0 -52.5 23t-21.5 53q0 37 23.5 60t59.5 23t62 -26t26 -66q0 -44 -18 -83t-47 -69t-62 -48zM482 -24q-111 0 -201 51.5t-143 149t-53 233.5t53 233.5t143 149.5t201 52q95 0 168 -35t116 -80.5t47 -78.5v725h116
v-1376h-113v172q-7 -32 -50.5 -78t-116.5 -82t-167 -36zM496 76q87 0 159 41t115 116t43 177t-43 177t-115 116.5t-159 41.5q-78 0 -145.5 -40.5t-109.5 -115.5t-42 -179t42 -179t109.5 -115t145.5 -40z" />
    <glyph glyph-name="Dcroat" unicode="&#x110;" horiz-adv-x="1111" 
d="M115 0v1320h272q211 0 346 -84.5t199.5 -233.5t64.5 -341q0 -193 -64 -342t-199 -234t-347 -85h-272zM-13 607v101h530v-101h-530zM226 106h152q176 0 286.5 71t163 195.5t53.5 286.5t-51 287t-163.5 196.5t-288.5 71.5h-152v-1108z" />
    <glyph glyph-name="dcroat" unicode="&#x111;" horiz-adv-x="1016" 
d="M567 1037v87h452v-87h-452zM482 -24q-111 0 -201 51.5t-143 149t-53 233.5t53 233.5t143 149.5t201 52q95 0 168 -35t116 -80.5t47 -78.5v725h116v-1376h-113v172q-7 -32 -50.5 -78t-116.5 -82t-167 -36zM496 76q87 0 159 41t115 116t43 177t-43 177t-115 116.5
t-159 41.5q-78 0 -145.5 -40.5t-109.5 -115.5t-42 -179t42 -179t109.5 -115t145.5 -40z" />
    <glyph glyph-name="Emacron" unicode="&#x112;" horiz-adv-x="1042" 
d="M123 1320h752v-105h-641v-501h625v-104h-625v-505h641v-105h-752v1320zM223 1462v90h557v-90h-557z" />
    <glyph glyph-name="emacron" unicode="&#x113;" horiz-adv-x="954" 
d="M166 397q1 -86 34.5 -161t101.5 -121t171 -46q84 0 140.5 27.5t90 64t47.5 65.5l71 -70q-37 -57 -85.5 -97.5t-114 -61.5t-155.5 -21q-131 0 -223.5 58.5t-141 159.5t-48.5 227q0 120 48 216t138.5 152t218.5 56q116 0 201.5 -51t133 -141.5t47.5 -210.5q0 -9 -0.5 -23
t-1.5 -22h-673zM727 492q-1 54 -26.5 114.5t-83 103t-157.5 42.5q-104 0 -165.5 -41.5t-89.5 -101.5t-34 -117h556zM180 1065v90h558v-90h-558z" />
    <glyph glyph-name="Ebreve" unicode="&#x114;" horiz-adv-x="1042" 
d="M123 1320h752v-105h-641v-501h625v-104h-625v-505h641v-105h-752v1320zM502 1398q-77 0 -131 30t-85 75t-36 90l102 26q6 -28 23.5 -59t49.5 -52t77 -21q44 0 75.5 21t49.5 52t22 59l104 -26q-5 -43 -35.5 -88t-85 -76t-130.5 -31z" />
    <glyph glyph-name="ebreve" unicode="&#x115;" horiz-adv-x="935" 
d="M166 397q1 -86 34.5 -161t101.5 -121t171 -46q84 0 140.5 27.5t90 64t47.5 65.5l71 -70q-37 -57 -85.5 -97.5t-114 -61.5t-155.5 -21q-131 0 -223.5 58.5t-141 159.5t-48.5 227q0 120 48 216t138.5 152t218.5 56q116 0 201.5 -51t133 -141.5t47.5 -210.5q0 -9 -0.5 -23
t-1.5 -22h-673zM727 492q-1 54 -26.5 114.5t-83 103t-157.5 42.5q-104 0 -165.5 -41.5t-89.5 -101.5t-34 -117h556zM456 971q-78 0 -134.5 31t-88.5 77.5t-38 93.5l108 27q6 -29 24 -60.5t50.5 -53.5t78.5 -22t78 22t50.5 53.5t22.5 60.5l109 -27q-5 -45 -36.5 -92
t-88 -78.5t-135.5 -31.5z" />
    <glyph glyph-name="Edotaccent" unicode="&#x116;" horiz-adv-x="1042" 
d="M123 1320h752v-105h-641v-501h625v-104h-625v-505h641v-105h-752v1320zM501 1444q-37 0 -63 27t-26 62t26 62t63 27q35 0 62 -26.5t27 -62.5q0 -37 -27 -63t-62 -26z" />
    <glyph glyph-name="edotaccent" unicode="&#x117;" horiz-adv-x="935" 
d="M166 397q1 -86 34.5 -161t101.5 -121t171 -46q84 0 140.5 27.5t90 64t47.5 65.5l71 -70q-37 -57 -85.5 -97.5t-114 -61.5t-155.5 -21q-131 0 -223.5 58.5t-141 159.5t-48.5 227q0 120 48 216t138.5 152t218.5 56q116 0 201.5 -51t133 -141.5t47.5 -210.5q0 -9 -0.5 -23
t-1.5 -22h-673zM727 492q-1 54 -26.5 114.5t-83 103t-157.5 42.5q-104 0 -165.5 -41.5t-89.5 -101.5t-34 -117h556zM455 1030q-37 0 -63 26.5t-26 61.5q0 36 26 62.5t63 26.5q35 0 62 -26.5t27 -62.5t-27 -62t-62 -26z" />
    <glyph glyph-name="Eogonek" unicode="&#x118;" horiz-adv-x="1042" 
d="M123 1320h752v-105h-641v-501h625v-104h-625v-505h641v-105h-752v1320zM627 -424q-42 0 -87.5 14.5t-76.5 52.5t-31 107q0 51 29 106t71.5 103t81.5 81l53 -40q-30 -28 -63.5 -68.5t-57 -86t-23.5 -86.5q0 -60 37.5 -82t86.5 -22q44 0 79 23t53 48l67 -51
q-23 -38 -86 -68.5t-133 -30.5z" />
    <glyph glyph-name="eogonek" unicode="&#x119;" horiz-adv-x="954" 
d="M166 397q1 -86 34.5 -161t101.5 -121t171 -46q84 0 140.5 27.5t90 64t47.5 65.5l71 -70q-37 -57 -85.5 -97.5t-114 -61.5t-155.5 -21q-131 0 -223.5 58.5t-141 159.5t-48.5 227q0 120 48 216t138.5 152t218.5 56q116 0 201.5 -51t133 -141.5t47.5 -210.5q0 -9 -0.5 -23
t-1.5 -22h-673zM727 492q-1 54 -26.5 114.5t-83 103t-157.5 42.5q-104 0 -165.5 -41.5t-89.5 -101.5t-34 -117h556zM560 -424q-42 0 -87.5 14.5t-76.5 52.5t-31 107q0 51 29 106t71.5 103t81.5 81l53 -40q-30 -28 -63.5 -68.5t-57 -85.5t-23.5 -86q0 -61 37 -83t87 -22
q44 0 79 23t53 48l67 -51q-23 -38 -86 -68.5t-133 -30.5z" />
    <glyph glyph-name="Ecaron" unicode="&#x11a;" horiz-adv-x="1042" 
d="M123 1320h752v-105h-641v-501h625v-104h-625v-505h641v-105h-752v1320zM502 1420l-241 175l54 72l187 -135l187 136l52 -72z" />
    <glyph glyph-name="ecaron" unicode="&#x11b;" horiz-adv-x="954" 
d="M166 397q1 -86 34.5 -161t101.5 -121t171 -46q84 0 140.5 27.5t90 64t47.5 65.5l71 -70q-37 -57 -85.5 -97.5t-114 -61.5t-155.5 -21q-131 0 -223.5 58.5t-141 159.5t-48.5 227q0 120 48 216t138.5 152t218.5 56q116 0 201.5 -51t133 -141.5t47.5 -210.5q0 -9 -0.5 -23
t-1.5 -22h-673zM727 492q-1 54 -26.5 114.5t-83 103t-157.5 42.5q-104 0 -165.5 -41.5t-89.5 -101.5t-34 -117h556zM455 971l-275 201l62 82l213 -155l215 156l60 -82z" />
    <glyph glyph-name="Gcircumflex" unicode="&#x11c;" horiz-adv-x="1423" 
d="M671 707h663v-66q0 -137 -48.5 -257t-135.5 -212t-203.5 -144t-253.5 -52q-140 0 -258 54t-205 149t-135.5 218.5t-48.5 263.5q0 139 48.5 262.5t135.5 218.5t205 148.5t258 53.5q85 0 160 -19t139 -54t116.5 -82t91.5 -102l-95 -59q-69 93 -174 150t-238 57
q-115 0 -212.5 -45.5t-169 -124.5t-110.5 -183t-39 -221t39 -221t110.5 -184t169 -125.5t212.5 -45.5q111 0 204.5 41t162.5 113.5t109 167.5t45 203h-543v97zM479 1407l-61 81l274 201l276 -202l-61 -82l-215 157z" />
    <glyph glyph-name="gcircumflex" unicode="&#x11d;" horiz-adv-x="1042" 
d="M489 -438q-102 0 -178 22t-127.5 58.5t-79.5 78.5l84 74q18 -25 50 -56t91 -53.5t157 -22.5t164.5 44t100.5 117t34 161v29h111v-38q0 -134 -54.5 -226.5t-147 -140t-205.5 -47.5zM785 0v172q-7 -27 -46.5 -74t-109 -84.5t-164.5 -37.5q-111 0 -204.5 51.5t-150 149
t-56.5 233.5t56.5 233.5t150 149.5t204.5 52q95 0 164 -35.5t109.5 -81.5t45.5 -77v170h112v-821h-111zM167 410q0 -104 45 -179t116.5 -115t150.5 -40q87 0 155 41t107.5 116t39.5 177t-39.5 177t-107.5 116.5t-155 41.5q-79 0 -150.5 -40.5t-116.5 -115.5t-45 -179z
M700 926l-215 158l-213 -156l-62 82l275 201l275 -202z" />
    <glyph glyph-name="Gbreve" unicode="&#x11e;" horiz-adv-x="1423" 
d="M671 707h663v-66q0 -137 -48.5 -257t-135.5 -212t-203.5 -144t-253.5 -52q-140 0 -258 54t-205 149t-135.5 218.5t-48.5 263.5q0 139 48.5 262.5t135.5 218.5t205 148.5t258 53.5q85 0 160 -19t139 -54t116.5 -82t91.5 -102l-95 -59q-69 93 -174 150t-238 57
q-115 0 -212.5 -45.5t-169 -124.5t-110.5 -183t-39 -221t39 -221t110.5 -184t169 -125.5t212.5 -45.5q111 0 204.5 41t162.5 113.5t109 167.5t45 203h-543v97zM694 1398q-77 0 -131 30t-85 75t-36 90l102 26q6 -28 23.5 -59t49.5 -52t77 -21q44 0 75.5 21t49.5 52t22 59
l104 -26q-5 -43 -35.5 -88t-85 -76t-130.5 -31z" />
    <glyph glyph-name="gbreve" unicode="&#x11f;" horiz-adv-x="1060" 
d="M489 -438q-102 0 -178 22t-127.5 58.5t-79.5 78.5l84 74q18 -25 50 -56t91 -53.5t157 -22.5t164.5 44t100.5 117t34 161v29h111v-38q0 -134 -54.5 -226.5t-147 -140t-205.5 -47.5zM785 0v172q-7 -27 -46.5 -74t-109 -84.5t-164.5 -37.5q-111 0 -204.5 51.5t-150 149
t-56.5 233.5t56.5 233.5t150 149.5t204.5 52q95 0 164 -35.5t109.5 -81.5t45.5 -77v170h112v-821h-111zM167 410q0 -104 45 -179t116.5 -115t150.5 -40q87 0 155 41t107.5 116t39.5 177t-39.5 177t-107.5 116.5t-155 41.5q-79 0 -150.5 -40.5t-116.5 -115.5t-45 -179z
M485 971q-78 0 -134.5 31t-88.5 77.5t-38 93.5l108 27q6 -29 24 -60.5t50.5 -53.5t78.5 -22t78 22t50.5 53.5t22.5 60.5l109 -27q-5 -45 -36.5 -92t-88 -78.5t-135.5 -31.5z" />
    <glyph glyph-name="Gdotaccent" unicode="&#x120;" horiz-adv-x="1423" 
d="M671 707h663v-66q0 -137 -48.5 -257t-135.5 -212t-203.5 -144t-253.5 -52q-140 0 -258 54t-205 149t-135.5 218.5t-48.5 263.5q0 139 48.5 262.5t135.5 218.5t205 148.5t258 53.5q85 0 160 -19t139 -54t116.5 -82t91.5 -102l-95 -59q-69 93 -174 150t-238 57
q-115 0 -212.5 -45.5t-169 -124.5t-110.5 -183t-39 -221t39 -221t110.5 -184t169 -125.5t212.5 -45.5q111 0 204.5 41t162.5 113.5t109 167.5t45 203h-543v97zM692 1444q-37 0 -63 27t-26 62t26 62t63 27q35 0 62 -26.5t27 -62.5q0 -37 -27 -63t-62 -26z" />
    <glyph glyph-name="gdotaccent" unicode="&#x121;" horiz-adv-x="1037" 
d="M489 -438q-102 0 -178 22t-127.5 58.5t-79.5 78.5l84 74q18 -25 50 -56t91 -53.5t157 -22.5t164.5 44t100.5 117t34 161v29h111v-38q0 -134 -54.5 -226.5t-147 -140t-205.5 -47.5zM785 0v172q-7 -27 -46.5 -74t-109 -84.5t-164.5 -37.5q-111 0 -204.5 51.5t-150 149
t-56.5 233.5t56.5 233.5t150 149.5t204.5 52q95 0 164 -35.5t109.5 -81.5t45.5 -77v170h112v-821h-111zM167 410q0 -104 45 -179t116.5 -115t150.5 -40q87 0 155 41t107.5 116t39.5 177t-39.5 177t-107.5 116.5t-155 41.5q-79 0 -150.5 -40.5t-116.5 -115.5t-45 -179z
M489 1030q-37 0 -63 26.5t-26 61.5q0 36 26 62.5t63 26.5q35 0 62 -26.5t27 -62.5t-27 -62t-62 -26z" />
    <glyph glyph-name="uni0122" unicode="&#x122;" horiz-adv-x="1423" 
d="M671 707h663v-66q0 -137 -48.5 -257t-135.5 -212t-203.5 -144t-253.5 -52q-140 0 -258 54t-205 149t-135.5 218.5t-48.5 263.5q0 139 48.5 262.5t135.5 218.5t205 148.5t258 53.5q85 0 160 -19t139 -54t116.5 -82t91.5 -102l-95 -59q-69 93 -174 150t-238 57
q-115 0 -212.5 -45.5t-169 -124.5t-110.5 -183t-39 -221t39 -221t110.5 -184t169 -125.5t212.5 -45.5q111 0 204.5 41t162.5 113.5t109 167.5t45 203h-543v97zM666 -443l-46 44q34 16 72.5 49t47.5 74q-17 -8 -39 -8q-36 0 -61.5 26.5t-25.5 61.5q0 44 28 71t70 27t72.5 -30
t30.5 -78q0 -53 -21 -99t-54.5 -81t-73.5 -57z" />
    <glyph glyph-name="uni0123" unicode="&#x123;" horiz-adv-x="1042" 
d="M489 -438q-102 0 -178 22t-127.5 58.5t-79.5 78.5l84 74q18 -25 50 -56t91 -53.5t157 -22.5t164.5 44t100.5 117t34 161v29h111v-38q0 -134 -54.5 -226.5t-147 -140t-205.5 -47.5zM785 0v172q-7 -27 -46.5 -74t-109 -84.5t-164.5 -37.5q-111 0 -204.5 51.5t-150 149
t-56.5 233.5t56.5 233.5t150 149.5t204.5 52q95 0 164 -35.5t109.5 -81.5t45.5 -77v170h112v-821h-111zM167 410q0 -104 45 -179t116.5 -115t150.5 -40q87 0 155 41t107.5 116t39.5 177t-39.5 177t-107.5 116.5t-155 41.5q-79 0 -150.5 -40.5t-116.5 -115.5t-45 -179z
M453 953q-37 0 -63 26.5t-26 67.5q0 46 18 85.5t47.5 70.5t63.5 49l40 -38q-29 -14 -62.5 -42.5t-41.5 -65.5q15 8 33 8q32 -1 54 -24t22 -53q0 -37 -24 -60.5t-61 -23.5z" />
    <glyph glyph-name="Hcircumflex" unicode="&#x124;" horiz-adv-x="1225" 
d="M949 609h-715v-609h-111v1320h111v-606h715v606h109v-1320h-109v609zM377 1407l-61 81l274 201l276 -202l-61 -82l-215 157z" />
    <glyph glyph-name="hcircumflex" unicode="&#x125;" horiz-adv-x="999" 
d="M531 845q77 0 151 -33.5t122 -106t48 -187.5v-518h-116v491q0 137 -63.5 197.5t-162.5 60.5q-67 0 -128.5 -38t-101.5 -104t-40 -148v-459h-116v1376h116v-713q7 35 47.5 77.5t104 73.5t139.5 31zM717 1435l-215 158l-213 -156l-62 82l275 201l275 -202z" />
    <glyph glyph-name="Hbar" unicode="&#x126;" horiz-adv-x="1225" 
d="M62 1088h1060v-90h-1060v90zM949 609h-715v-609h-111v1320h111v-606h715v606h109v-1320h-109v609z" />
    <glyph glyph-name="hbar" unicode="&#x127;" horiz-adv-x="999" 
d="M13 1037v87h452v-87h-452zM531 845q77 0 151 -33.5t122 -106t48 -187.5v-518h-116v491q0 137 -63.5 197.5t-162.5 60.5q-67 0 -128.5 -38t-101.5 -104t-40 -148v-459h-116v1376h116v-713q7 35 47.5 77.5t104 73.5t139.5 31z" />
    <glyph glyph-name="Itilde" unicode="&#x128;" horiz-adv-x="433" 
d="M140 1320h113v-1320h-113v1320zM-119 1414q9 39 32.5 80t60 70t84.5 29q61 0 100 -19t73.5 -38.5t80.5 -19.5q38 0 60 26.5t28 50.5h110q-11 -38 -35.5 -79.5t-61.5 -70.5t-85 -29q-61 0 -101.5 19t-73 38t-70.5 19q-36 0 -60 -26t-33 -50h-109z" />
    <glyph glyph-name="itilde" unicode="&#x129;" horiz-adv-x="359" 
d="M106 0v821h110v-821h-110zM-138 1016q10 39 33.5 80t60 70t84.5 29q60 0 99.5 -19t74 -38.5t80.5 -19.5q38 0 59.5 26.5t28.5 50.5h109q-11 -38 -35 -80t-61 -70.5t-85 -28.5q-61 0 -101.5 19t-73.5 38t-71 19q-35 0 -59.5 -26t-32.5 -50h-110z" />
    <glyph glyph-name="Imacron" unicode="&#x12a;" horiz-adv-x="433" 
d="M140 1320h113v-1320h-113v1320zM-84 1462v90h557v-90h-557z" />
    <glyph glyph-name="imacron" unicode="&#x12b;" horiz-adv-x="359" 
d="M106 0v821h110v-821h-110zM-117 1065v90h558v-90h-558z" />
    <glyph glyph-name="Ibreve" unicode="&#x12c;" horiz-adv-x="433" 
d="M140 1320h113v-1320h-113v1320zM195 1398q-77 0 -131 30t-85 75t-36 90l102 26q6 -28 23.5 -59t49.5 -52t77 -21q44 0 75.5 21t49.5 52t22 59l104 -26q-5 -43 -35.5 -88t-85 -76t-130.5 -31z" />
    <glyph glyph-name="ibreve" unicode="&#x12d;" horiz-adv-x="359" 
d="M106 0v821h110v-821h-110zM161 971q-78 0 -134.5 31t-88.5 77.5t-38 93.5l108 27q6 -29 24 -60.5t50.5 -53.5t78.5 -22t78 22t50.5 53.5t22.5 60.5l109 -27q-5 -45 -36.5 -92t-88 -78.5t-135.5 -31.5z" />
    <glyph glyph-name="Iogonek" unicode="&#x12e;" horiz-adv-x="433" 
d="M140 1320h113v-1320h-113v1320zM192 -424q-42 0 -87.5 14.5t-76.5 52.5t-31 107q0 51 29 106t71.5 103t81.5 81l53 -40q-30 -28 -63.5 -68.5t-57 -85.5t-23.5 -86q0 -61 37 -83t87 -22q44 0 79 23t53 48l67 -51q-23 -38 -86 -68.5t-133 -30.5z" />
    <glyph glyph-name="iogonek" unicode="&#x12f;" horiz-adv-x="430" 
d="M138 0v821h113v-821h-113zM196 1154q-36 0 -61.5 25.5t-25.5 61.5q0 37 26 62.5t61 25.5q24 0 44.5 -12t33 -31.5t12.5 -44.5q0 -36 -26.5 -61.5t-63.5 -25.5zM189 -424q-42 0 -87.5 14.5t-76.5 52.5t-31 107q0 51 29 106t71.5 103t81.5 81l53 -40q-30 -28 -63.5 -68.5
t-57 -85.5t-23.5 -86q0 -61 37 -83t87 -22q44 0 79 23t53 48l67 -51q-23 -38 -86 -68.5t-133 -30.5z" />
    <glyph glyph-name="Idotaccent" unicode="&#x130;" horiz-adv-x="433" 
d="M140 1320h113v-1320h-113v1320zM194 1444q-37 0 -63 27t-26 62t26 62t63 27q35 0 62 -26.5t27 -62.5q0 -37 -27 -63t-62 -26z" />
    <glyph glyph-name="dotlessi" unicode="&#x131;" horiz-adv-x="359" 
d="M106 0v821h110v-821h-110z" />
    <glyph glyph-name="Jcircumflex" unicode="&#x134;" horiz-adv-x="758" 
d="M632 399q0 -130 -36.5 -225t-112.5 -146.5t-195 -51.5q-96 0 -159.5 27t-98 60t-42.5 50l57 95q11 -19 36 -48t73.5 -52t124.5 -23q91 0 144 43t75 115t22 159v918h112v-921zM362 1407l-61 81l274 201l276 -202l-61 -82l-215 157z" />
    <glyph glyph-name="jcircumflex" unicode="&#x135;" horiz-adv-x="450" 
d="M60 -440q-57 0 -96 13.5t-56 26.5l52 90q12 -10 29.5 -18t55.5 -8q52 0 78 32t35 89.5t9 133.5v902h114v-942q0 -97 -20.5 -169t-69 -111t-131.5 -39zM441 926l-215 158l-213 -156l-62 82l275 201l275 -202z" />
    <glyph glyph-name="uni0136" unicode="&#x136;" horiz-adv-x="946" 
d="M355 660l557 -660h-136l-531 625v-625h-113v1320h113v-634l499 634h132zM433 -443l-46 44q34 16 72.5 49t47.5 74q-17 -8 -39 -8q-36 0 -61.5 26.5t-25.5 61.5q0 44 28 71t70 27t72.5 -30t30.5 -78q0 -53 -21 -99t-54.5 -81t-73.5 -57z" />
    <glyph glyph-name="uni0137" unicode="&#x137;" horiz-adv-x="786" 
d="M590 821h148l-440 -391l463 -430h-149l-410 379v-379h-114v1376h114v-899zM339 -420l-46 44q34 16 72 49t47 74q-17 -8 -38 -8q-36 0 -61.5 26.5t-25.5 61.5q0 44 28 71t70 27t72.5 -30t30.5 -78q0 -53 -21 -99t-55 -81t-73 -57z" />
    <glyph glyph-name="kgreenlandic" unicode="&#x138;" horiz-adv-x="798" 
d="M350 422l415 -422h-142l-378 386v-386h-113v821h113v-374l348 374h136z" />
    <glyph glyph-name="Lacute" unicode="&#x139;" horiz-adv-x="888" 
d="M119 1320h112v-1215h538v-105h-650v1320zM344 1376l-49 64l296 238l76 -98z" />
    <glyph glyph-name="lacute" unicode="&#x13a;" horiz-adv-x="399" 
d="M239 0h-116v1376h116v-1376zM119 1544l-49 64l294 238l79 -97z" />
    <glyph glyph-name="uni013B" unicode="&#x13b;" horiz-adv-x="888" 
d="M119 1320h112v-1215h538v-105h-650v1320zM395 -443l-46 44q34 16 72.5 49t47.5 74q-17 -8 -39 -8q-36 0 -61.5 26.5t-25.5 61.5q0 44 28 71t70 27t72.5 -30t30.5 -78q0 -53 -21 -99t-54.5 -81t-73.5 -57z" />
    <glyph glyph-name="uni013C" unicode="&#x13c;" horiz-adv-x="399" 
d="M239 0h-116v1376h116v-1376zM150 -420l-46 44q34 16 72 49t47 74q-17 -8 -38 -8q-36 0 -61.5 26.5t-25.5 61.5q0 44 28 71t70 27t72.5 -30t30.5 -78q0 -53 -21 -99t-55 -81t-73 -57z" />
    <glyph glyph-name="Lcaron" unicode="&#x13d;" horiz-adv-x="888" 
d="M801 1029l-37 35q26 13 57 39t38 60q-13 -7 -30 -7q-29 0 -49.5 21.5t-20.5 49.5q0 35 22.5 56.5t55.5 21.5q34 0 59 -24t25 -62q0 -42 -17 -79t-44.5 -65.5t-58.5 -45.5zM119 1320h112v-1215h538v-105h-650v1320z" />
    <glyph glyph-name="lcaron" unicode="&#x13e;" horiz-adv-x="399" 
d="M509 1066l-37 36q27 13 58 40t39 60q-14 -7 -31 -7q-29 0 -50 22t-21 50q0 36 22.5 58t57.5 22q34 0 59 -24.5t25 -63.5q0 -43 -17.5 -80t-45 -66t-59.5 -47zM239 0h-116v1376h116v-1376z" />
    <glyph glyph-name="Ldot" unicode="&#x13f;" horiz-adv-x="888" 
d="M119 1320h112v-1215h538v-105h-650v1320zM559 545q-47 0 -79.5 33t-32.5 79q0 48 32.5 81t79.5 33t80 -33t33 -81q0 -46 -33 -79t-80 -33z" />
    <glyph glyph-name="ldot" unicode="&#x140;" horiz-adv-x="541" 
d="M239 0h-116v1376h116v-1376zM429 579q-47 0 -79.5 33t-32.5 79q0 48 32.5 81t79.5 33t80 -33t33 -81q0 -46 -33 -79t-80 -33z" />
    <glyph glyph-name="Lslash" unicode="&#x141;" horiz-adv-x="960" 
d="M198 0v625l-145 -113v133l145 113v562h110v-476l126 100v-133l-126 -100v-606h533v-105h-643z" />
    <glyph glyph-name="lslash" unicode="&#x142;" horiz-adv-x="484" 
d="M157 0v585l-95 -75v135l95 75v656h111v-568l117 91v-136l-117 -90v-673h-111z" />
    <glyph glyph-name="Nacute" unicode="&#x143;" horiz-adv-x="1315" 
d="M229 1210l6 -1v-1209h-112v1320h165l754 -1209l-5 -1v1210h111v-1320h-166zM593 1376l-49 64l296 238l76 -98z" />
    <glyph glyph-name="nacute" unicode="&#x144;" horiz-adv-x="984" 
d="M525 845q78 0 152 -33.5t122 -106t48 -187.5v-518h-116v491q0 137 -64 197.5t-164 60.5q-66 0 -127.5 -38t-101 -104t-39.5 -148v-459h-114v821h114v-158q7 35 47.5 77.5t104 73.5t138.5 31zM338 944l-49 64l294 237l79 -97z" />
    <glyph glyph-name="uni0145" unicode="&#x145;" horiz-adv-x="1315" 
d="M229 1210l6 -1v-1209h-112v1320h165l754 -1209l-5 -1v1210h111v-1320h-166zM621 -443l-46 44q34 16 72.5 49t47.5 74q-17 -8 -39 -8q-36 0 -61.5 26.5t-25.5 61.5q0 44 28 71t70 27t72.5 -30t30.5 -78q0 -53 -21 -99t-54.5 -81t-73.5 -57z" />
    <glyph glyph-name="uni0146" unicode="&#x146;" horiz-adv-x="984" 
d="M525 845q78 0 152 -33.5t122 -106t48 -187.5v-518h-116v491q0 137 -64 197.5t-164 60.5q-66 0 -127.5 -38t-101 -104t-39.5 -148v-459h-114v821h114v-158q7 35 47.5 77.5t104 73.5t138.5 31zM429 -420l-46 44q34 16 72 49t47 74q-17 -8 -38 -8q-36 0 -61.5 26.5
t-25.5 61.5q0 44 28 71t70 27t72.5 -30t30.5 -78q0 -53 -21 -99t-55 -81t-73 -57z" />
    <glyph glyph-name="Ncaron" unicode="&#x147;" horiz-adv-x="1315" 
d="M229 1210l6 -1v-1209h-112v1320h165l754 -1209l-5 -1v1210h111v-1320h-166zM671 1420l-241 175l54 72l187 -135l187 136l52 -72z" />
    <glyph glyph-name="ncaron" unicode="&#x148;" horiz-adv-x="984" 
d="M525 845q78 0 152 -33.5t122 -106t48 -187.5v-518h-116v491q0 137 -64 197.5t-164 60.5q-66 0 -127.5 -38t-101 -104t-39.5 -148v-459h-114v821h114v-158q7 35 47.5 77.5t104 73.5t138.5 31zM467 971l-275 201l62 82l213 -155l215 156l60 -82z" />
    <glyph glyph-name="Eng" unicode="&#x14a;" horiz-adv-x="1315" 
d="M1148 0h-113v-40q0 -133 -35.5 -206.5t-114.5 -73.5q-36 0 -66 10t-44 20l-53 -92q13 -7 64 -25.5t113 -18.5q84 0 139 48t82.5 134t27.5 201v43zM229 1210l6 -1v-1209h-112v1320h165l754 -1209l-5 -1v1210h111v-1320h-166z" />
    <glyph glyph-name="eng" unicode="&#x14b;" horiz-adv-x="984" 
d="M847 0h-116v-65q0 -64 -5.5 -123t-28.5 -97t-75 -38q-35 0 -60 10.5t-36 19.5l-50 -99q6 -4 43.5 -19t103.5 -15q65 0 107.5 25.5t68.5 69.5t37 100.5t11 119.5v111zM525 845q78 0 152 -33.5t122 -106t48 -187.5v-518h-116v491q0 137 -64 197.5t-164 60.5
q-66 0 -127.5 -38t-101 -104t-39.5 -148v-459h-114v821h114v-158q7 35 47.5 77.5t104 73.5t138.5 31z" />
    <glyph glyph-name="Omacron" unicode="&#x14c;" horiz-adv-x="1426" 
d="M162 661q0 -163 68.5 -293.5t188.5 -206.5t274 -76q155 0 274 76t187 206.5t68 293.5t-68 293t-187 205.5t-274 75.5q-154 0 -274 -75.5t-188.5 -205.5t-68.5 -293zM46 661q0 144 49 268.5t136.5 217.5t205.5 145t256 52q139 0 256 -52t204.5 -145t135.5 -217.5
t48 -268.5q0 -145 -47.5 -269.5t-135 -218t-205 -145.5t-256.5 -52q-140 0 -258 52t-205 145.5t-135.5 218t-48.5 269.5zM431 1564v90h558v-90h-558z" />
    <glyph glyph-name="omacron" unicode="&#x14d;" horiz-adv-x="985" 
d="M477 -24q-123 0 -218.5 57.5t-150 155.5t-54.5 219t54.5 220.5t150 158t218.5 58.5t217.5 -58.5t148.5 -158t54 -220.5t-54 -219t-148.5 -155.5t-217.5 -57.5zM477 79q93 0 162.5 43t108 118t38.5 168q0 94 -38.5 169.5t-108 120t-162.5 44.5q-94 0 -164 -44.5t-109 -120
t-39 -169.5q0 -93 39 -168t109 -118t164 -43zM195 1065v90h558v-90h-558z" />
    <glyph glyph-name="Obreve" unicode="&#x14e;" horiz-adv-x="1426" 
d="M162 661q0 -163 68.5 -293.5t188.5 -206.5t274 -76q155 0 274 76t187 206.5t68 293.5t-68 293t-187 205.5t-274 75.5q-154 0 -274 -75.5t-188.5 -205.5t-68.5 -293zM46 661q0 144 49 268.5t136.5 217.5t205.5 145t256 52q139 0 256 -52t204.5 -145t135.5 -217.5
t48 -268.5q0 -145 -47.5 -269.5t-135 -218t-205 -145.5t-256.5 -52q-140 0 -258 52t-205 145.5t-135.5 218t-48.5 269.5zM693 1398q-77 0 -131 30t-85 75t-36 90l102 26q6 -28 23.5 -59t49.5 -52t77 -21q44 0 75.5 21t49.5 52t22 59l104 -26q-5 -43 -35.5 -88t-85 -76
t-130.5 -31z" />
    <glyph glyph-name="obreve" unicode="&#x14f;" horiz-adv-x="989" 
d="M477 -24q-123 0 -218.5 57.5t-150 155.5t-54.5 219t54.5 220.5t150 158t218.5 58.5t217.5 -58.5t148.5 -158t54 -220.5t-54 -219t-148.5 -155.5t-217.5 -57.5zM477 79q93 0 162.5 43t108 118t38.5 168q0 94 -38.5 169.5t-108 120t-162.5 44.5q-94 0 -164 -44.5t-109 -120
t-39 -169.5q0 -93 39 -168t109 -118t164 -43zM475 971q-78 0 -134.5 31t-88.5 77.5t-38 93.5l108 27q6 -29 24 -60.5t50.5 -53.5t78.5 -22t78 22t50.5 53.5t22.5 60.5l109 -27q-5 -45 -36.5 -92t-88 -78.5t-135.5 -31.5z" />
    <glyph glyph-name="Ohungarumlaut" unicode="&#x150;" horiz-adv-x="1396" 
d="M162 661q0 -163 68.5 -293.5t188.5 -206.5t274 -76q155 0 274 76t187 206.5t68 293.5t-68 293t-187 205.5t-274 75.5q-154 0 -274 -75.5t-188.5 -205.5t-68.5 -293zM46 661q0 144 49 268.5t136.5 217.5t205.5 145t256 52q139 0 256 -52t204.5 -145t135.5 -217.5
t48 -268.5q0 -145 -47.5 -269.5t-135 -218t-205 -145.5t-256.5 -52q-140 0 -258 52t-205 145.5t-135.5 218t-48.5 269.5zM838 1482l-50 55l265 285l77 -97zM494 1482l-50 55l265 285l77 -97z" />
    <glyph glyph-name="ohungarumlaut" unicode="&#x151;" horiz-adv-x="985" 
d="M477 -24q-123 0 -218.5 57.5t-150 155.5t-54.5 219t54.5 220.5t150 158t218.5 58.5t217.5 -58.5t148.5 -158t54 -220.5t-54 -219t-148.5 -155.5t-217.5 -57.5zM477 79q93 0 162.5 43t108 118t38.5 168q0 94 -38.5 169.5t-108 120t-162.5 44.5q-94 0 -164 -44.5t-109 -120
t-39 -169.5q0 -93 39 -168t109 -118t164 -43zM620 983l-50 55l265 285l77 -97zM276 983l-50 55l265 285l77 -97z" />
    <glyph glyph-name="OE" unicode="&#x152;" horiz-adv-x="1567" 
d="M681 0q-147 0 -262 48.5t-194.5 137t-121.5 209.5t-42 266q0 144 45.5 265t128.5 209t196.5 136.5t249.5 48.5h738v-105h-565v-501h546v-105h-546v-504h565v-105h-738zM680 102h64v1120h-64q-156 0 -268 -76.5t-171.5 -203.5t-59.5 -281t57 -281t168 -202.5t274 -75.5z
" />
    <glyph glyph-name="oe" unicode="&#x153;" horiz-adv-x="1670" 
d="M477 -24q-123 0 -218.5 57.5t-150 155.5t-54.5 219t54.5 220.5t150 158t218.5 58.5t217.5 -58.5t148.5 -158t54 -220.5t-54 -219t-148.5 -155.5t-217.5 -57.5zM477 79q93 0 162.5 43t108 118t38.5 168q0 94 -38.5 169.5t-108 120t-162.5 44.5q-94 0 -164 -44.5t-109 -120
t-39 -169.5q0 -93 39 -168t109 -118t164 -43zM900 397q1 -86 34.5 -161t101.5 -121t171 -46q84 0 140.5 27.5t90 64t47.5 65.5l71 -70q-37 -57 -85.5 -97.5t-114 -61.5t-155.5 -21q-131 0 -223.5 58.5t-141 159.5t-48.5 227q0 120 48 216t138.5 152t218.5 56
q116 0 201.5 -51t133 -141.5t47.5 -210.5q0 -9 -0.5 -23t-1.5 -22h-673zM1461 492q-1 54 -26.5 114.5t-83 103t-157.5 42.5q-104 0 -165.5 -41.5t-89.5 -101.5t-34 -117h556z" />
    <glyph glyph-name="Racute" unicode="&#x154;" horiz-adv-x="1074" 
d="M125 1320h426q103 0 189.5 -43t139 -126t52.5 -205q0 -121 -50.5 -201.5t-121 -121t-131.5 -42.5l330 -581h-128l-316 573h-278v-573h-112v1320zM237 664h276q135 0 219.5 68t84.5 212q0 145 -84 210.5t-220 65.5h-276v-556zM419 1376l-49 64l296 238l76 -98z" />
    <glyph glyph-name="racute" unicode="&#x155;" horiz-adv-x="699" 
d="M236 0h-112v821h112v-148h-5q4 26 36.5 66.5t88.5 73t132 32.5q58 0 99.5 -14.5t57.5 -29.5l-50 -97q-13 13 -48.5 26t-85.5 13q-69 0 -119.5 -46t-78 -109.5t-27.5 -116.5v-471zM255 989l-49 64l294 238l79 -97z" />
    <glyph glyph-name="uni0156" unicode="&#x156;" horiz-adv-x="1074" 
d="M125 1320h426q103 0 189.5 -43t139 -126t52.5 -205q0 -121 -50.5 -201.5t-121 -121t-131.5 -42.5l330 -581h-128l-316 573h-278v-573h-112v1320zM237 664h276q135 0 219.5 68t84.5 212q0 145 -84 210.5t-220 65.5h-276v-556zM446 -443l-46 44q34 16 72.5 49t47.5 74
q-17 -8 -39 -8q-36 0 -61.5 26.5t-25.5 61.5q0 44 28 71t70 27t72.5 -30t30.5 -78q0 -53 -21 -99t-54.5 -81t-73.5 -57z" />
    <glyph glyph-name="uni0157" unicode="&#x157;" horiz-adv-x="657" 
d="M236 0h-112v821h112v-148h-5q4 26 36.5 66.5t88.5 73t132 32.5q58 0 99.5 -14.5t57.5 -29.5l-50 -97q-13 13 -48.5 26t-85.5 13q-69 0 -119.5 -46t-78 -109.5t-27.5 -116.5v-471zM300 -420l-46 44q34 16 72 49t47 74q-17 -8 -38 -8q-36 0 -61.5 26.5t-25.5 61.5
q0 44 28 71t70 27t72.5 -30t30.5 -78q0 -53 -21 -99t-55 -81t-73 -57z" />
    <glyph glyph-name="Rcaron" unicode="&#x158;" horiz-adv-x="1074" 
d="M125 1320h426q103 0 189.5 -43t139 -126t52.5 -205q0 -121 -50.5 -201.5t-121 -121t-131.5 -42.5l330 -581h-128l-316 573h-278v-573h-112v1320zM237 664h276q135 0 219.5 68t84.5 212q0 145 -84 210.5t-220 65.5h-276v-556zM496 1420l-241 175l54 72l187 -135l187 136
l52 -72z" />
    <glyph glyph-name="rcaron" unicode="&#x159;" horiz-adv-x="699" 
d="M236 0h-112v821h112v-148h-5q4 26 36.5 66.5t88.5 73t132 32.5q58 0 99.5 -14.5t57.5 -29.5l-50 -97q-13 13 -48.5 26t-85.5 13q-69 0 -119.5 -46t-78 -109.5t-27.5 -116.5v-471zM334 971l-275 201l62 82l213 -155l215 156l60 -82z" />
    <glyph glyph-name="Sacute" unicode="&#x15a;" horiz-adv-x="1027" 
d="M502 1344q110 0 187.5 -26t121.5 -54.5t51 -36.5l-62 -94q-15 13 -52.5 38t-96.5 45.5t-140 20.5q-129 0 -203 -54t-74 -150q0 -65 39 -113.5t106.5 -87.5t152.5 -78q67 -30 134.5 -67t124 -87t91 -116t34.5 -153q0 -79 -32 -144t-90.5 -112.5t-138.5 -73t-176 -25.5
q-114 0 -207 29.5t-150 61t-63 37.5l67 99q12 -10 42.5 -29.5t76.5 -40.5t106.5 -35t131.5 -14q154 0 233.5 72t79.5 181q0 85 -51 145.5t-131 106.5t-167 87q-92 43 -167 92t-120 114t-45 156q0 89 51.5 158t139 108.5t196.5 39.5zM415 1376l-49 64l296 238l76 -98z" />
    <glyph glyph-name="sacute" unicode="&#x15b;" horiz-adv-x="779" 
d="M394 845q57 0 107.5 -12.5t88.5 -31t57 -33.5l-55 -79q-21 20 -73 42.5t-117 22.5q-80 0 -136.5 -33t-56.5 -96q0 -61 57 -97t150 -59q71 -18 129.5 -45t93.5 -73.5t35 -123.5q0 -66 -27 -113.5t-73.5 -77.5t-105.5 -45t-124 -15q-67 0 -124 15t-97.5 36t-61.5 39l57 89
q26 -27 85.5 -55.5t139.5 -28.5q93 0 153.5 43t60.5 113q0 51 -29 82t-76 49.5t-100 31.5q-51 13 -97.5 31.5t-82.5 46.5t-56.5 67.5t-20.5 92.5q0 66 41 114.5t109.5 75.5t148.5 27zM277 989l-49 64l294 238l79 -97z" />
    <glyph glyph-name="Scircumflex" unicode="&#x15c;" horiz-adv-x="1027" 
d="M502 1344q110 0 187.5 -26t121.5 -54.5t51 -36.5l-62 -94q-15 13 -52.5 38t-96.5 45.5t-140 20.5q-129 0 -203 -54t-74 -150q0 -65 39 -113.5t106.5 -87.5t152.5 -78q67 -30 134.5 -67t124 -87t91 -116t34.5 -153q0 -79 -32 -144t-90.5 -112.5t-138.5 -73t-176 -25.5
q-114 0 -207 29.5t-150 61t-63 37.5l67 99q12 -10 42.5 -29.5t76.5 -40.5t106.5 -35t131.5 -14q154 0 233.5 72t79.5 181q0 85 -51 145.5t-131 106.5t-167 87q-92 43 -167 92t-120 114t-45 156q0 89 51.5 158t139 108.5t196.5 39.5zM278 1407l-61 81l274 201l276 -202
l-61 -82l-215 157z" />
    <glyph glyph-name="scircumflex" unicode="&#x15d;" horiz-adv-x="779" 
d="M394 845q57 0 107.5 -12.5t88.5 -31t57 -33.5l-55 -79q-21 20 -73 42.5t-117 22.5q-80 0 -136.5 -33t-56.5 -96q0 -61 57 -97t150 -59q71 -18 129.5 -45t93.5 -73.5t35 -123.5q0 -66 -27 -113.5t-73.5 -77.5t-105.5 -45t-124 -15q-67 0 -124 15t-97.5 36t-61.5 39l57 89
q26 -27 85.5 -55.5t139.5 -28.5q93 0 153.5 43t60.5 113q0 51 -29 82t-76 49.5t-100 31.5q-51 13 -97.5 31.5t-82.5 46.5t-56.5 67.5t-20.5 92.5q0 66 41 114.5t109.5 75.5t148.5 27zM592 926l-215 158l-213 -156l-62 82l275 201l275 -202z" />
    <glyph glyph-name="Scedilla" unicode="&#x15e;" horiz-adv-x="1027" 
d="M502 1344q110 0 187.5 -26t121.5 -54.5t51 -36.5l-62 -94q-15 13 -52.5 38t-96.5 45.5t-140 20.5q-129 0 -203 -54t-74 -150q0 -65 39 -113.5t106.5 -87.5t152.5 -78q67 -30 134.5 -67t124 -87t91 -116t34.5 -153q0 -79 -32 -144t-90.5 -112.5t-138.5 -73t-176 -25.5
q-114 0 -207 29.5t-150 61t-63 37.5l67 99q12 -10 42.5 -29.5t76.5 -40.5t106.5 -35t131.5 -14q154 0 233.5 72t79.5 181q0 85 -51 145.5t-131 106.5t-167 87q-92 43 -167 92t-120 114t-45 156q0 89 51.5 158t139 108.5t196.5 39.5zM482 -422q-64 0 -117.5 20t-78.5 38
l55 66q19 -15 56.5 -31t79.5 -16q54 0 91 23t37 62q0 40 -27 59t-72 19q-31 0 -57.5 -4.5t-38.5 -9.5l-36 20l76 218l66 -30l-51 -145q44 13 98.5 6t94 -36.5t39.5 -86.5t-32.5 -95.5t-82 -57.5t-100.5 -19z" />
    <glyph glyph-name="scedilla" unicode="&#x15f;" horiz-adv-x="779" 
d="M394 845q57 0 107.5 -12.5t88.5 -31t57 -33.5l-55 -79q-21 20 -73 42.5t-117 22.5q-80 0 -136.5 -33t-56.5 -96q0 -61 57 -97t150 -59q71 -18 129.5 -45t93.5 -73.5t35 -123.5q0 -66 -27 -113.5t-73.5 -77.5t-105.5 -45t-124 -15q-67 0 -124 15t-97.5 36t-61.5 39l57 89
q26 -27 85.5 -55.5t139.5 -28.5q93 0 153.5 43t60.5 113q0 51 -29 82t-76 49.5t-100 31.5q-51 13 -97.5 31.5t-82.5 46.5t-56.5 67.5t-20.5 92.5q0 66 41 114.5t109.5 75.5t148.5 27zM383 -422q-64 0 -117.5 20t-78.5 38l55 66q19 -15 56.5 -31t79.5 -16q54 0 91 23t37 62
q0 40 -27 59t-72 19q-31 0 -57.5 -4.5t-38.5 -9.5l-36 20l76 218l66 -30l-51 -145q44 13 98.5 6t94 -36.5t39.5 -86.5t-32.5 -95.5t-82 -57.5t-100.5 -19z" />
    <glyph glyph-name="Scaron" unicode="&#x160;" horiz-adv-x="1027" 
d="M502 1344q110 0 187.5 -26t121.5 -54.5t51 -36.5l-62 -94q-15 13 -52.5 38t-96.5 45.5t-140 20.5q-129 0 -203 -54t-74 -150q0 -65 39 -113.5t106.5 -87.5t152.5 -78q67 -30 134.5 -67t124 -87t91 -116t34.5 -153q0 -79 -32 -144t-90.5 -112.5t-138.5 -73t-176 -25.5
q-114 0 -207 29.5t-150 61t-63 37.5l67 99q12 -10 42.5 -29.5t76.5 -40.5t106.5 -35t131.5 -14q154 0 233.5 72t79.5 181q0 85 -51 145.5t-131 106.5t-167 87q-92 43 -167 92t-120 114t-45 156q0 89 51.5 158t139 108.5t196.5 39.5zM492 1420l-241 175l54 72l187 -135
l187 136l52 -72z" />
    <glyph glyph-name="scaron" unicode="&#x161;" horiz-adv-x="779" 
d="M394 845q57 0 107.5 -12.5t88.5 -31t57 -33.5l-55 -79q-21 20 -73 42.5t-117 22.5q-80 0 -136.5 -33t-56.5 -96q0 -61 57 -97t150 -59q71 -18 129.5 -45t93.5 -73.5t35 -123.5q0 -66 -27 -113.5t-73.5 -77.5t-105.5 -45t-124 -15q-67 0 -124 15t-97.5 36t-61.5 39l57 89
q26 -27 85.5 -55.5t139.5 -28.5q93 0 153.5 43t60.5 113q0 51 -29 82t-76 49.5t-100 31.5q-51 13 -97.5 31.5t-82.5 46.5t-56.5 67.5t-20.5 92.5q0 66 41 114.5t109.5 75.5t148.5 27zM393 971l-275 201l62 82l213 -155l215 156l60 -82z" />
    <glyph glyph-name="uni0162" unicode="&#x162;" horiz-adv-x="974" 
d="M408 1215h-376v105h865v-105h-376v-1215h-113v1215zM469 -422q-64 0 -117.5 20t-78.5 38l55 66q19 -15 56.5 -31t79.5 -16q54 0 91 23t37 62q0 40 -27 59t-72 19q-31 0 -57.5 -4.5t-38.5 -9.5l-36 20l76 218l66 -30l-51 -145q44 13 98.5 6t94 -36.5t39.5 -86.5
t-32.5 -95.5t-82 -57.5t-100.5 -19z" />
    <glyph glyph-name="uni0163" unicode="&#x163;" horiz-adv-x="633" 
d="M45 821h171v337h113v-337h224v-103h-224v-487q0 -82 30 -117t75 -35q43 0 65 15t26 20l53 -87q-6 -5 -27 -17.5t-55 -23t-82 -10.5q-83 0 -140.5 53.5t-57.5 171.5v517h-171v103zM414 -430q-64 0 -117.5 20t-78.5 38l55 66q19 -15 56.5 -31t79.5 -16q54 0 91 23t37 62
q0 40 -27 59t-72 19q-31 0 -57.5 -4.5t-38.5 -9.5l-36 20l76 218l66 -30l-51 -145q44 13 98.5 6t94 -36.5t39.5 -86.5t-32.5 -95.5t-82 -57.5t-100.5 -19z" />
    <glyph glyph-name="Tcaron" unicode="&#x164;" horiz-adv-x="974" 
d="M408 1215h-376v105h865v-105h-376v-1215h-113v1215zM465 1420l-241 175l54 72l187 -135l187 136l52 -72z" />
    <glyph glyph-name="tcaron" unicode="&#x165;" horiz-adv-x="630" 
d="M414 -24q-83 0 -140.5 53.5t-57.5 171.5v517h-171v103h171v337h113v-337h224v-103h-224v-487q0 -82 30 -117t75 -35q43 0 65 15t26 20l53 -87q-6 -5 -27 -17.5t-55 -23t-82 -10.5zM657 998l-37 35q27 13 58 39.5t39 60.5q-14 -7 -32 -7q-29 0 -49.5 21.5t-20.5 48.5
q0 35 22.5 57t55.5 22q35 0 59 -24.5t24 -62.5q0 -42 -16.5 -79t-44 -65.5t-58.5 -45.5z" />
    <glyph glyph-name="Tbar" unicode="&#x166;" horiz-adv-x="974" 
d="M46 770h831v-96h-831v96zM408 1215h-376v105h865v-105h-376v-1215h-113v1215z" />
    <glyph glyph-name="tbar" unicode="&#x167;" horiz-adv-x="630" 
d="M46 537h507v-74h-507v74zM45 821h171v337h113v-337h224v-103h-224v-487q0 -82 30 -117t75 -35q43 0 65 15t26 20l53 -87q-6 -5 -27 -17.5t-55 -23t-82 -10.5q-83 0 -140.5 53.5t-57.5 171.5v517h-171v103z" />
    <glyph glyph-name="Utilde" unicode="&#x168;" horiz-adv-x="1230" 
d="M977 1320h112v-824q0 -163 -65.5 -279.5t-176.5 -178.5t-249 -62q-137 0 -249 62t-178 178.5t-66 279.5v824h112v-818q0 -127 51 -221t137.5 -146t192.5 -52t191.5 52t136.5 146t51 221v818zM284 1414q9 39 32.5 80t60 70t84.5 29q61 0 100 -19t73.5 -38.5t80.5 -19.5
q38 0 60 26.5t28 50.5h110q-11 -38 -35.5 -79.5t-61.5 -70.5t-85 -29q-61 0 -101.5 19t-73 38t-70.5 19q-36 0 -60 -26t-33 -50h-109z" />
    <glyph glyph-name="utilde" unicode="&#x169;" horiz-adv-x="990" 
d="M221 392q0 -144 63.5 -228.5t191.5 -84.5q129 0 192 84.5t63 228.5v429h114v-449q0 -115 -43 -204.5t-125 -140.5t-201 -51q-118 0 -200 51t-125 140.5t-43 204.5v449h113v-429zM177 1016q10 39 33.5 80t60 70t84.5 29q60 0 99.5 -19t74 -38.5t80.5 -19.5q38 0 59.5 26.5
t28.5 50.5h109q-11 -38 -35 -80t-61 -70.5t-85 -28.5q-61 0 -101.5 19t-73.5 38t-71 19q-35 0 -59.5 -26t-32.5 -50h-110z" />
    <glyph glyph-name="Umacron" unicode="&#x16a;" horiz-adv-x="1230" 
d="M977 1320h112v-824q0 -163 -65.5 -279.5t-176.5 -178.5t-249 -62q-137 0 -249 62t-178 178.5t-66 279.5v824h112v-818q0 -127 51 -221t137.5 -146t192.5 -52t191.5 52t136.5 146t51 221v818zM319 1462v90h557v-90h-557z" />
    <glyph glyph-name="umacron" unicode="&#x16b;" horiz-adv-x="990" 
d="M221 392q0 -144 63.5 -228.5t191.5 -84.5q129 0 192 84.5t63 228.5v429h114v-449q0 -115 -43 -204.5t-125 -140.5t-201 -51q-118 0 -200 51t-125 140.5t-43 204.5v449h113v-429zM187 1065v90h558v-90h-558z" />
    <glyph glyph-name="Ubreve" unicode="&#x16c;" horiz-adv-x="1230" 
d="M977 1320h112v-824q0 -163 -65.5 -279.5t-176.5 -178.5t-249 -62q-137 0 -249 62t-178 178.5t-66 279.5v824h112v-818q0 -127 51 -221t137.5 -146t192.5 -52t191.5 52t136.5 146t51 221v818zM599 1398q-77 0 -131 30t-85 75t-36 90l102 26q6 -28 23.5 -59t49.5 -52
t77 -21q44 0 75.5 21t49.5 52t22 59l104 -26q-5 -43 -35.5 -88t-85 -76t-130.5 -31z" />
    <glyph glyph-name="ubreve" unicode="&#x16d;" horiz-adv-x="990" 
d="M221 392q0 -144 63.5 -228.5t191.5 -84.5q129 0 192 84.5t63 228.5v429h114v-449q0 -115 -43 -204.5t-125 -140.5t-201 -51q-118 0 -200 51t-125 140.5t-43 204.5v449h113v-429zM476 971q-78 0 -134.5 31t-88.5 77.5t-38 93.5l108 27q6 -29 24 -60.5t50.5 -53.5t78.5 -22
t78 22t50.5 53.5t22.5 60.5l109 -27q-5 -45 -36.5 -92t-88 -78.5t-135.5 -31.5z" />
    <glyph glyph-name="Uring" unicode="&#x16e;" horiz-adv-x="1230" 
d="M977 1320h112v-824q0 -163 -65.5 -279.5t-176.5 -178.5t-249 -62q-137 0 -249 62t-178 178.5t-66 279.5v824h112v-818q0 -127 51 -221t137.5 -146t192.5 -52t191.5 52t136.5 146t51 221v818zM598 1376q-79 0 -127 44t-48 113q0 68 51 113t124 45q74 0 124.5 -45
t50.5 -113q0 -69 -49 -113t-126 -44zM598 1445q37 0 61.5 23.5t24.5 64.5q0 42 -24.5 65t-61.5 23q-34 0 -60 -23t-26 -65q0 -41 26 -64.5t60 -23.5z" />
    <glyph glyph-name="uring" unicode="&#x16f;" horiz-adv-x="990" 
d="M221 392q0 -144 63.5 -228.5t191.5 -84.5q129 0 192 84.5t63 228.5v429h114v-449q0 -115 -43 -204.5t-125 -140.5t-201 -51q-118 0 -200 51t-125 140.5t-43 204.5v449h113v-429zM476 928q-82 0 -132 45.5t-50 116.5q0 47 24.5 84t65.5 58t92 21t91.5 -21t64.5 -58t24 -84
q0 -71 -50.5 -116.5t-129.5 -45.5zM476 1000q37 0 62 24t25 66q0 43 -25 66.5t-62 23.5q-35 0 -62 -23.5t-27 -66.5q0 -42 27 -66t62 -24z" />
    <glyph glyph-name="Uhungarumlaut" unicode="&#x170;" horiz-adv-x="1230" 
d="M977 1320h112v-824q0 -163 -65.5 -279.5t-176.5 -178.5t-249 -62q-137 0 -249 62t-178 178.5t-66 279.5v824h112v-818q0 -127 51 -221t137.5 -146t192.5 -52t191.5 52t136.5 146t51 221v818zM303 1379l-50 49l265 269l77 -88zM651 1379l-50 49l266 269l76 -88z" />
    <glyph glyph-name="uhungarumlaut" unicode="&#x171;" horiz-adv-x="990" 
d="M221 392q0 -144 63.5 -228.5t191.5 -84.5q129 0 192 84.5t63 228.5v429h114v-449q0 -115 -43 -204.5t-125 -140.5t-201 -51q-118 0 -200 51t-125 140.5t-43 204.5v449h113v-429zM621 983l-50 55l265 285l77 -97zM277 983l-50 55l265 285l77 -97z" />
    <glyph glyph-name="Uogonek" unicode="&#x172;" horiz-adv-x="1227" 
d="M977 1320h112v-824q0 -163 -65.5 -279.5t-176.5 -178.5t-249 -62q-137 0 -249 62t-178 178.5t-66 279.5v824h112v-818q0 -127 51 -221t137.5 -146t192.5 -52t191.5 52t136.5 146t51 221v818zM644 -424q-42 0 -87.5 14.5t-76.5 52.5t-31 107q0 51 29 106t71.5 103t81.5 81
l53 -40q-30 -28 -63.5 -68.5t-57 -85.5t-23.5 -86q0 -61 37 -83t87 -22q44 0 79 23t53 48l67 -51q-23 -38 -86 -68.5t-133 -30.5z" />
    <glyph glyph-name="uogonek" unicode="&#x173;" horiz-adv-x="990" 
d="M221 392q0 -144 63.5 -228.5t191.5 -84.5q129 0 192 84.5t63 228.5v429h114v-449q0 -115 -43 -204.5t-125 -140.5t-201 -51q-118 0 -200 51t-125 140.5t-43 204.5v449h113v-429zM501 -424q-42 0 -87.5 14.5t-76.5 52.5t-31 107q0 51 29 106t71.5 103t81.5 81l53 -40
q-30 -28 -63.5 -68.5t-57 -85.5t-23.5 -86q0 -61 37 -83t87 -22q44 0 79 23t53 48l67 -51q-23 -38 -86 -68.5t-133 -30.5z" />
    <glyph glyph-name="Wcircumflex" unicode="&#x174;" horiz-adv-x="1563" 
d="M1192 0h-149l-306 1213h24l-306 -1213h-149l-266 1320h126l220 -1176h-2l304 1176h123l304 -1176h-3l221 1176h126zM546 1407l-61 81l274 201l276 -202l-61 -82l-215 157z" />
    <glyph glyph-name="wcircumflex" unicode="&#x175;" horiz-adv-x="1263" 
d="M613 679l-216 -679h-134l-201 821h122l156 -694l214 678h118l213 -678l158 694h122l-200 -821h-134zM828 926l-215 158l-213 -156l-62 82l275 201l275 -202z" />
    <glyph glyph-name="Ycircumflex" unicode="&#x176;" horiz-adv-x="1062" 
d="M453 475l-439 845h134l361 -711l359 711h134l-437 -845v-475h-112v475zM295 1407l-61 81l274 201l276 -202l-61 -82l-215 157z" />
    <glyph glyph-name="ycircumflex" unicode="&#x177;" horiz-adv-x="875" 
d="M422 110l302 711h118l-550 -1237h-118l186 416l-337 821h119zM635 926l-215 158l-213 -156l-62 82l275 201l275 -202z" />
    <glyph glyph-name="Ydieresis" unicode="&#x178;" horiz-adv-x="1062" 
d="M453 475l-439 845h134l361 -711l359 711h134l-437 -845v-475h-112v475zM700 1415q-36 0 -62 27t-26 61q0 36 26 63t62 27t62.5 -26.5t26.5 -63.5q0 -36 -26.5 -62t-62.5 -26zM316 1415q-36 0 -62 27t-26 61q0 36 26 63t62 27t62.5 -26.5t26.5 -63.5q0 -36 -26.5 -62
t-62.5 -26z" />
    <glyph glyph-name="Zacute" unicode="&#x179;" horiz-adv-x="1139" 
d="M146 1320h895l-782 -1215h739v-105h-945l787 1215h-694v105zM471 1376l-49 64l296 238l76 -98z" />
    <glyph glyph-name="zacute" unicode="&#x17a;" horiz-adv-x="816" 
d="M79 821h671l-529 -726h513v-95h-707l528 726h-476v95zM330 989l-49 64l294 238l79 -97z" />
    <glyph glyph-name="Zdotaccent" unicode="&#x17b;" horiz-adv-x="1139" 
d="M146 1320h895l-782 -1215h739v-105h-945l787 1215h-694v105zM547 1444q-37 0 -63 27t-26 62t26 62t63 27q35 0 62 -26.5t27 -62.5q0 -37 -27 -63t-62 -26z" />
    <glyph glyph-name="zdotaccent" unicode="&#x17c;" horiz-adv-x="816" 
d="M79 821h671l-529 -726h513v-95h-707l528 726h-476v95zM389 1030q-37 0 -63 26.5t-26 61.5q0 36 26 62.5t63 26.5q35 0 62 -26.5t27 -62.5t-27 -62t-62 -26z" />
    <glyph glyph-name="Zcaron" unicode="&#x17d;" horiz-adv-x="1139" 
d="M146 1320h895l-782 -1215h739v-105h-945l787 1215h-694v105zM548 1420l-241 175l54 72l187 -135l187 136l52 -72z" />
    <glyph glyph-name="zcaron" unicode="&#x17e;" horiz-adv-x="816" 
d="M79 821h671l-529 -726h513v-95h-707l528 726h-476v95zM400 971l-275 201l62 82l213 -155l215 156l60 -82z" />
    <glyph glyph-name="uni018F" unicode="&#x18f;" horiz-adv-x="1330" 
d="M631 -15q-133 0 -241.5 52.5t-185 145.5t-117.5 215t-41 262q0 6 0.5 14.5l1 17t1.5 12.5h1075q0 166 -60 286t-170 184.5t-259 64.5q-102 0 -180 -29.5t-133.5 -72t-88.5 -83.5t-44 -65l-94 73q26 54 100 120t187 114t255 48q178 0 314 -77t213 -224.5t77 -360.5
q0 -199 -73 -357t-210 -249t-327 -91zM632 87q119 0 210 45t152.5 120t93 168t31.5 191h-954q0 -95 30.5 -188t90.5 -169t147 -121.5t199 -45.5z" />
    <glyph glyph-name="florin" unicode="&#x192;" horiz-adv-x="630" 
d="M-97 -428q-74 0 -114 20t-45 24l59 93q5 -5 31.5 -20t77.5 -15q38 0 77 18.5t70.5 72.5t46.5 161l113 793h-183l15 102h182l34 240q17 128 67 201.5t116 105.5t130 32q74 0 114 -19.5t45 -24.5l-59 -93q-6 5 -31.5 20t-78.5 15q-37 0 -76 -18.5t-70.5 -72.5t-46.5 -162
l-30 -224h242l-15 -102h-243l-114 -808q-18 -128 -68 -202t-116 -105.5t-130 -31.5z" />
    <glyph glyph-name="Ohorn" unicode="&#x1a0;" horiz-adv-x="1426" 
d="M162 661q0 -163 68.5 -293.5t188.5 -206.5t274 -76q155 0 274 76t187 206.5t68 293.5t-68 293t-187 205.5t-274 75.5q-154 0 -274 -75.5t-188.5 -205.5t-68.5 -293zM46 661q0 144 49 268.5t136.5 217.5t205.5 145t256 52q139 0 256 -52t204.5 -145t135.5 -217.5
t48 -268.5q0 -145 -47.5 -269.5t-135 -218t-205 -145.5t-256.5 -52q-140 0 -258 52t-205 145.5t-135.5 218t-48.5 269.5zM1192 1096q-30 0 -57 9t-50 22v75q15 -13 40.5 -23t55.5 -10q62 0 93 42t31 93q0 44 -6 67.5t-18 51.5h90q8 -14 17.5 -43.5t9.5 -83.5q0 -51 -28 -97
t-74 -74.5t-104 -28.5z" />
    <glyph glyph-name="ohorn" unicode="&#x1a1;" horiz-adv-x="989" 
d="M477 -24q-123 0 -218.5 57.5t-150 155.5t-54.5 219t54.5 220.5t150 158t218.5 58.5t217.5 -58.5t148.5 -158t54 -220.5t-54 -219t-148.5 -155.5t-217.5 -57.5zM477 79q93 0 162.5 43t108 118t38.5 168q0 94 -38.5 169.5t-108 120t-162.5 44.5q-94 0 -164 -44.5t-109 -120
t-39 -169.5q0 -93 39 -168t109 -118t164 -43zM795 676q-30 0 -57 9t-50 22v75q15 -13 40.5 -23t55.5 -10q62 0 93 42t31 93q0 44 -6 67.5t-18 51.5h90q8 -14 17.5 -43.5t9.5 -83.5q0 -51 -28 -97t-74 -74.5t-104 -28.5z" />
    <glyph glyph-name="Uhorn" unicode="&#x1af;" horiz-adv-x="1392" 
d="M977 1320h112v-824q0 -163 -65.5 -279.5t-176.5 -178.5t-249 -62q-137 0 -249 62t-178 178.5t-66 279.5v824h112v-818q0 -127 51 -221t137.5 -146t192.5 -52t191.5 52t136.5 146t51 221v818zM1196 1214q-30 0 -57 9t-50 22v75q15 -13 40.5 -23t55.5 -10q62 0 93 42t31 93
q0 44 -6 67.5t-18 51.5h90q8 -14 17.5 -43.5t9.5 -83.5q0 -51 -28 -97t-74 -74.5t-104 -28.5z" />
    <glyph glyph-name="uhorn" unicode="&#x1b0;" horiz-adv-x="1148" 
d="M221 392q0 -144 63.5 -228.5t191.5 -84.5q129 0 192 84.5t63 228.5v429h114v-449q0 -115 -43 -204.5t-125 -140.5t-201 -51q-118 0 -200 51t-125 140.5t-43 204.5v449h113v-429zM952 715q-30 0 -57 9t-50 22v75q15 -13 40.5 -23t55.5 -10q62 0 93 42t31 93q0 44 -6 67.5
t-18 51.5h90q8 -14 17.5 -43.5t9.5 -83.5q0 -51 -28 -97t-74 -74.5t-104 -28.5z" />
    <glyph glyph-name="uni01C4" unicode="&#x1c4;" horiz-adv-x="2250" 
d="M115 1320h272q211 0 346 -84.5t199.5 -233.5t64.5 -341q0 -193 -64 -342t-199 -234t-347 -85h-272v1320zM226 1214v-1108h152q176 0 286.5 71t163 195.5t53.5 286.5t-51 287t-163.5 196.5t-288.5 71.5h-152zM1257 1320h895l-782 -1215h739v-105h-945l787 1215h-694v105z
M1675 1470l-275 201l62 82l213 -155l215 156l60 -82z" />
    <glyph glyph-name="uni01C5" unicode="&#x1c5;" horiz-adv-x="1927" 
d="M115 1320h272q211 0 346 -84.5t199.5 -233.5t64.5 -341q0 -193 -64 -342t-199 -234t-347 -85h-272v1320zM226 1214v-1108h152q176 0 286.5 71t163 195.5t53.5 286.5t-51 287t-163.5 196.5t-288.5 71.5h-152zM1190 821h671l-529 -726h513v-95h-707l528 726h-476v95z
M1518 971l-275 201l62 82l213 -155l215 156l60 -82z" />
    <glyph glyph-name="uni01C6" unicode="&#x1c6;" horiz-adv-x="1831" 
d="M482 -24q-111 0 -201 51.5t-143 149t-53 233.5t53 233.5t143 149.5t201 52q95 0 168 -35t116 -80.5t47 -78.5v725h116v-1376h-113v172q-7 -32 -50.5 -78t-116.5 -82t-167 -36zM496 76q87 0 159 41t115 116t43 177t-43 177t-115 116.5t-159 41.5q-78 0 -145.5 -40.5
t-109.5 -115.5t-42 -179t42 -179t109.5 -115t145.5 -40zM1095 821h671l-529 -726h513v-95h-707l528 726h-476v95zM1422 971l-275 201l62 82l213 -155l215 156l60 -82z" />
    <glyph glyph-name="uni01C7" unicode="&#x1c7;" horiz-adv-x="1647" 
d="M119 1320h112v-1215h538v-105h-650v1320zM1520 399q0 -130 -36.5 -225t-112.5 -146.5t-195 -51.5q-96 0 -159.5 27t-98 60t-42.5 50l57 95q11 -19 36 -48t73.5 -52t124.5 -23q91 0 144 43t75 115t22 159v918h112v-921z" />
    <glyph glyph-name="uni01C8" unicode="&#x1c8;" horiz-adv-x="1338" 
d="M119 1320h112v-1215h538v-105h-650v1320zM948 -440q-57 0 -96 13.5t-56 26.5l52 90q12 -10 29.5 -18t55.5 -8q52 0 78 32t35 89.5t9 133.5v902h114v-942q0 -97 -20.5 -169t-69 -111t-131.5 -39zM1118 1154q-37 0 -62.5 25.5t-25.5 61.5q0 24 12 44t32 32t44 12
q25 0 44.5 -12t31 -32t11.5 -44q0 -36 -25 -61.5t-62 -25.5z" />
    <glyph glyph-name="uni01C9" unicode="&#x1c9;" horiz-adv-x="849" 
d="M239 0h-116v1376h116v-1376zM459 -440q-57 0 -96 13.5t-56 26.5l52 90q12 -10 29.5 -18t55.5 -8q52 0 78 32t35 89.5t9 133.5v902h114v-942q0 -97 -20.5 -169t-69 -111t-131.5 -39zM629 1154q-37 0 -62.5 25.5t-25.5 61.5q0 24 12 44t32 32t44 12q25 0 44.5 -12t31 -32
t11.5 -44q0 -36 -25 -61.5t-62 -25.5z" />
    <glyph glyph-name="uni01CA" unicode="&#x1ca;" horiz-adv-x="2073" 
d="M229 1210l6 -1v-1209h-112v1320h165l754 -1209l-5 -1v1210h111v-1320h-166zM1947 399q0 -130 -36.5 -225t-112.5 -146.5t-195 -51.5q-96 0 -159.5 27t-98 60t-42.5 50l57 95q11 -19 36 -48t73.5 -52t124.5 -23q91 0 144 43t75 115t22 159v918h112v-921z" />
    <glyph glyph-name="uni01CB" unicode="&#x1cb;" horiz-adv-x="1765" 
d="M229 1210l6 -1v-1209h-112v1320h165l754 -1209l-5 -1v1210h111v-1320h-166zM1375 -440q-57 0 -96 13.5t-56 26.5l52 90q12 -10 29.5 -18t55.5 -8q52 0 78 32t35 89.5t9 133.5v902h114v-942q0 -97 -20.5 -169t-69 -111t-131.5 -39zM1545 1154q-37 0 -62.5 25.5t-25.5 61.5
q0 24 12 44t32 32t44 12q25 0 44.5 -12t31 -32t11.5 -44q0 -36 -25 -61.5t-62 -25.5z" />
    <glyph glyph-name="uni01CC" unicode="&#x1cc;" horiz-adv-x="1434" 
d="M525 845q78 0 152 -33.5t122 -106t48 -187.5v-518h-116v491q0 137 -64 197.5t-164 60.5q-66 0 -127.5 -38t-101 -104t-39.5 -148v-459h-114v821h114v-158q7 35 47.5 77.5t104 73.5t138.5 31zM1044 -440q-57 0 -96 13.5t-56 26.5l52 90q12 -10 29.5 -18t55.5 -8
q52 0 78 32t35 89.5t9 133.5v902h114v-942q0 -97 -20.5 -169t-69 -111t-131.5 -39zM1214 1154q-37 0 -62.5 25.5t-25.5 61.5q0 24 12 44t32 32t44 12q25 0 44.5 -12t31 -32t11.5 -44q0 -36 -25 -61.5t-62 -25.5z" />
    <glyph glyph-name="uni01CE" unicode="&#x1ce;" horiz-adv-x="1033" 
d="M785 0v172q-7 -27 -46.5 -74t-109 -84.5t-164.5 -37.5q-111 0 -204.5 51.5t-150 149t-56.5 233.5t56.5 233.5t150 149.5t204.5 52q95 0 164 -35.5t109.5 -81.5t45.5 -77v170h112v-821h-111zM167 410q0 -104 45 -179t116.5 -115t150.5 -40q87 0 155 41t107.5 116t39.5 177
t-39.5 177t-107.5 116.5t-155 41.5q-79 0 -150.5 -40.5t-116.5 -115.5t-45 -179zM503 971l-275 201l62 82l213 -155l215 156l60 -82z" />
    <glyph glyph-name="uni01D0" unicode="&#x1d0;" horiz-adv-x="359" 
d="M106 0v821h110v-821h-110zM178 971l-275 201l62 82l213 -155l215 156l60 -82z" />
    <glyph glyph-name="uni01D2" unicode="&#x1d2;" horiz-adv-x="989" 
d="M477 -24q-123 0 -218.5 57.5t-150 155.5t-54.5 219t54.5 220.5t150 158t218.5 58.5t217.5 -58.5t148.5 -158t54 -220.5t-54 -219t-148.5 -155.5t-217.5 -57.5zM477 79q93 0 162.5 43t108 118t38.5 168q0 94 -38.5 169.5t-108 120t-162.5 44.5q-94 0 -164 -44.5t-109 -120
t-39 -169.5q0 -93 39 -168t109 -118t164 -43zM492 971l-275 201l62 82l213 -155l215 156l60 -82z" />
    <glyph glyph-name="uni01D4" unicode="&#x1d4;" horiz-adv-x="990" 
d="M221 392q0 -144 63.5 -228.5t191.5 -84.5q129 0 192 84.5t63 228.5v429h114v-449q0 -115 -43 -204.5t-125 -140.5t-201 -51q-118 0 -200 51t-125 140.5t-43 204.5v449h113v-429zM492 971l-275 201l62 82l213 -155l215 156l60 -82z" />
    <glyph glyph-name="uni01D6" unicode="&#x1d6;" horiz-adv-x="990" 
d="M221 392q0 -144 63.5 -228.5t191.5 -84.5q129 0 192 84.5t63 228.5v429h114v-449q0 -115 -43 -204.5t-125 -140.5t-201 -51q-118 0 -200 51t-125 140.5t-43 204.5v449h113v-429zM682 1005q-36 0 -62 26.5t-26 61.5q0 36 26 62.5t62 26.5t62.5 -26.5t26.5 -62.5t-26.5 -62
t-62.5 -26zM298 1005q-36 0 -62 26.5t-26 61.5q0 36 26 62.5t62 26.5t62.5 -26.5t26.5 -62.5t-26.5 -62t-62.5 -26zM218 1290v90h558v-90h-558z" />
    <glyph glyph-name="uni01D8" unicode="&#x1d8;" horiz-adv-x="990" 
d="M221 392q0 -144 63.5 -228.5t191.5 -84.5q129 0 192 84.5t63 228.5v429h114v-449q0 -115 -43 -204.5t-125 -140.5t-201 -51q-118 0 -200 51t-125 140.5t-43 204.5v449h113v-429zM682 1005q-36 0 -62 26.5t-26 61.5q0 36 26 62.5t62 26.5t62.5 -26.5t26.5 -62.5t-26.5 -62
t-62.5 -26zM298 1005q-36 0 -62 26.5t-26 61.5q0 36 26 62.5t62 26.5t62.5 -26.5t26.5 -62.5t-26.5 -62t-62.5 -26zM355 1212l-49 64l294 237l79 -97z" />
    <glyph glyph-name="uni01DA" unicode="&#x1da;" horiz-adv-x="990" 
d="M221 392q0 -144 63.5 -228.5t191.5 -84.5q129 0 192 84.5t63 228.5v429h114v-449q0 -115 -43 -204.5t-125 -140.5t-201 -51q-118 0 -200 51t-125 140.5t-43 204.5v449h113v-429zM682 1005q-36 0 -62 26.5t-26 61.5q0 36 26 62.5t62 26.5t62.5 -26.5t26.5 -62.5t-26.5 -62
t-62.5 -26zM298 1005q-36 0 -62 26.5t-26 61.5q0 36 26 62.5t62 26.5t62.5 -26.5t26.5 -62.5t-26.5 -62t-62.5 -26zM492 1239l-275 201l62 82l213 -155l215 156l60 -82z" />
    <glyph glyph-name="uni01DC" unicode="&#x1dc;" horiz-adv-x="990" 
d="M221 392q0 -144 63.5 -228.5t191.5 -84.5q129 0 192 84.5t63 228.5v429h114v-449q0 -115 -43 -204.5t-125 -140.5t-201 -51q-118 0 -200 51t-125 140.5t-43 204.5v449h113v-429zM682 1005q-36 0 -62 26.5t-26 61.5q0 36 26 62.5t62 26.5t62.5 -26.5t26.5 -62.5t-26.5 -62
t-62.5 -26zM298 1005q-36 0 -62 26.5t-26 61.5q0 36 26 62.5t62 26.5t62.5 -26.5t26.5 -62.5t-26.5 -62t-62.5 -26zM630 1257l-323 205l77 97l296 -238z" />
    <glyph glyph-name="Gcaron" unicode="&#x1e6;" horiz-adv-x="1423" 
d="M671 707h663v-66q0 -137 -48.5 -257t-135.5 -212t-203.5 -144t-253.5 -52q-140 0 -258 54t-205 149t-135.5 218.5t-48.5 263.5q0 139 48.5 262.5t135.5 218.5t205 148.5t258 53.5q85 0 160 -19t139 -54t116.5 -82t91.5 -102l-95 -59q-69 93 -174 150t-238 57
q-115 0 -212.5 -45.5t-169 -124.5t-110.5 -183t-39 -221t39 -221t110.5 -184t169 -125.5t212.5 -45.5q111 0 204.5 41t162.5 113.5t109 167.5t45 203h-543v97zM694 1420l-241 175l54 72l187 -135l187 136l52 -72z" />
    <glyph glyph-name="gcaron" unicode="&#x1e7;" horiz-adv-x="1042" 
d="M489 -438q-102 0 -178 22t-127.5 58.5t-79.5 78.5l84 74q18 -25 50 -56t91 -53.5t157 -22.5t164.5 44t100.5 117t34 161v29h111v-38q0 -134 -54.5 -226.5t-147 -140t-205.5 -47.5zM785 0v172q-7 -27 -46.5 -74t-109 -84.5t-164.5 -37.5q-111 0 -204.5 51.5t-150 149
t-56.5 233.5t56.5 233.5t150 149.5t204.5 52q95 0 164 -35.5t109.5 -81.5t45.5 -77v170h112v-821h-111zM167 410q0 -104 45 -179t116.5 -115t150.5 -40q87 0 155 41t107.5 116t39.5 177t-39.5 177t-107.5 116.5t-155 41.5q-79 0 -150.5 -40.5t-116.5 -115.5t-45 -179z
M501 971l-275 201l62 82l213 -155l215 156l60 -82z" />
    <glyph glyph-name="uni01EA" unicode="&#x1ea;" horiz-adv-x="1426" 
d="M162 661q0 -163 68.5 -293.5t188.5 -206.5t274 -76q155 0 274 76t187 206.5t68 293.5t-68 293t-187 205.5t-274 75.5q-154 0 -274 -75.5t-188.5 -205.5t-68.5 -293zM46 661q0 144 49 268.5t136.5 217.5t205.5 145t256 52q139 0 256 -52t204.5 -145t135.5 -217.5
t48 -268.5q0 -145 -47.5 -269.5t-135 -218t-205 -145.5t-256.5 -52q-140 0 -258 52t-205 145.5t-135.5 218t-48.5 269.5zM818 -424q-42 0 -87.5 14.5t-76.5 52.5t-31 107q0 51 29 106t71.5 103t81.5 81l53 -40q-30 -28 -63.5 -68.5t-57 -86t-23.5 -86.5q0 -60 37.5 -82
t86.5 -22q44 0 79 23t53 48l67 -51q-23 -38 -86 -68.5t-133 -30.5z" />
    <glyph glyph-name="uni01EB" unicode="&#x1eb;" horiz-adv-x="989" 
d="M477 -24q-123 0 -218.5 57.5t-150 155.5t-54.5 219t54.5 220.5t150 158t218.5 58.5t217.5 -58.5t148.5 -158t54 -220.5t-54 -219t-148.5 -155.5t-217.5 -57.5zM477 79q93 0 162.5 43t108 118t38.5 168q0 94 -38.5 169.5t-108 120t-162.5 44.5q-94 0 -164 -44.5t-109 -120
t-39 -169.5q0 -93 39 -168t109 -118t164 -43zM582 -424q-42 0 -87.5 14.5t-76.5 52.5t-31 107q0 51 29 106t71.5 103t81.5 81l53 -40q-30 -28 -63.5 -68.5t-57 -86t-23.5 -86.5q0 -60 37.5 -82t86.5 -22q44 0 79 23t53 48l67 -51q-23 -38 -86 -68.5t-133 -30.5z" />
    <glyph glyph-name="Aringacute" unicode="&#x1fa;" horiz-adv-x="1141" 
d="M509 1320h123l473 -1320h-119l-123 342h-584l-124 -342h-121zM313 447h517l-258 732h-3zM570 1376q-79 0 -127 44t-48 113q0 68 51 113t124 45q74 0 124.5 -45t50.5 -113q0 -69 -49 -113t-126 -44zM570 1445q37 0 61.5 23.5t24.5 64.5q0 42 -24.5 65t-61.5 23
q-34 0 -60 -23t-26 -65q0 -41 26 -64.5t60 -23.5zM494 1747l-49 64l296 238l76 -98z" />
    <glyph glyph-name="aringacute" unicode="&#x1fb;" horiz-adv-x="1033" 
d="M785 0v172q-7 -27 -46.5 -74t-109 -84.5t-164.5 -37.5q-111 0 -204.5 51.5t-150 149t-56.5 233.5t56.5 233.5t150 149.5t204.5 52q95 0 164 -35.5t109.5 -81.5t45.5 -77v170h112v-821h-111zM167 410q0 -104 45 -179t116.5 -115t150.5 -40q87 0 155 41t107.5 116t39.5 177
t-39.5 177t-107.5 116.5t-155 41.5q-79 0 -150.5 -40.5t-116.5 -115.5t-45 -179zM487 928q-82 0 -132 45.5t-50 116.5q0 47 24.5 84t65.5 58t92 21t91.5 -21t64.5 -58t24 -84q0 -71 -50.5 -116.5t-129.5 -45.5zM487 1000q37 0 62 24t25 66q0 43 -25 66.5t-62 23.5
q-35 0 -62 -23.5t-27 -66.5q0 -42 27 -66t62 -24zM366 1270l-49 64l294 237l79 -97z" />
    <glyph glyph-name="AEacute" unicode="&#x1fc;" horiz-adv-x="1627" 
d="M757 1320h128l-1 -978h-553l-193 -342h-120zM378 440h433v742l-3 14zM801 1320h751v-105h-641v-501h625v-104h-625v-505h641v-105h-751v1320zM1058 1443l-49 64l294 237l79 -97z" />
    <glyph glyph-name="aeacute" unicode="&#x1fd;" horiz-adv-x="1446" 
d="M369 -24q-83 0 -153.5 29.5t-113 91t-42.5 154.5q0 80 44 139.5t116.5 93t159.5 33.5q69 0 120.5 -16.5t83 -36.5t41.5 -31v45q0 82 -23.5 135t-60.5 83t-77.5 42t-75.5 12q-80 0 -142.5 -32t-88.5 -63l-66 89q33 33 112 67t189 34q88 0 149.5 -32t98.5 -79.5t54 -94.5
q14 45 56.5 93t106 80.5t137.5 32.5q109 0 189.5 -48.5t125 -145t44.5 -241.5q0 -9 -1 -11.5t-1 -10.5h-612q0 -103 30 -173.5t88.5 -106t144.5 -35.5q70 0 122.5 29.5t86.5 66t46 56.5l79 -64q-25 -35 -72 -78.5t-115 -75t-155 -31.5q-72 0 -137.5 24.5t-113 65t-68.5 87.5
q-12 -30 -53 -72t-105.5 -73.5t-147.5 -31.5zM374 63q69 -1 122.5 28.5t84.5 75t31 92.5q0 81 -63 128.5t-155 47.5q-54 0 -107 -21.5t-88 -62.5t-35 -101q0 -81 60 -133.5t150 -53.5zM747 468h492q-2 29 -10.5 77t-33 96.5t-71 82t-123.5 33.5q-115 0 -179.5 -79
t-74.5 -210zM588 944l-49 64l294 237l79 -97z" />
    <glyph glyph-name="Oslashacute" unicode="&#x1fe;" horiz-adv-x="1396" 
d="M1294 1321l58 -52l-1276 -1300l-57 53zM162 661q0 -163 68.5 -293.5t188.5 -206.5t274 -76q155 0 274 76t187 206.5t68 293.5t-68 293t-187 205.5t-274 75.5q-154 0 -274 -75.5t-188.5 -205.5t-68.5 -293zM46 661q0 144 49 268.5t136.5 217.5t205.5 145t256 52
q139 0 256 -52t204.5 -145t135.5 -217.5t48 -268.5q0 -145 -47.5 -269.5t-135 -218t-205 -145.5t-256.5 -52q-140 0 -258 52t-205 145.5t-135.5 218t-48.5 269.5zM572 1443l-49 64l294 237l79 -97z" />
    <glyph glyph-name="oslashacute" unicode="&#x1ff;" horiz-adv-x="985" 
d="M860 853l52 -48l-819 -831l-52 48zM477 -24q-123 0 -218.5 57.5t-150 155.5t-54.5 219t54.5 220.5t150 158t218.5 58.5t217.5 -58.5t148.5 -158t54 -220.5t-54 -219t-148.5 -155.5t-217.5 -57.5zM477 79q93 0 162.5 43t108 118t38.5 168q0 94 -38.5 169.5t-108 120
t-162.5 44.5q-94 0 -164 -44.5t-109 -120t-39 -169.5q0 -93 39 -168t109 -118t164 -43zM354 944l-49 64l294 237l79 -97z" />
    <glyph glyph-name="uni0200" unicode="&#x200;" horiz-adv-x="1141" 
d="M509 1320h123l473 -1320h-119l-123 342h-584l-124 -342h-121zM313 447h517l-258 732h-3zM788 1372l-323 204l77 98l296 -238zM439 1372l-323 204l77 98l296 -238z" />
    <glyph glyph-name="uni0201" unicode="&#x201;" horiz-adv-x="1033" 
d="M785 0v172q-7 -27 -46.5 -74t-109 -84.5t-164.5 -37.5q-111 0 -204.5 51.5t-150 149t-56.5 233.5t56.5 233.5t150 149.5t204.5 52q95 0 164 -35.5t109.5 -81.5t45.5 -77v170h112v-821h-111zM167 410q0 -104 45 -179t116.5 -115t150.5 -40q87 0 155 41t107.5 116t39.5 177
t-39.5 177t-107.5 116.5t-155 41.5q-79 0 -150.5 -40.5t-116.5 -115.5t-45 -179zM698 989l-323 205l76 97l296 -238zM348 989l-323 205l77 97l296 -238z" />
    <glyph glyph-name="uni0202" unicode="&#x202;" horiz-adv-x="1141" 
d="M509 1320h123l473 -1320h-119l-123 342h-584l-124 -342h-121zM313 447h517l-258 732h-3zM422 1405l-103 25q5 43 35.5 88.5t85 76t130.5 30.5t130 -30t85 -75t36 -90l-102 -25q-5 29 -23 59t-49.5 51.5t-76.5 21.5t-76 -21.5t-48.5 -51.5t-23.5 -59z" />
    <glyph glyph-name="uni0203" unicode="&#x203;" horiz-adv-x="1033" 
d="M785 0v172q-7 -27 -46.5 -74t-109 -84.5t-164.5 -37.5q-111 0 -204.5 51.5t-150 149t-56.5 233.5t56.5 233.5t150 149.5t204.5 52q95 0 164 -35.5t109.5 -81.5t45.5 -77v170h112v-821h-111zM167 410q0 -104 45 -179t116.5 -115t150.5 -40q87 0 155 41t107.5 116t39.5 177
t-39.5 177t-107.5 116.5t-155 41.5q-79 0 -150.5 -40.5t-116.5 -115.5t-45 -179zM335 972l-109 27q5 45 36.5 91.5t88 78.5t135.5 32t135 -31t88 -77.5t38 -93.5l-108 -27q-5 29 -23.5 60.5t-51 53t-78.5 21.5t-78 -21.5t-49.5 -53t-23.5 -60.5z" />
    <glyph glyph-name="uni0204" unicode="&#x204;" horiz-adv-x="1042" 
d="M123 1320h752v-105h-641v-501h625v-104h-625v-505h641v-105h-752v1320zM719 1372l-323 204l77 98l296 -238zM370 1372l-323 204l77 98l296 -238z" />
    <glyph glyph-name="uni0205" unicode="&#x205;" horiz-adv-x="935" 
d="M166 397q1 -86 34.5 -161t101.5 -121t171 -46q84 0 140.5 27.5t90 64t47.5 65.5l71 -70q-37 -57 -85.5 -97.5t-114 -61.5t-155.5 -21q-131 0 -223.5 58.5t-141 159.5t-48.5 227q0 120 48 216t138.5 152t218.5 56q116 0 201.5 -51t133 -141.5t47.5 -210.5q0 -9 -0.5 -23
t-1.5 -22h-673zM727 492q-1 54 -26.5 114.5t-83 103t-157.5 42.5q-104 0 -165.5 -41.5t-89.5 -101.5t-34 -117h556zM667 989l-323 205l76 97l296 -238zM317 989l-323 205l77 97l296 -238z" />
    <glyph glyph-name="uni0206" unicode="&#x206;" horiz-adv-x="1042" 
d="M123 1320h752v-105h-641v-501h625v-104h-625v-505h641v-105h-752v1320zM354 1405l-103 25q5 43 35.5 88.5t85 76t130.5 30.5t130 -30t85 -75t36 -90l-102 -25q-5 29 -23 59t-49.5 51.5t-76.5 21.5t-76 -21.5t-48.5 -51.5t-23.5 -59z" />
    <glyph glyph-name="uni0207" unicode="&#x207;" horiz-adv-x="935" 
d="M166 397q1 -86 34.5 -161t101.5 -121t171 -46q84 0 140.5 27.5t90 64t47.5 65.5l71 -70q-37 -57 -85.5 -97.5t-114 -61.5t-155.5 -21q-131 0 -223.5 58.5t-141 159.5t-48.5 227q0 120 48 216t138.5 152t218.5 56q116 0 201.5 -51t133 -141.5t47.5 -210.5q0 -9 -0.5 -23
t-1.5 -22h-673zM727 492q-1 54 -26.5 114.5t-83 103t-157.5 42.5q-104 0 -165.5 -41.5t-89.5 -101.5t-34 -117h556zM304 972l-109 27q5 45 36.5 91.5t88 78.5t135.5 32t135 -31t88 -77.5t38 -93.5l-108 -27q-5 29 -23.5 60.5t-51 53t-78.5 21.5t-78 -21.5t-49.5 -53
t-23.5 -60.5z" />
    <glyph glyph-name="uni0208" unicode="&#x208;" horiz-adv-x="433" 
d="M140 1320h113v-1320h-113v1320zM412 1372l-323 204l77 98l296 -238zM63 1372l-323 204l77 98l296 -238z" />
    <glyph glyph-name="uni0209" unicode="&#x209;" horiz-adv-x="359" 
d="M106 0v821h110v-821h-110zM373 989l-323 205l76 97l296 -238zM23 989l-323 205l77 97l296 -238z" />
    <glyph glyph-name="uni020A" unicode="&#x20a;" horiz-adv-x="433" 
d="M140 1320h113v-1320h-113v1320zM47 1405l-103 25q5 43 35.5 88.5t85 76t130.5 30.5t130 -30t85 -75t36 -90l-102 -25q-5 29 -23 59t-49.5 51.5t-76.5 21.5t-76 -21.5t-48.5 -51.5t-23.5 -59z" />
    <glyph glyph-name="uni020B" unicode="&#x20b;" horiz-adv-x="359" 
d="M106 0v821h110v-821h-110zM9 972l-109 27q5 45 36.5 91.5t88 78.5t135.5 32t135 -31t88 -77.5t38 -93.5l-108 -27q-5 29 -23.5 60.5t-51 53t-78.5 21.5t-78 -21.5t-49.5 -53t-23.5 -60.5z" />
    <glyph glyph-name="uni020C" unicode="&#x20c;" horiz-adv-x="1426" 
d="M162 661q0 -163 68.5 -293.5t188.5 -206.5t274 -76q155 0 274 76t187 206.5t68 293.5t-68 293t-187 205.5t-274 75.5q-154 0 -274 -75.5t-188.5 -205.5t-68.5 -293zM46 661q0 144 49 268.5t136.5 217.5t205.5 145t256 52q139 0 256 -52t204.5 -145t135.5 -217.5
t48 -268.5q0 -145 -47.5 -269.5t-135 -218t-205 -145.5t-256.5 -52q-140 0 -258 52t-205 145.5t-135.5 218t-48.5 269.5zM910 1372l-323 204l77 98l296 -238zM561 1372l-323 204l77 98l296 -238z" />
    <glyph glyph-name="uni020D" unicode="&#x20d;" horiz-adv-x="989" 
d="M477 -24q-123 0 -218.5 57.5t-150 155.5t-54.5 219t54.5 220.5t150 158t218.5 58.5t217.5 -58.5t148.5 -158t54 -220.5t-54 -219t-148.5 -155.5t-217.5 -57.5zM477 79q93 0 162.5 43t108 118t38.5 168q0 94 -38.5 169.5t-108 120t-162.5 44.5q-94 0 -164 -44.5t-109 -120
t-39 -169.5q0 -93 39 -168t109 -118t164 -43zM687 989l-323 205l76 97l296 -238zM337 989l-323 205l77 97l296 -238z" />
    <glyph glyph-name="uni020E" unicode="&#x20e;" horiz-adv-x="1426" 
d="M162 661q0 -163 68.5 -293.5t188.5 -206.5t274 -76q155 0 274 76t187 206.5t68 293.5t-68 293t-187 205.5t-274 75.5q-154 0 -274 -75.5t-188.5 -205.5t-68.5 -293zM46 661q0 144 49 268.5t136.5 217.5t205.5 145t256 52q139 0 256 -52t204.5 -145t135.5 -217.5
t48 -268.5q0 -145 -47.5 -269.5t-135 -218t-205 -145.5t-256.5 -52q-140 0 -258 52t-205 145.5t-135.5 218t-48.5 269.5zM541 1471l-109 27q5 45 36.5 91.5t88 78.5t135.5 32t135 -31t88 -77.5t38 -93.5l-108 -27q-5 29 -23.5 60.5t-51 53t-78.5 21.5t-78 -21.5t-49.5 -53
t-23.5 -60.5z" />
    <glyph glyph-name="uni020F" unicode="&#x20f;" horiz-adv-x="989" 
d="M477 -24q-123 0 -218.5 57.5t-150 155.5t-54.5 219t54.5 220.5t150 158t218.5 58.5t217.5 -58.5t148.5 -158t54 -220.5t-54 -219t-148.5 -155.5t-217.5 -57.5zM477 79q93 0 162.5 43t108 118t38.5 168q0 94 -38.5 169.5t-108 120t-162.5 44.5q-94 0 -164 -44.5t-109 -120
t-39 -169.5q0 -93 39 -168t109 -118t164 -43zM323 972l-109 27q5 45 36.5 91.5t88 78.5t135.5 32t135 -31t88 -77.5t38 -93.5l-108 -27q-5 29 -23.5 60.5t-51 53t-78.5 21.5t-78 -21.5t-49.5 -53t-23.5 -60.5z" />
    <glyph glyph-name="uni0210" unicode="&#x210;" horiz-adv-x="1074" 
d="M125 1320h426q103 0 189.5 -43t139 -126t52.5 -205q0 -121 -50.5 -201.5t-121 -121t-131.5 -42.5l330 -581h-128l-316 573h-278v-573h-112v1320zM237 664h276q135 0 219.5 68t84.5 212q0 145 -84 210.5t-220 65.5h-276v-556zM713 1372l-323 204l77 98l296 -238zM364 1372
l-323 204l77 98l296 -238z" />
    <glyph glyph-name="uni0211" unicode="&#x211;" horiz-adv-x="657" 
d="M236 0h-112v821h112v-148h-5q4 26 36.5 66.5t88.5 73t132 32.5q58 0 99.5 -14.5t57.5 -29.5l-50 -97q-13 13 -48.5 26t-85.5 13q-69 0 -119.5 -46t-78 -109.5t-27.5 -116.5v-471zM542 989l-323 205l76 97l296 -238zM192 989l-323 205l77 97l296 -238z" />
    <glyph glyph-name="uni0212" unicode="&#x212;" horiz-adv-x="1074" 
d="M125 1320h426q103 0 189.5 -43t139 -126t52.5 -205q0 -121 -50.5 -201.5t-121 -121t-131.5 -42.5l330 -581h-128l-316 573h-278v-573h-112v1320zM237 664h276q135 0 219.5 68t84.5 212q0 145 -84 210.5t-220 65.5h-276v-556zM347 1405l-103 25q5 43 35.5 88.5t85 76
t130.5 30.5t130 -30t85 -75t36 -90l-102 -25q-5 29 -23 59t-49.5 51.5t-76.5 21.5t-76 -21.5t-48.5 -51.5t-23.5 -59z" />
    <glyph glyph-name="uni0213" unicode="&#x213;" horiz-adv-x="657" 
d="M236 0h-112v821h112v-148h-5q4 26 36.5 66.5t88.5 73t132 32.5q58 0 99.5 -14.5t57.5 -29.5l-50 -97q-13 13 -48.5 26t-85.5 13q-69 0 -119.5 -46t-78 -109.5t-27.5 -116.5v-471zM178 972l-109 27q5 45 36.5 91.5t88 78.5t135.5 32t135 -31t88 -77.5t38 -93.5l-108 -27
q-5 29 -23.5 60.5t-51 53t-78.5 21.5t-78 -21.5t-49.5 -53t-23.5 -60.5z" />
    <glyph glyph-name="uni0214" unicode="&#x214;" horiz-adv-x="1230" 
d="M977 1320h112v-824q0 -163 -65.5 -279.5t-176.5 -178.5t-249 -62q-137 0 -249 62t-178 178.5t-66 279.5v824h112v-818q0 -127 51 -221t137.5 -146t192.5 -52t191.5 52t136.5 146t51 221v818zM815 1372l-323 204l77 98l296 -238zM466 1372l-323 204l77 98l296 -238z" />
    <glyph glyph-name="uni0215" unicode="&#x215;" horiz-adv-x="990" 
d="M221 392q0 -144 63.5 -228.5t191.5 -84.5q129 0 192 84.5t63 228.5v429h114v-449q0 -115 -43 -204.5t-125 -140.5t-201 -51q-118 0 -200 51t-125 140.5t-43 204.5v449h113v-429zM687 989l-323 205l76 97l296 -238zM337 989l-323 205l77 97l296 -238z" />
    <glyph glyph-name="uni0216" unicode="&#x216;" horiz-adv-x="1230" 
d="M977 1320h112v-824q0 -163 -65.5 -279.5t-176.5 -178.5t-249 -62q-137 0 -249 62t-178 178.5t-66 279.5v824h112v-818q0 -127 51 -221t137.5 -146t192.5 -52t191.5 52t136.5 146t51 221v818zM450 1405l-103 25q5 43 35.5 88.5t85 76t130.5 30.5t130 -30t85 -75t36 -90
l-102 -25q-5 29 -23 59t-49.5 51.5t-76.5 21.5t-76 -21.5t-48.5 -51.5t-23.5 -59z" />
    <glyph glyph-name="uni0217" unicode="&#x217;" horiz-adv-x="990" 
d="M221 392q0 -144 63.5 -228.5t191.5 -84.5q129 0 192 84.5t63 228.5v429h114v-449q0 -115 -43 -204.5t-125 -140.5t-201 -51q-118 0 -200 51t-125 140.5t-43 204.5v449h113v-429zM324 972l-109 27q5 45 36.5 91.5t88 78.5t135.5 32t135 -31t88 -77.5t38 -93.5l-108 -27
q-5 29 -23.5 60.5t-51 53t-78.5 21.5t-78 -21.5t-49.5 -53t-23.5 -60.5z" />
    <glyph glyph-name="uni0218" unicode="&#x218;" horiz-adv-x="1027" 
d="M502 1344q110 0 187.5 -26t121.5 -54.5t51 -36.5l-62 -94q-15 13 -52.5 38t-96.5 45.5t-140 20.5q-129 0 -203 -54t-74 -150q0 -65 39 -113.5t106.5 -87.5t152.5 -78q67 -30 134.5 -67t124 -87t91 -116t34.5 -153q0 -79 -32 -144t-90.5 -112.5t-138.5 -73t-176 -25.5
q-114 0 -207 29.5t-150 61t-63 37.5l67 99q12 -10 42.5 -29.5t76.5 -40.5t106.5 -35t131.5 -14q154 0 233.5 72t79.5 181q0 85 -51 145.5t-131 106.5t-167 87q-92 43 -167 92t-120 114t-45 156q0 89 51.5 158t139 108.5t196.5 39.5zM443 -443l-46 44q34 16 72.5 49t47.5 74
q-17 -8 -39 -8q-36 0 -61.5 26.5t-25.5 61.5q0 44 28 71t70 27t72.5 -30t30.5 -78q0 -53 -21 -99t-54.5 -81t-73.5 -57z" />
    <glyph glyph-name="uni0219" unicode="&#x219;" horiz-adv-x="779" 
d="M394 845q57 0 107.5 -12.5t88.5 -31t57 -33.5l-55 -79q-21 20 -73 42.5t-117 22.5q-80 0 -136.5 -33t-56.5 -96q0 -61 57 -97t150 -59q71 -18 129.5 -45t93.5 -73.5t35 -123.5q0 -66 -27 -113.5t-73.5 -77.5t-105.5 -45t-124 -15q-67 0 -124 15t-97.5 36t-61.5 39l57 89
q26 -27 85.5 -55.5t139.5 -28.5q93 0 153.5 43t60.5 113q0 51 -29 82t-76 49.5t-100 31.5q-51 13 -97.5 31.5t-82.5 46.5t-56.5 67.5t-20.5 92.5q0 66 41 114.5t109.5 75.5t148.5 27zM341 -420l-46 44q34 16 72 49t47 74q-17 -8 -38 -8q-36 0 -61.5 26.5t-25.5 61.5
q0 44 28 71t70 27t72.5 -30t30.5 -78q0 -53 -21 -99t-55 -81t-73 -57z" />
    <glyph glyph-name="uni021A" unicode="&#x21a;" horiz-adv-x="974" 
d="M408 1215h-376v105h865v-105h-376v-1215h-113v1215zM416 -443l-46 44q34 16 72.5 49t47.5 74q-17 -8 -39 -8q-36 0 -61.5 26.5t-25.5 61.5q0 44 28 71t70 27t72.5 -30t30.5 -78q0 -53 -21 -99t-54.5 -81t-73.5 -57z" />
    <glyph glyph-name="uni021B" unicode="&#x21b;" horiz-adv-x="633" 
d="M45 821h171v337h113v-337h224v-103h-224v-487q0 -82 30 -117t75 -35q43 0 65 15t26 20l53 -87q-6 -5 -27 -17.5t-55 -23t-82 -10.5q-83 0 -140.5 53.5t-57.5 171.5v517h-171v103zM379 -428l-46 44q34 16 72 49t47 74q-17 -8 -38 -8q-36 0 -61.5 26.5t-25.5 61.5
q0 44 28 71t70 27t72.5 -30t30.5 -78q0 -53 -21 -99t-55 -81t-73 -57z" />
    <glyph glyph-name="uni022A" unicode="&#x22a;" horiz-adv-x="1426" 
d="M162 661q0 -163 68.5 -293.5t188.5 -206.5t274 -76q155 0 274 76t187 206.5t68 293.5t-68 293t-187 205.5t-274 75.5q-154 0 -274 -75.5t-188.5 -205.5t-68.5 -293zM46 661q0 144 49 268.5t136.5 217.5t205.5 145t256 52q139 0 256 -52t204.5 -145t135.5 -217.5
t48 -268.5q0 -145 -47.5 -269.5t-135 -218t-205 -145.5t-256.5 -52q-140 0 -258 52t-205 145.5t-135.5 218t-48.5 269.5zM884 1415q-36 0 -62 27t-26 61q0 36 26 63t62 27t62.5 -26.5t26.5 -63.5q0 -36 -26.5 -62t-62.5 -26zM500 1415q-36 0 -62 27t-26 61q0 36 26 63t62 27
t62.5 -26.5t26.5 -63.5q0 -36 -26.5 -62t-62.5 -26zM414 1735v90h557v-90h-557z" />
    <glyph glyph-name="uni022B" unicode="&#x22b;" horiz-adv-x="989" 
d="M477 -24q-123 0 -218.5 57.5t-150 155.5t-54.5 219t54.5 220.5t150 158t218.5 58.5t217.5 -58.5t148.5 -158t54 -220.5t-54 -219t-148.5 -155.5t-217.5 -57.5zM477 79q93 0 162.5 43t108 118t38.5 168q0 94 -38.5 169.5t-108 120t-162.5 44.5q-94 0 -164 -44.5t-109 -120
t-39 -169.5q0 -93 39 -168t109 -118t164 -43zM681 1005q-36 0 -62 26.5t-26 61.5q0 36 26 62.5t62 26.5t62.5 -26.5t26.5 -62.5t-26.5 -62t-62.5 -26zM297 1005q-36 0 -62 26.5t-26 61.5q0 36 26 62.5t62 26.5t62.5 -26.5t26.5 -62.5t-26.5 -62t-62.5 -26zM213 1290v90h558
v-90h-558z" />
    <glyph glyph-name="uni022C" unicode="&#x22c;" horiz-adv-x="1426" 
d="M162 661q0 -163 68.5 -293.5t188.5 -206.5t274 -76q155 0 274 76t187 206.5t68 293.5t-68 293t-187 205.5t-274 75.5q-154 0 -274 -75.5t-188.5 -205.5t-68.5 -293zM46 661q0 144 49 268.5t136.5 217.5t205.5 145t256 52q139 0 256 -52t204.5 -145t135.5 -217.5
t48 -268.5q0 -145 -47.5 -269.5t-135 -218t-205 -145.5t-256.5 -52q-140 0 -258 52t-205 145.5t-135.5 218t-48.5 269.5zM394 1515q10 39 33.5 80t60 70t84.5 29q60 0 99.5 -19t74 -38.5t80.5 -19.5q38 0 59.5 26.5t28.5 50.5h109q-11 -38 -35 -80t-61 -70.5t-85 -28.5
q-61 0 -101.5 19t-73.5 38t-71 19q-35 0 -59.5 -26t-32.5 -50h-110zM434 1817v90h558v-90h-558z" />
    <glyph glyph-name="uni022D" unicode="&#x22d;" horiz-adv-x="989" 
d="M477 -24q-123 0 -218.5 57.5t-150 155.5t-54.5 219t54.5 220.5t150 158t218.5 58.5t217.5 -58.5t148.5 -158t54 -220.5t-54 -219t-148.5 -155.5t-217.5 -57.5zM477 79q93 0 162.5 43t108 118t38.5 168q0 94 -38.5 169.5t-108 120t-162.5 44.5q-94 0 -164 -44.5t-109 -120
t-39 -169.5q0 -93 39 -168t109 -118t164 -43zM176 1016q10 39 33.5 80t60 70t84.5 29q60 0 99.5 -19t74 -38.5t80.5 -19.5q38 0 59.5 26.5t28.5 50.5h109q-11 -38 -35 -80t-61 -70.5t-85 -28.5q-61 0 -101.5 19t-73.5 38t-71 19q-35 0 -59.5 -26t-32.5 -50h-110zM216 1318
v90h558v-90h-558z" />
    <glyph glyph-name="uni0230" unicode="&#x230;" horiz-adv-x="1426" 
d="M162 661q0 -163 68.5 -293.5t188.5 -206.5t274 -76q155 0 274 76t187 206.5t68 293.5t-68 293t-187 205.5t-274 75.5q-154 0 -274 -75.5t-188.5 -205.5t-68.5 -293zM46 661q0 144 49 268.5t136.5 217.5t205.5 145t256 52q139 0 256 -52t204.5 -145t135.5 -217.5
t48 -268.5q0 -145 -47.5 -269.5t-135 -218t-205 -145.5t-256.5 -52q-140 0 -258 52t-205 145.5t-135.5 218t-48.5 269.5zM692 1444q-37 0 -63 27t-26 62t26 62t63 27q35 0 62 -26.5t27 -62.5q0 -37 -27 -63t-62 -26zM414 1746v90h557v-90h-557z" />
    <glyph glyph-name="uni0231" unicode="&#x231;" horiz-adv-x="989" 
d="M477 -24q-123 0 -218.5 57.5t-150 155.5t-54.5 219t54.5 220.5t150 158t218.5 58.5t217.5 -58.5t148.5 -158t54 -220.5t-54 -219t-148.5 -155.5t-217.5 -57.5zM477 79q93 0 162.5 43t108 118t38.5 168q0 94 -38.5 169.5t-108 120t-162.5 44.5q-94 0 -164 -44.5t-109 -120
t-39 -169.5q0 -93 39 -168t109 -118t164 -43zM491 1030q-37 0 -63 26.5t-26 61.5q0 36 26 62.5t63 26.5q35 0 62 -26.5t27 -62.5t-27 -62t-62 -26zM229 1319v90h558v-90h-558z" />
    <glyph glyph-name="uni0232" unicode="&#x232;" horiz-adv-x="1062" 
d="M453 475l-439 845h134l361 -711l359 711h134l-437 -845v-475h-112v475zM230 1462v90h557v-90h-557z" />
    <glyph glyph-name="uni0233" unicode="&#x233;" horiz-adv-x="875" 
d="M422 110l302 711h118l-550 -1237h-118l186 416l-337 821h119zM158 1065v90h558v-90h-558z" />
    <glyph glyph-name="uni0237" unicode="&#x237;" horiz-adv-x="450" 
d="M60 -440q-57 0 -96 13.5t-56 26.5l52 90q12 -10 29.5 -18t55.5 -8q52 0 78 32t35 89.5t9 133.5v902h114v-942q0 -97 -20.5 -169t-69 -111t-131.5 -39z" />
    <glyph glyph-name="uni0259" unicode="&#x259;" horiz-adv-x="935" 
d="M476 -24q-116 0 -202 51t-133.5 141.5t-47.5 210.5q0 9 1 20.5t1 18.5h672q-1 86 -34.5 161.5t-101 123t-169.5 47.5q-84 0 -140 -27t-89.5 -63.5t-48.5 -65.5l-71 72q37 57 85 97.5t113.5 61t156.5 20.5q132 0 224 -58.5t140.5 -159t48.5 -227.5q0 -120 -47.5 -216
t-138.5 -152t-219 -56zM475 68q104 0 165 41t89 104t33 126h-553q2 -60 27 -123t82.5 -105.5t156.5 -42.5z" />
    <glyph glyph-name="uni02BC" unicode="&#x2bc;" horiz-adv-x="529" 
d="M158 882q-10 65 -19 129.5t-14.5 116t-5.5 76.5q0 40 21 66.5t59 26.5q39 0 60 -27t21 -66q0 -40 -18.5 -130.5t-42.5 -191.5h-61z" />
    <glyph glyph-name="circumflex" unicode="&#x2c6;" horiz-adv-x="998" 
d="M269 1036l-62 82l275 201l275 -202l-60 -83l-215 158z" />
    <glyph glyph-name="caron" unicode="&#x2c7;" horiz-adv-x="998" 
d="M482 971l-275 201l62 82l213 -155l215 156l60 -82z" />
    <glyph glyph-name="uni02C9" unicode="&#x2c9;" horiz-adv-x="945" 
d="M175 1065v90h558v-90h-558z" />
    <glyph glyph-name="breve" unicode="&#x2d8;" horiz-adv-x="627" 
d="M314 1037q-78 0 -134.5 31t-89 77t-37.5 94l108 27q5 -29 23.5 -61t50.5 -53.5t79 -21.5q46 0 78 21.5t50 53.5t23 61l109 -27q-5 -45 -37 -92t-88.5 -78.5t-134.5 -31.5z" />
    <glyph glyph-name="dotaccent" unicode="&#x2d9;" horiz-adv-x="585" 
d="M274 1030q-37 0 -63 26.5t-26 61.5q0 36 26 62.5t63 26.5q35 0 62 -26.5t27 -62.5t-27 -62t-62 -26z" />
    <glyph glyph-name="ring" unicode="&#x2da;" horiz-adv-x="806" 
d="M385 1009q-82 0 -132 45.5t-50 116.5q0 47 24.5 84t65.5 58t92 21t91.5 -21t64.5 -58t24 -84q0 -71 -50.5 -116.5t-129.5 -45.5zM385 1081q37 0 62 24t25 66q0 43 -25 66.5t-62 23.5q-35 0 -62 -23.5t-27 -66.5q0 -42 27 -66t62 -24z" />
    <glyph glyph-name="ogonek" unicode="&#x2db;" horiz-adv-x="712" 
d="M329 -424q-42 0 -87.5 14.5t-76.5 52.5t-31 107q0 51 29 106t71.5 103t81.5 81l53 -40q-30 -28 -63.5 -68.5t-57 -85.5t-23.5 -86q0 -61 37 -83t87 -22q44 0 79 23t53 48l67 -51q-23 -38 -86 -68.5t-133 -30.5z" />
    <glyph glyph-name="tilde" unicode="&#x2dc;" horiz-adv-x="1030" 
d="M182 1033q10 39 33.5 80t60 70t84.5 29q60 0 99.5 -19t74 -38.5t80.5 -19.5q38 0 59.5 26.5t28.5 50.5h109q-11 -38 -35 -80t-61 -70.5t-85 -28.5q-61 0 -101.5 19t-73.5 38t-71 19q-35 0 -59.5 -26t-32.5 -50h-110z" />
    <glyph glyph-name="hungarumlaut" unicode="&#x2dd;" horiz-adv-x="1037" 
d="M244 983l-50 55l265 285l77 -97zM588 983l-50 55l265 285l77 -97z" />
    <glyph glyph-name="gravecomb" unicode="&#x300;" 
d="M491 989l-323 205l77 97l296 -238z" />
    <glyph glyph-name="acutecomb" unicode="&#x301;" 
d="M334 961l-49 64l294 237l79 -97z" />
    <glyph glyph-name="uni0302" unicode="&#x302;" 
d="M713 1034l-215 158l-213 -156l-62 82l275 201l275 -202z" />
    <glyph glyph-name="tildecomb" unicode="&#x303;" 
d="M198 1016q10 39 33.5 80t60 70t84.5 29q60 0 99.5 -19t74 -38.5t80.5 -19.5q38 0 59.5 26.5t28.5 50.5h109q-11 -38 -35 -80t-61 -70.5t-85 -28.5q-61 0 -101.5 19t-73.5 38t-71 19q-35 0 -59.5 -26t-32.5 -50h-110z" />
    <glyph glyph-name="uni0304" unicode="&#x304;" 
d="M191 1065v90h558v-90h-558z" />
    <glyph glyph-name="uni0306" unicode="&#x306;" 
d="M316 1147q-78 0 -134.5 31t-88.5 77.5t-38 93.5l108 27q6 -29 24 -60.5t50.5 -53.5t78.5 -22t78 22t50.5 53.5t22.5 60.5l109 -27q-5 -45 -36.5 -92t-88 -78.5t-135.5 -31.5z" />
    <glyph glyph-name="uni0307" unicode="&#x307;" 
d="M290 1030q-37 0 -63 26.5t-26 61.5q0 36 26 62.5t63 26.5q35 0 62 -26.5t27 -62.5t-27 -62t-62 -26z" />
    <glyph glyph-name="uni0308" unicode="&#x308;" 
d="M671 1030q-36 0 -62 26.5t-26 61.5q0 36 26 62.5t62 26.5t62.5 -26.5t26.5 -62.5t-26.5 -62t-62.5 -26zM287 1030q-36 0 -62 26.5t-26 61.5q0 36 26 62.5t62 26.5t62.5 -26.5t26.5 -62.5t-26.5 -62t-62.5 -26z" />
    <glyph glyph-name="hookabovecomb" unicode="&#x309;" 
d="M528 875l-45 65q27 7 69 28.5t75 59t33 91.5q0 55 -22.5 78.5t-55 29.5t-63.5 6q-43 0 -95 -16.5t-82 -31.5v83q18 12 68 30t132 18q54 0 101.5 -16.5t77.5 -57t30 -112.5q0 -56 -22 -98.5t-57 -72.5t-73 -50.5t-71 -33.5z" />
    <glyph glyph-name="uni030A" unicode="&#x30a;" 
d="M401 1009q-82 0 -132 45.5t-50 116.5q0 47 24.5 84t65.5 58t92 21t91.5 -21t64.5 -58t24 -84q0 -71 -50.5 -116.5t-129.5 -45.5zM401 1081q37 0 62 24t25 66q0 43 -25 66.5t-62 23.5q-35 0 -62 -23.5t-27 -66.5q0 -42 27 -66t62 -24z" />
    <glyph glyph-name="uni030B" unicode="&#x30b;" 
d="M604 983l-50 55l265 285l77 -97zM260 983l-50 55l265 285l77 -97z" />
    <glyph glyph-name="uni030C" unicode="&#x30c;" 
d="M498 971l-275 201l62 82l213 -155l215 156l60 -82z" />
    <glyph glyph-name="uni030F" unicode="&#x30f;" 
d="M866 989l-323 205l76 97l296 -238zM516 989l-323 205l77 97l296 -238z" />
    <glyph glyph-name="uni0311" unicode="&#x311;" 
d="M331 972l-109 27q5 45 36.5 91.5t88 78.5t135.5 32t135 -31t88 -77.5t38 -93.5l-108 -27q-5 29 -23.5 60.5t-51 53t-78.5 21.5t-78 -21.5t-49.5 -53t-23.5 -60.5z" />
    <glyph glyph-name="uni0312" unicode="&#x312;" 
d="M242 953q-37 0 -63 26.5t-26 67.5q0 46 18 85.5t47.5 70.5t63.5 49l40 -38q-29 -14 -62.5 -42.5t-41.5 -65.5q15 8 33 8q32 -1 54 -24t22 -53q0 -37 -24 -60.5t-61 -23.5z" />
    <glyph glyph-name="uni031B" unicode="&#x31b;" 
d="M501 958q-30 0 -57 9t-50 22v75q15 -13 40.5 -23t55.5 -10q62 0 93 42t31 93q0 44 -6 67.5t-18 51.5h90q8 -14 17.5 -43.5t9.5 -83.5q0 -51 -28 -97t-74 -74.5t-104 -28.5z" />
    <glyph glyph-name="dotbelowcomb" unicode="&#x323;" 
d="M285 -304q-34 0 -58 25t-24 57q0 33 24 58t58 25q32 0 57 -24.5t25 -58.5q0 -33 -25 -57.5t-57 -24.5z" />
    <glyph glyph-name="uni0324" unicode="&#x324;" 
d="M657 -244q-35 0 -60.5 26t-25.5 60t25.5 60t60.5 26t61 -25.5t26 -60.5q0 -36 -26 -61t-61 -25zM279 -244q-35 0 -60 26t-25 60t25 60t60 26t61 -25.5t26 -60.5q0 -36 -26 -61t-61 -25z" />
    <glyph glyph-name="uni0326" unicode="&#x326;" 
d="M225 -420l-46 44q34 16 72 49t47 74q-17 -8 -38 -8q-36 0 -61.5 26.5t-25.5 61.5q0 44 28 71t70 27t72.5 -30t30.5 -78q0 -53 -21 -99t-55 -81t-73 -57z" />
    <glyph glyph-name="uni0327" unicode="&#x327;" 
d="M394 -422q-64 0 -117.5 20t-78.5 38l55 66q19 -15 56.5 -31t79.5 -16q54 0 91 23t37 62q0 40 -27 59t-72 19q-31 0 -57.5 -4.5t-38.5 -9.5l-36 20l76 218l66 -30l-51 -145q44 13 98.5 6t94 -36.5t39.5 -86.5t-32.5 -95.5t-82 -57.5t-100.5 -19z" />
    <glyph glyph-name="uni0328" unicode="&#x328;" 
d="M345 -424q-42 0 -87.5 14.5t-76.5 52.5t-31 107q0 51 29 106t71.5 103t81.5 81l53 -40q-30 -28 -63.5 -68.5t-57 -86t-23.5 -86.5q0 -60 37.5 -82t86.5 -22q44 0 79 23t53 48l67 -51q-23 -38 -86 -68.5t-133 -30.5z" />
    <glyph glyph-name="uni032E" unicode="&#x32e;" 
d="M483 -327q-77 0 -133.5 31t-89 77.5t-37.5 93.5l107 27q6 -29 24 -60.5t50.5 -53.5t78.5 -22t78 22t50.5 53.5t23.5 60.5l109 -27q-6 -45 -37.5 -92t-88 -78.5t-135.5 -31.5z" />
    <glyph glyph-name="uni0331" unicode="&#x331;" 
d="M185 -218v90h558v-90h-558z" />
    <glyph glyph-name="Wgrave" unicode="&#x1e80;" horiz-adv-x="1563" 
d="M1192 0h-149l-306 1213h24l-306 -1213h-149l-266 1320h126l220 -1176h-2l304 1176h123l304 -1176h-3l221 1176h126zM818 1376l-323 204l77 98l296 -238z" />
    <glyph glyph-name="wgrave" unicode="&#x1e81;" horiz-adv-x="1263" 
d="M613 679l-216 -679h-134l-201 821h122l156 -694l214 678h118l213 -678l158 694h122l-200 -821h-134zM767 989l-323 205l77 97l296 -238z" />
    <glyph glyph-name="Wacute" unicode="&#x1e82;" horiz-adv-x="1563" 
d="M1192 0h-149l-306 1213h24l-306 -1213h-149l-266 1320h126l220 -1176h-2l304 1176h123l304 -1176h-3l221 1176h126zM684 1376l-49 64l296 238l76 -98z" />
    <glyph glyph-name="wacute" unicode="&#x1e83;" horiz-adv-x="1263" 
d="M613 679l-216 -679h-134l-201 821h122l156 -694l214 678h118l213 -678l158 694h122l-200 -821h-134zM492 944l-49 64l294 237l79 -97z" />
    <glyph glyph-name="Wdieresis" unicode="&#x1e84;" horiz-adv-x="1563" 
d="M1192 0h-149l-306 1213h24l-306 -1213h-149l-266 1320h126l220 -1176h-2l304 1176h123l304 -1176h-3l221 1176h126zM952 1415q-36 0 -62 27t-26 61q0 36 26 63t62 27t62.5 -26.5t26.5 -63.5q0 -36 -26.5 -62t-62.5 -26zM568 1415q-36 0 -62 27t-26 61q0 36 26 63t62 27
t62.5 -26.5t26.5 -63.5q0 -36 -26.5 -62t-62.5 -26z" />
    <glyph glyph-name="wdieresis" unicode="&#x1e85;" horiz-adv-x="1263" 
d="M613 679l-216 -679h-134l-201 821h122l156 -694l214 678h118l213 -678l158 694h122l-200 -821h-134zM819 1005q-36 0 -62 26.5t-26 61.5q0 36 26 62.5t62 26.5t62.5 -26.5t26.5 -62.5t-26.5 -62t-62.5 -26zM435 1005q-36 0 -62 26.5t-26 61.5q0 36 26 62.5t62 26.5
t62.5 -26.5t26.5 -62.5t-26.5 -62t-62.5 -26z" />
    <glyph glyph-name="uni1E9E" unicode="&#x1e9e;" horiz-adv-x="1215" 
d="M427 126q52 -19 117.5 -31.5t126.5 -12.5q160 0 236 85.5t76 215.5q0 153 -104 226.5t-337 37.5v112l318 464q-60 15 -127 22t-120 7q-137 0 -221 -42.5t-122.5 -133.5t-38.5 -237v-839h-112v890q0 165 59 266.5t169 148.5t263 47q53 0 111.5 -5.5t122.5 -16t132 -25.5
l-5 -99l-318 -466q82 8 160.5 -4t143.5 -51.5t103 -111.5t38 -184q0 -135 -55.5 -226t-150 -137t-209.5 -46q-148 0 -256 41v105z" />
    <glyph glyph-name="uni1EA0" unicode="&#x1ea0;" horiz-adv-x="1141" 
d="M509 1320h123l473 -1320h-119l-123 342h-584l-124 -342h-121zM313 447h517l-258 732h-3zM570 -259q-34 0 -58 25t-24 57q0 33 24 58t58 25q33 0 57.5 -25t24.5 -58q0 -34 -24.5 -58t-57.5 -24z" />
    <glyph glyph-name="uni1EA1" unicode="&#x1ea1;" horiz-adv-x="1033" 
d="M785 0v172q-7 -27 -46.5 -74t-109 -84.5t-164.5 -37.5q-111 0 -204.5 51.5t-150 149t-56.5 233.5t56.5 233.5t150 149.5t204.5 52q95 0 164 -35.5t109.5 -81.5t45.5 -77v170h112v-821h-111zM167 410q0 -104 45 -179t116.5 -115t150.5 -40q87 0 155 41t107.5 116t39.5 177
t-39.5 177t-107.5 116.5t-155 41.5q-79 0 -150.5 -40.5t-116.5 -115.5t-45 -179zM505 -304q-34 0 -58 25t-24 57q0 33 24 58t58 25q32 0 57 -24.5t25 -58.5q0 -33 -25 -57.5t-57 -24.5z" />
    <glyph glyph-name="uni1EA2" unicode="&#x1ea2;" horiz-adv-x="1141" 
d="M509 1320h123l473 -1320h-119l-123 342h-584l-124 -342h-121zM313 447h517l-258 732h-3zM551 1399l-45 62q27 7 69 25t75 49.5t33 76.5q0 49 -22.5 71t-55 27.5t-63.5 5.5q-43 0 -95 -16.5t-82 -30.5v78q18 12 68 29.5t132 17.5q54 0 101.5 -15.5t77.5 -53t30 -103.5
q0 -49 -22 -85t-57 -62t-73 -44.5t-71 -31.5z" />
    <glyph glyph-name="uni1EA3" unicode="&#x1ea3;" horiz-adv-x="1033" 
d="M785 0v172q-7 -27 -46.5 -74t-109 -84.5t-164.5 -37.5q-111 0 -204.5 51.5t-150 149t-56.5 233.5t56.5 233.5t150 149.5t204.5 52q95 0 164 -35.5t109.5 -81.5t45.5 -77v170h112v-821h-111zM167 410q0 -104 45 -179t116.5 -115t150.5 -40q87 0 155 41t107.5 116t39.5 177
t-39.5 177t-107.5 116.5t-155 41.5q-79 0 -150.5 -40.5t-116.5 -115.5t-45 -179zM468 875l-45 65q27 7 69 28.5t75 59t33 91.5q0 55 -22.5 78.5t-55 29.5t-63.5 6q-43 0 -95 -16.5t-82 -31.5v83q18 12 68 30t132 18q54 0 101.5 -16.5t77.5 -57t30 -112.5q0 -56 -22 -98.5
t-57 -72.5t-73 -50.5t-71 -33.5z" />
    <glyph glyph-name="uni1EA4" unicode="&#x1ea4;" horiz-adv-x="1141" 
d="M509 1320h123l473 -1320h-119l-123 342h-584l-124 -342h-121zM313 447h517l-258 732h-3zM786 1418l-215 158l-213 -156l-62 82l275 201l275 -202zM769 1669l-48 64l294 238l78 -98z" />
    <glyph glyph-name="uni1EA5" unicode="&#x1ea5;" horiz-adv-x="1033" 
d="M785 0v172q-7 -27 -46.5 -74t-109 -84.5t-164.5 -37.5q-111 0 -204.5 51.5t-150 149t-56.5 233.5t56.5 233.5t150 149.5t204.5 52q95 0 164 -35.5t109.5 -81.5t45.5 -77v170h112v-821h-111zM167 410q0 -104 45 -179t116.5 -115t150.5 -40q87 0 155 41t107.5 116t39.5 177
t-39.5 177t-107.5 116.5t-155 41.5q-79 0 -150.5 -40.5t-116.5 -115.5t-45 -179zM702 919l-215 158l-213 -156l-62 82l275 201l275 -202zM685 1170l-48 64l294 238l78 -98z" />
    <glyph glyph-name="uni1EA6" unicode="&#x1ea6;" horiz-adv-x="1141" 
d="M509 1320h123l473 -1320h-119l-123 342h-584l-124 -342h-121zM313 447h517l-258 732h-3zM790 1419l-215 158l-213 -156l-62 81l275 201l275 -202zM930 1639l-323 204l77 97l296 -237z" />
    <glyph glyph-name="uni1EA7" unicode="&#x1ea7;" horiz-adv-x="1033" 
d="M785 0v172q-7 -27 -46.5 -74t-109 -84.5t-164.5 -37.5q-111 0 -204.5 51.5t-150 149t-56.5 233.5t56.5 233.5t150 149.5t204.5 52q95 0 164 -35.5t109.5 -81.5t45.5 -77v170h112v-821h-111zM167 410q0 -104 45 -179t116.5 -115t150.5 -40q87 0 155 41t107.5 116t39.5 177
t-39.5 177t-107.5 116.5t-155 41.5q-79 0 -150.5 -40.5t-116.5 -115.5t-45 -179zM707 920l-215 158l-213 -156l-62 81l275 201l275 -202zM847 1140l-323 204l77 97l296 -237z" />
    <glyph glyph-name="uni1EA8" unicode="&#x1ea8;" horiz-adv-x="1141" 
d="M509 1320h123l473 -1320h-119l-123 342h-584l-124 -342h-121zM313 447h517l-258 732h-3zM755 1645l-45 65q27 7 69 28.5t75 59.5t33 91q0 55 -22.5 78.5t-55 29.5t-63.5 6q-43 0 -95 -16.5t-82 -31.5v83q18 12 68 30t132 18q54 0 101.5 -16.5t77.5 -56.5t30 -112
q0 -57 -22 -99.5t-57 -72.5t-73 -50t-71 -34zM787 1418l-215 158l-213 -156l-62 82l275 201l275 -202z" />
    <glyph glyph-name="uni1EA9" unicode="&#x1ea9;" horiz-adv-x="1033" 
d="M785 0v172q-7 -27 -46.5 -74t-109 -84.5t-164.5 -37.5q-111 0 -204.5 51.5t-150 149t-56.5 233.5t56.5 233.5t150 149.5t204.5 52q95 0 164 -35.5t109.5 -81.5t45.5 -77v170h112v-821h-111zM167 410q0 -104 45 -179t116.5 -115t150.5 -40q87 0 155 41t107.5 116t39.5 177
t-39.5 177t-107.5 116.5t-155 41.5q-79 0 -150.5 -40.5t-116.5 -115.5t-45 -179zM672 1146l-45 65q27 7 69 28.5t75 59.5t33 91q0 55 -22.5 78.5t-55 29.5t-63.5 6q-43 0 -95 -16.5t-82 -31.5v83q18 12 68 30t132 18q54 0 101.5 -16.5t77.5 -56.5t30 -112q0 -57 -22 -99.5
t-57 -72.5t-73 -50t-71 -34zM704 919l-215 158l-213 -156l-62 82l275 201l275 -202z" />
    <glyph glyph-name="uni1EAA" unicode="&#x1eaa;" horiz-adv-x="1141" 
d="M509 1320h123l473 -1320h-119l-123 342h-584l-124 -342h-121zM313 447h517l-258 732h-3zM260 1747q9 40 32.5 81t60 70t84.5 29q61 0 100 -19.5t73.5 -38.5t80.5 -19q38 0 60 26t28 51h110q-11 -38 -35.5 -80t-61.5 -71t-85 -29q-61 0 -101.5 19.5t-73 38.5t-70.5 19
q-36 0 -60 -26t-33 -51h-109zM782 1418l-215 158l-213 -156l-62 82l275 201l275 -202z" />
    <glyph glyph-name="uni1EAB" unicode="&#x1eab;" horiz-adv-x="1033" 
d="M785 0v172q-7 -27 -46.5 -74t-109 -84.5t-164.5 -37.5q-111 0 -204.5 51.5t-150 149t-56.5 233.5t56.5 233.5t150 149.5t204.5 52q95 0 164 -35.5t109.5 -81.5t45.5 -77v170h112v-821h-111zM167 410q0 -104 45 -179t116.5 -115t150.5 -40q87 0 155 41t107.5 116t39.5 177
t-39.5 177t-107.5 116.5t-155 41.5q-79 0 -150.5 -40.5t-116.5 -115.5t-45 -179zM177 1248q9 40 32.5 81t60 70t84.5 29q61 0 100 -19.5t73.5 -38.5t80.5 -19q38 0 60 26t28 51h110q-11 -38 -35.5 -80t-61.5 -71t-85 -29q-61 0 -101.5 19.5t-73 38.5t-70.5 19q-36 0 -60 -26
t-33 -51h-109zM699 919l-215 158l-213 -156l-62 82l275 201l275 -202z" />
    <glyph glyph-name="uni1EAC" unicode="&#x1eac;" horiz-adv-x="1141" 
d="M509 1320h123l473 -1320h-119l-123 342h-584l-124 -342h-121zM313 447h517l-258 732h-3zM570 -259q-34 0 -58 25t-24 57q0 33 24 58t58 25q33 0 57.5 -25t24.5 -58q0 -34 -24.5 -58t-57.5 -24zM356 1407l-61 81l274 201l276 -202l-61 -82l-215 157z" />
    <glyph glyph-name="uni1EAD" unicode="&#x1ead;" horiz-adv-x="1033" 
d="M785 0v172q-7 -27 -46.5 -74t-109 -84.5t-164.5 -37.5q-111 0 -204.5 51.5t-150 149t-56.5 233.5t56.5 233.5t150 149.5t204.5 52q95 0 164 -35.5t109.5 -81.5t45.5 -77v170h112v-821h-111zM167 410q0 -104 45 -179t116.5 -115t150.5 -40q87 0 155 41t107.5 116t39.5 177
t-39.5 177t-107.5 116.5t-155 41.5q-79 0 -150.5 -40.5t-116.5 -115.5t-45 -179zM505 -304q-34 0 -58 25t-24 57q0 33 24 58t58 25q32 0 57 -24.5t25 -58.5q0 -33 -25 -57.5t-57 -24.5zM702 926l-215 158l-213 -156l-62 82l275 201l275 -202z" />
    <glyph glyph-name="uni1EAE" unicode="&#x1eae;" horiz-adv-x="1141" 
d="M509 1320h123l473 -1320h-119l-123 342h-584l-124 -342h-121zM313 447h517l-258 732h-3zM571 1471q-78 0 -134.5 31t-88.5 77t-38 94l108 27q6 -29 24 -61t50.5 -53.5t78.5 -21.5t78 21.5t50 53.5t23 61l109 -27q-5 -45 -36.5 -92t-88 -78.5t-135.5 -31.5zM494 1748
l-50 64l296 237l77 -97z" />
    <glyph glyph-name="uni1EAF" unicode="&#x1eaf;" horiz-adv-x="1033" 
d="M785 0v172q-7 -27 -46.5 -74t-109 -84.5t-164.5 -37.5q-111 0 -204.5 51.5t-150 149t-56.5 233.5t56.5 233.5t150 149.5t204.5 52q95 0 164 -35.5t109.5 -81.5t45.5 -77v170h112v-821h-111zM167 410q0 -104 45 -179t116.5 -115t150.5 -40q87 0 155 41t107.5 116t39.5 177
t-39.5 177t-107.5 116.5t-155 41.5q-79 0 -150.5 -40.5t-116.5 -115.5t-45 -179zM487 972q-78 0 -134.5 31t-88.5 77t-38 94l108 27q6 -29 24 -61t50.5 -53.5t78.5 -21.5t78 21.5t50 53.5t23 61l109 -27q-5 -45 -36.5 -92t-88 -78.5t-135.5 -31.5zM410 1249l-50 64l296 237
l77 -97z" />
    <glyph glyph-name="uni1EB0" unicode="&#x1eb0;" horiz-adv-x="1141" 
d="M509 1320h123l473 -1320h-119l-123 342h-584l-124 -342h-121zM313 447h517l-258 732h-3zM649 1764l-323 204l77 97l296 -237zM571 1471q-78 0 -134.5 31t-88.5 77.5t-38 93.5l108 27q5 -29 23.5 -61t51 -53.5t78.5 -21.5t78 21.5t50 53.5t23 61l109 -27q-5 -46 -37 -93
t-88.5 -78t-134.5 -31z" />
    <glyph glyph-name="uni1EB1" unicode="&#x1eb1;" horiz-adv-x="1033" 
d="M785 0v172q-7 -27 -46.5 -74t-109 -84.5t-164.5 -37.5q-111 0 -204.5 51.5t-150 149t-56.5 233.5t56.5 233.5t150 149.5t204.5 52q95 0 164 -35.5t109.5 -81.5t45.5 -77v170h112v-821h-111zM167 410q0 -104 45 -179t116.5 -115t150.5 -40q87 0 155 41t107.5 116t39.5 177
t-39.5 177t-107.5 116.5t-155 41.5q-79 0 -150.5 -40.5t-116.5 -115.5t-45 -179zM565 1265l-323 204l77 97l296 -237zM487 972q-78 0 -134.5 31t-88.5 77.5t-38 93.5l108 27q5 -29 23.5 -61t51 -53.5t78.5 -21.5t78 21.5t50 53.5t23 61l109 -27q-5 -46 -37 -93t-88.5 -78
t-134.5 -31z" />
    <glyph glyph-name="uni1EB2" unicode="&#x1eb2;" horiz-adv-x="1141" 
d="M509 1320h123l473 -1320h-119l-123 342h-584l-124 -342h-121zM313 447h517l-258 732h-3zM552 1705l-45 65q27 7 68.5 28.5t75 59t33.5 91.5t-22.5 78t-55 30t-63.5 6q-43 0 -95 -16.5t-82 -31.5v83q18 12 68 30t132 18q53 0 101 -16.5t78 -57t30 -112.5q0 -56 -22 -98.5
t-57.5 -73t-73 -50.5t-70.5 -33zM571 1471q-78 0 -134.5 31t-88.5 77t-38 94l108 27q6 -29 24 -61t50.5 -53.5t78.5 -21.5t78 21.5t50 53.5t23 61l109 -27q-5 -45 -36.5 -92t-88 -78.5t-135.5 -31.5z" />
    <glyph glyph-name="uni1EB3" unicode="&#x1eb3;" horiz-adv-x="1033" 
d="M785 0v172q-7 -27 -46.5 -74t-109 -84.5t-164.5 -37.5q-111 0 -204.5 51.5t-150 149t-56.5 233.5t56.5 233.5t150 149.5t204.5 52q95 0 164 -35.5t109.5 -81.5t45.5 -77v170h112v-821h-111zM167 410q0 -104 45 -179t116.5 -115t150.5 -40q87 0 155 41t107.5 116t39.5 177
t-39.5 177t-107.5 116.5t-155 41.5q-79 0 -150.5 -40.5t-116.5 -115.5t-45 -179zM468 1206l-45 65q27 7 68.5 28.5t75 59t33.5 91.5t-22.5 78t-55 30t-63.5 6q-43 0 -95 -16.5t-82 -31.5v83q18 12 68 30t132 18q53 0 101 -16.5t78 -57t30 -112.5q0 -56 -22 -98.5t-57.5 -73
t-73 -50.5t-70.5 -33zM487 972q-78 0 -134.5 31t-88.5 77t-38 94l108 27q6 -29 24 -61t50.5 -53.5t78.5 -21.5t78 21.5t50 53.5t23 61l109 -27q-5 -45 -36.5 -92t-88 -78.5t-135.5 -31.5z" />
    <glyph glyph-name="uni1EB4" unicode="&#x1eb4;" horiz-adv-x="1141" 
d="M509 1320h123l473 -1320h-119l-123 342h-584l-124 -342h-121zM313 447h517l-258 732h-3zM272 1819q10 39 33.5 80t60 70t84.5 29q60 0 99.5 -19t74 -38.5t80.5 -19.5q38 0 57 22.5t31 54.5h109q-9 -33 -33.5 -75t-62 -73t-85.5 -31q-61 0 -101.5 19t-73.5 38t-71 19
q-35 0 -59.5 -26t-32.5 -50h-110zM571 1471q-78 0 -134.5 31t-88.5 77t-38 94l108 27q6 -29 24 -61t50.5 -53.5t78.5 -21.5t78 21.5t50 53.5t23 61l109 -27q-5 -45 -36.5 -92t-88 -78.5t-135.5 -31.5z" />
    <glyph glyph-name="uni1EB5" unicode="&#x1eb5;" horiz-adv-x="1033" 
d="M785 0v172q-7 -27 -46.5 -74t-109 -84.5t-164.5 -37.5q-111 0 -204.5 51.5t-150 149t-56.5 233.5t56.5 233.5t150 149.5t204.5 52q95 0 164 -35.5t109.5 -81.5t45.5 -77v170h112v-821h-111zM167 410q0 -104 45 -179t116.5 -115t150.5 -40q87 0 155 41t107.5 116t39.5 177
t-39.5 177t-107.5 116.5t-155 41.5q-79 0 -150.5 -40.5t-116.5 -115.5t-45 -179zM188 1320q10 39 33.5 80t60 70t84.5 29q60 0 99.5 -19t74 -38.5t80.5 -19.5q38 0 57 22.5t31 54.5h109q-9 -33 -33.5 -75t-62 -73t-85.5 -31q-61 0 -101.5 19t-73.5 38t-71 19
q-35 0 -59.5 -26t-32.5 -50h-110zM487 972q-78 0 -134.5 31t-88.5 77t-38 94l108 27q6 -29 24 -61t50.5 -53.5t78.5 -21.5t78 21.5t50 53.5t23 61l109 -27q-5 -45 -36.5 -92t-88 -78.5t-135.5 -31.5z" />
    <glyph glyph-name="uni1EB6" unicode="&#x1eb6;" horiz-adv-x="1141" 
d="M509 1320h123l473 -1320h-119l-123 342h-584l-124 -342h-121zM313 447h517l-258 732h-3zM570 -259q-34 0 -58 25t-24 57q0 33 24 58t58 25q33 0 57.5 -25t24.5 -58q0 -34 -24.5 -58t-57.5 -24zM571 1398q-77 0 -131 30t-85 75t-36 90l102 26q6 -28 23.5 -59t49.5 -52
t77 -21q44 0 75.5 21t49.5 52t22 59l104 -26q-5 -43 -35.5 -88t-85 -76t-130.5 -31z" />
    <glyph glyph-name="uni1EB7" unicode="&#x1eb7;" horiz-adv-x="1033" 
d="M785 0v172q-7 -27 -46.5 -74t-109 -84.5t-164.5 -37.5q-111 0 -204.5 51.5t-150 149t-56.5 233.5t56.5 233.5t150 149.5t204.5 52q95 0 164 -35.5t109.5 -81.5t45.5 -77v170h112v-821h-111zM167 410q0 -104 45 -179t116.5 -115t150.5 -40q87 0 155 41t107.5 116t39.5 177
t-39.5 177t-107.5 116.5t-155 41.5q-79 0 -150.5 -40.5t-116.5 -115.5t-45 -179zM505 -304q-34 0 -58 25t-24 57q0 33 24 58t58 25q32 0 57 -24.5t25 -58.5q0 -33 -25 -57.5t-57 -24.5zM487 971q-78 0 -134.5 31t-88.5 77.5t-38 93.5l108 27q6 -29 24 -60.5t50.5 -53.5
t78.5 -22t78 22t50.5 53.5t22.5 60.5l109 -27q-5 -45 -36.5 -92t-88 -78.5t-135.5 -31.5z" />
    <glyph glyph-name="uni1EB8" unicode="&#x1eb8;" horiz-adv-x="1042" 
d="M123 1320h752v-105h-641v-501h625v-104h-625v-505h641v-105h-752v1320zM494 -259q-34 0 -58 25t-24 57q0 33 24 58t58 25q33 0 57.5 -25t24.5 -58q0 -34 -24.5 -58t-57.5 -24z" />
    <glyph glyph-name="uni1EB9" unicode="&#x1eb9;" horiz-adv-x="935" 
d="M166 397q1 -86 34.5 -161t101.5 -121t171 -46q84 0 140.5 27.5t90 64t47.5 65.5l71 -70q-37 -57 -85.5 -97.5t-114 -61.5t-155.5 -21q-131 0 -223.5 58.5t-141 159.5t-48.5 227q0 120 48 216t138.5 152t218.5 56q116 0 201.5 -51t133 -141.5t47.5 -210.5q0 -9 -0.5 -23
t-1.5 -22h-673zM727 492q-1 54 -26.5 114.5t-83 103t-157.5 42.5q-104 0 -165.5 -41.5t-89.5 -101.5t-34 -117h556zM455 -304q-34 0 -58 25t-24 57q0 33 24 58t58 25q32 0 57 -24.5t25 -58.5q0 -33 -25 -57.5t-57 -24.5z" />
    <glyph glyph-name="uni1EBA" unicode="&#x1eba;" horiz-adv-x="1042" 
d="M123 1320h752v-105h-641v-501h625v-104h-625v-505h641v-105h-752v1320zM483 1399l-45 62q27 7 69 25t75 49.5t33 76.5q0 49 -22.5 71t-55 27.5t-63.5 5.5q-43 0 -95 -16.5t-82 -30.5v78q18 12 68 29.5t132 17.5q54 0 101.5 -15.5t77.5 -53t30 -103.5q0 -49 -22 -85
t-57 -62t-73 -44.5t-71 -31.5z" />
    <glyph glyph-name="uni1EBB" unicode="&#x1ebb;" horiz-adv-x="935" 
d="M166 397q1 -86 34.5 -161t101.5 -121t171 -46q84 0 140.5 27.5t90 64t47.5 65.5l71 -70q-37 -57 -85.5 -97.5t-114 -61.5t-155.5 -21q-131 0 -223.5 58.5t-141 159.5t-48.5 227q0 120 48 216t138.5 152t218.5 56q116 0 201.5 -51t133 -141.5t47.5 -210.5q0 -9 -0.5 -23
t-1.5 -22h-673zM727 492q-1 54 -26.5 114.5t-83 103t-157.5 42.5q-104 0 -165.5 -41.5t-89.5 -101.5t-34 -117h556zM437 875l-45 65q27 7 69 28.5t75 59t33 91.5q0 55 -22.5 78.5t-55 29.5t-63.5 6q-43 0 -95 -16.5t-82 -31.5v83q18 12 68 30t132 18q54 0 101.5 -16.5
t77.5 -57t30 -112.5q0 -56 -22 -98.5t-57 -72.5t-73 -50.5t-71 -33.5z" />
    <glyph glyph-name="uni1EBC" unicode="&#x1ebc;" horiz-adv-x="1042" 
d="M123 1320h752v-105h-641v-501h625v-104h-625v-505h641v-105h-752v1320zM188 1414q9 39 32.5 80t60 70t84.5 29q61 0 100 -19t73.5 -38.5t80.5 -19.5q38 0 60 26.5t28 50.5h110q-11 -38 -35.5 -79.5t-61.5 -70.5t-85 -29q-61 0 -101.5 19t-73 38t-70.5 19q-36 0 -60 -26
t-33 -50h-109z" />
    <glyph glyph-name="uni1EBD" unicode="&#x1ebd;" horiz-adv-x="935" 
d="M166 397q1 -86 34.5 -161t101.5 -121t171 -46q84 0 140.5 27.5t90 64t47.5 65.5l71 -70q-37 -57 -85.5 -97.5t-114 -61.5t-155.5 -21q-131 0 -223.5 58.5t-141 159.5t-48.5 227q0 120 48 216t138.5 152t218.5 56q116 0 201.5 -51t133 -141.5t47.5 -210.5q0 -9 -0.5 -23
t-1.5 -22h-673zM727 492q-1 54 -26.5 114.5t-83 103t-157.5 42.5q-104 0 -165.5 -41.5t-89.5 -101.5t-34 -117h556zM157 1016q10 39 33.5 80t60 70t84.5 29q60 0 99.5 -19t74 -38.5t80.5 -19.5q38 0 59.5 26.5t28.5 50.5h109q-11 -38 -35 -80t-61 -70.5t-85 -28.5
q-61 0 -101.5 19t-73.5 38t-71 19q-35 0 -59.5 -26t-32.5 -50h-110z" />
    <glyph glyph-name="uni1EBE" unicode="&#x1ebe;" horiz-adv-x="1042" 
d="M123 1320h752v-105h-641v-501h625v-104h-625v-505h641v-105h-752v1320zM717 1418l-215 158l-213 -156l-62 82l275 201l275 -202zM700 1669l-48 64l294 238l78 -98z" />
    <glyph glyph-name="uni1EBF" unicode="&#x1ebf;" horiz-adv-x="935" 
d="M166 397q1 -86 34.5 -161t101.5 -121t171 -46q84 0 140.5 27.5t90 64t47.5 65.5l71 -70q-37 -57 -85.5 -97.5t-114 -61.5t-155.5 -21q-131 0 -223.5 58.5t-141 159.5t-48.5 227q0 120 48 216t138.5 152t218.5 56q116 0 201.5 -51t133 -141.5t47.5 -210.5q0 -9 -0.5 -23
t-1.5 -22h-673zM727 492q-1 54 -26.5 114.5t-83 103t-157.5 42.5q-104 0 -165.5 -41.5t-89.5 -101.5t-34 -117h556zM672 919l-215 158l-213 -156l-62 82l275 201l275 -202zM655 1170l-48 64l294 238l78 -98z" />
    <glyph glyph-name="uni1EC0" unicode="&#x1ec0;" horiz-adv-x="1042" 
d="M123 1320h752v-105h-641v-501h625v-104h-625v-505h641v-105h-752v1320zM721 1419l-215 158l-213 -156l-62 81l275 201l275 -202zM861 1639l-323 204l77 97l296 -237z" />
    <glyph glyph-name="uni1EC1" unicode="&#x1ec1;" horiz-adv-x="935" 
d="M166 397q1 -86 34.5 -161t101.5 -121t171 -46q84 0 140.5 27.5t90 64t47.5 65.5l71 -70q-37 -57 -85.5 -97.5t-114 -61.5t-155.5 -21q-131 0 -223.5 58.5t-141 159.5t-48.5 227q0 120 48 216t138.5 152t218.5 56q116 0 201.5 -51t133 -141.5t47.5 -210.5q0 -9 -0.5 -23
t-1.5 -22h-673zM727 492q-1 54 -26.5 114.5t-83 103t-157.5 42.5q-104 0 -165.5 -41.5t-89.5 -101.5t-34 -117h556zM676 920l-215 158l-213 -156l-62 81l275 201l275 -202zM816 1140l-323 204l77 97l296 -237z" />
    <glyph glyph-name="uni1EC2" unicode="&#x1ec2;" horiz-adv-x="1042" 
d="M123 1320h752v-105h-641v-501h625v-104h-625v-505h641v-105h-752v1320zM686 1645l-45 65q27 7 69 28.5t75 59.5t33 91q0 55 -22.5 78.5t-55 29.5t-63.5 6q-43 0 -95 -16.5t-82 -31.5v83q18 12 68 30t132 18q54 0 101.5 -16.5t77.5 -56.5t30 -112q0 -57 -22 -99.5
t-57 -72.5t-73 -50t-71 -34zM718 1418l-215 158l-213 -156l-62 82l275 201l275 -202z" />
    <glyph glyph-name="uni1EC3" unicode="&#x1ec3;" horiz-adv-x="935" 
d="M166 397q1 -86 34.5 -161t101.5 -121t171 -46q84 0 140.5 27.5t90 64t47.5 65.5l71 -70q-37 -57 -85.5 -97.5t-114 -61.5t-155.5 -21q-131 0 -223.5 58.5t-141 159.5t-48.5 227q0 120 48 216t138.5 152t218.5 56q116 0 201.5 -51t133 -141.5t47.5 -210.5q0 -9 -0.5 -23
t-1.5 -22h-673zM727 492q-1 54 -26.5 114.5t-83 103t-157.5 42.5q-104 0 -165.5 -41.5t-89.5 -101.5t-34 -117h556zM641 1146l-45 65q27 7 69 28.5t75 59.5t33 91q0 55 -22.5 78.5t-55 29.5t-63.5 6q-43 0 -95 -16.5t-82 -31.5v83q18 12 68 30t132 18q54 0 101.5 -16.5
t77.5 -56.5t30 -112q0 -57 -22 -99.5t-57 -72.5t-73 -50t-71 -34zM673 919l-215 158l-213 -156l-62 82l275 201l275 -202z" />
    <glyph glyph-name="uni1EC4" unicode="&#x1ec4;" horiz-adv-x="1042" 
d="M123 1320h752v-105h-641v-501h625v-104h-625v-505h641v-105h-752v1320zM192 1747q9 40 32.5 81t60 70t84.5 29q61 0 100 -19.5t73.5 -38.5t80.5 -19q38 0 60 26t28 51h110q-11 -38 -35.5 -80t-61.5 -71t-85 -29q-61 0 -101.5 19.5t-73 38.5t-70.5 19q-36 0 -60 -26
t-33 -51h-109zM714 1418l-215 158l-213 -156l-62 82l275 201l275 -202z" />
    <glyph glyph-name="uni1EC5" unicode="&#x1ec5;" horiz-adv-x="935" 
d="M166 397q1 -86 34.5 -161t101.5 -121t171 -46q84 0 140.5 27.5t90 64t47.5 65.5l71 -70q-37 -57 -85.5 -97.5t-114 -61.5t-155.5 -21q-131 0 -223.5 58.5t-141 159.5t-48.5 227q0 120 48 216t138.5 152t218.5 56q116 0 201.5 -51t133 -141.5t47.5 -210.5q0 -9 -0.5 -23
t-1.5 -22h-673zM727 492q-1 54 -26.5 114.5t-83 103t-157.5 42.5q-104 0 -165.5 -41.5t-89.5 -101.5t-34 -117h556zM146 1248q9 40 32.5 81t60 70t84.5 29q61 0 100 -19.5t73.5 -38.5t80.5 -19q38 0 60 26t28 51h110q-11 -38 -35.5 -80t-61.5 -71t-85 -29q-61 0 -101.5 19.5
t-73 38.5t-70.5 19q-36 0 -60 -26t-33 -51h-109zM668 919l-215 158l-213 -156l-62 82l275 201l275 -202z" />
    <glyph glyph-name="uni1EC6" unicode="&#x1ec6;" horiz-adv-x="1042" 
d="M123 1320h752v-105h-641v-501h625v-104h-625v-505h641v-105h-752v1320zM494 -259q-34 0 -58 25t-24 57q0 33 24 58t58 25q33 0 57.5 -25t24.5 -58q0 -34 -24.5 -58t-57.5 -24zM288 1407l-61 81l274 201l276 -202l-61 -82l-215 157z" />
    <glyph glyph-name="uni1EC7" unicode="&#x1ec7;" horiz-adv-x="935" 
d="M166 397q1 -86 34.5 -161t101.5 -121t171 -46q84 0 140.5 27.5t90 64t47.5 65.5l71 -70q-37 -57 -85.5 -97.5t-114 -61.5t-155.5 -21q-131 0 -223.5 58.5t-141 159.5t-48.5 227q0 120 48 216t138.5 152t218.5 56q116 0 201.5 -51t133 -141.5t47.5 -210.5q0 -9 -0.5 -23
t-1.5 -22h-673zM727 492q-1 54 -26.5 114.5t-83 103t-157.5 42.5q-104 0 -165.5 -41.5t-89.5 -101.5t-34 -117h556zM455 -304q-34 0 -58 25t-24 57q0 33 24 58t58 25q32 0 57 -24.5t25 -58.5q0 -33 -25 -57.5t-57 -24.5zM671 926l-215 158l-213 -156l-62 82l275 201
l275 -202z" />
    <glyph glyph-name="uni1EC8" unicode="&#x1ec8;" horiz-adv-x="433" 
d="M140 1320h113v-1320h-113v1320zM176 1399l-45 62q27 7 69 25t75 49.5t33 76.5q0 49 -22.5 71t-55 27.5t-63.5 5.5q-43 0 -95 -16.5t-82 -30.5v78q18 12 68 29.5t132 17.5q54 0 101.5 -15.5t77.5 -53t30 -103.5q0 -49 -22 -85t-57 -62t-73 -44.5t-71 -31.5z" />
    <glyph glyph-name="uni1EC9" unicode="&#x1ec9;" horiz-adv-x="359" 
d="M106 0v821h110v-821h-110zM142 875l-45 65q27 7 69 28.5t75 59t33 91.5q0 55 -22.5 78.5t-55 29.5t-63.5 6q-43 0 -95 -16.5t-82 -31.5v83q18 12 68 30t132 18q54 0 101.5 -16.5t77.5 -57t30 -112.5q0 -56 -22 -98.5t-57 -72.5t-73 -50.5t-71 -33.5z" />
    <glyph glyph-name="uni1ECA" unicode="&#x1eca;" horiz-adv-x="433" 
d="M140 1320h113v-1320h-113v1320zM193 -259q-34 0 -58 25t-24 57q0 33 24 58t58 25q33 0 57.5 -25t24.5 -58q0 -34 -24.5 -58t-57.5 -24z" />
    <glyph glyph-name="uni1ECB" unicode="&#x1ecb;" horiz-adv-x="430" 
d="M138 0v821h113v-821h-113zM196 1154q-36 0 -61.5 25.5t-25.5 61.5q0 37 26 62.5t61 25.5q24 0 44.5 -12t33 -31.5t12.5 -44.5q0 -36 -26.5 -61.5t-63.5 -25.5zM196 -304q-34 0 -58 25t-24 57q0 33 24 58t58 25q32 0 57 -24.5t25 -58.5q0 -33 -25 -57.5t-57 -24.5z" />
    <glyph glyph-name="uni1ECC" unicode="&#x1ecc;" horiz-adv-x="1426" 
d="M162 661q0 -163 68.5 -293.5t188.5 -206.5t274 -76q155 0 274 76t187 206.5t68 293.5t-68 293t-187 205.5t-274 75.5q-154 0 -274 -75.5t-188.5 -205.5t-68.5 -293zM46 661q0 144 49 268.5t136.5 217.5t205.5 145t256 52q139 0 256 -52t204.5 -145t135.5 -217.5
t48 -268.5q0 -145 -47.5 -269.5t-135 -218t-205 -145.5t-256.5 -52q-140 0 -258 52t-205 145.5t-135.5 218t-48.5 269.5zM692 -273q-34 0 -58 25t-24 57q0 33 24 58t58 25q33 0 57.5 -25t24.5 -58q0 -34 -24.5 -58t-57.5 -24z" />
    <glyph glyph-name="uni1ECD" unicode="&#x1ecd;" horiz-adv-x="989" 
d="M477 -24q-123 0 -218.5 57.5t-150 155.5t-54.5 219t54.5 220.5t150 158t218.5 58.5t217.5 -58.5t148.5 -158t54 -220.5t-54 -219t-148.5 -155.5t-217.5 -57.5zM477 79q93 0 162.5 43t108 118t38.5 168q0 94 -38.5 169.5t-108 120t-162.5 44.5q-94 0 -164 -44.5t-109 -120
t-39 -169.5q0 -93 39 -168t109 -118t164 -43zM476 -419q-34 0 -58 25t-24 57q0 33 24 58t58 25q32 0 57 -24.5t25 -58.5q0 -33 -25 -57.5t-57 -24.5z" />
    <glyph glyph-name="uni1ECE" unicode="&#x1ece;" horiz-adv-x="1426" 
d="M162 661q0 -163 68.5 -293.5t188.5 -206.5t274 -76q155 0 274 76t187 206.5t68 293.5t-68 293t-187 205.5t-274 75.5q-154 0 -274 -75.5t-188.5 -205.5t-68.5 -293zM46 661q0 144 49 268.5t136.5 217.5t205.5 145t256 52q139 0 256 -52t204.5 -145t135.5 -217.5
t48 -268.5q0 -145 -47.5 -269.5t-135 -218t-205 -145.5t-256.5 -52q-140 0 -258 52t-205 145.5t-135.5 218t-48.5 269.5zM674 1399l-45 62q27 7 69 25t75 49.5t33 76.5q0 49 -22.5 71t-55 27.5t-63.5 5.5q-43 0 -95 -16.5t-82 -30.5v78q18 12 68 29.5t132 17.5
q54 0 101.5 -15.5t77.5 -53t30 -103.5q0 -49 -22 -85t-57 -62t-73 -44.5t-71 -31.5z" />
    <glyph glyph-name="uni1ECF" unicode="&#x1ecf;" horiz-adv-x="989" 
d="M477 -24q-123 0 -218.5 57.5t-150 155.5t-54.5 219t54.5 220.5t150 158t218.5 58.5t217.5 -58.5t148.5 -158t54 -220.5t-54 -219t-148.5 -155.5t-217.5 -57.5zM477 79q93 0 162.5 43t108 118t38.5 168q0 94 -38.5 169.5t-108 120t-162.5 44.5q-94 0 -164 -44.5t-109 -120
t-39 -169.5q0 -93 39 -168t109 -118t164 -43zM456 875l-45 65q27 7 69 28.5t75 59t33 91.5q0 55 -22.5 78.5t-55 29.5t-63.5 6q-43 0 -95 -16.5t-82 -31.5v83q18 12 68 30t132 18q54 0 101.5 -16.5t77.5 -57t30 -112.5q0 -56 -22 -98.5t-57 -72.5t-73 -50.5t-71 -33.5z" />
    <glyph glyph-name="uni1ED0" unicode="&#x1ed0;" horiz-adv-x="1426" 
d="M162 661q0 -163 68.5 -293.5t188.5 -206.5t274 -76q155 0 274 76t187 206.5t68 293.5t-68 293t-187 205.5t-274 75.5q-154 0 -274 -75.5t-188.5 -205.5t-68.5 -293zM46 661q0 144 49 268.5t136.5 217.5t205.5 145t256 52q139 0 256 -52t204.5 -145t135.5 -217.5
t48 -268.5q0 -145 -47.5 -269.5t-135 -218t-205 -145.5t-256.5 -52q-140 0 -258 52t-205 145.5t-135.5 218t-48.5 269.5zM908 1418l-215 158l-213 -156l-62 82l275 201l275 -202zM891 1669l-48 64l294 238l78 -98z" />
    <glyph glyph-name="uni1ED1" unicode="&#x1ed1;" horiz-adv-x="989" 
d="M477 -24q-123 0 -218.5 57.5t-150 155.5t-54.5 219t54.5 220.5t150 158t218.5 58.5t217.5 -58.5t148.5 -158t54 -220.5t-54 -219t-148.5 -155.5t-217.5 -57.5zM477 79q93 0 162.5 43t108 118t38.5 168q0 94 -38.5 169.5t-108 120t-162.5 44.5q-94 0 -164 -44.5t-109 -120
t-39 -169.5q0 -93 39 -168t109 -118t164 -43zM691 919l-215 158l-213 -156l-62 82l275 201l275 -202zM674 1170l-48 64l294 238l78 -98z" />
    <glyph glyph-name="uni1ED2" unicode="&#x1ed2;" horiz-adv-x="1426" 
d="M162 661q0 -163 68.5 -293.5t188.5 -206.5t274 -76q155 0 274 76t187 206.5t68 293.5t-68 293t-187 205.5t-274 75.5q-154 0 -274 -75.5t-188.5 -205.5t-68.5 -293zM46 661q0 144 49 268.5t136.5 217.5t205.5 145t256 52q139 0 256 -52t204.5 -145t135.5 -217.5
t48 -268.5q0 -145 -47.5 -269.5t-135 -218t-205 -145.5t-256.5 -52q-140 0 -258 52t-205 145.5t-135.5 218t-48.5 269.5zM913 1419l-215 158l-213 -156l-62 81l275 201l275 -202zM1053 1639l-323 204l77 97l296 -237z" />
    <glyph glyph-name="uni1ED3" unicode="&#x1ed3;" horiz-adv-x="989" 
d="M477 -24q-123 0 -218.5 57.5t-150 155.5t-54.5 219t54.5 220.5t150 158t218.5 58.5t217.5 -58.5t148.5 -158t54 -220.5t-54 -219t-148.5 -155.5t-217.5 -57.5zM477 79q93 0 162.5 43t108 118t38.5 168q0 94 -38.5 169.5t-108 120t-162.5 44.5q-94 0 -164 -44.5t-109 -120
t-39 -169.5q0 -93 39 -168t109 -118t164 -43zM695 920l-215 158l-213 -156l-62 81l275 201l275 -202zM835 1140l-323 204l77 97l296 -237z" />
    <glyph glyph-name="uni1ED4" unicode="&#x1ed4;" horiz-adv-x="1426" 
d="M162 661q0 -163 68.5 -293.5t188.5 -206.5t274 -76q155 0 274 76t187 206.5t68 293.5t-68 293t-187 205.5t-274 75.5q-154 0 -274 -75.5t-188.5 -205.5t-68.5 -293zM46 661q0 144 49 268.5t136.5 217.5t205.5 145t256 52q139 0 256 -52t204.5 -145t135.5 -217.5
t48 -268.5q0 -145 -47.5 -269.5t-135 -218t-205 -145.5t-256.5 -52q-140 0 -258 52t-205 145.5t-135.5 218t-48.5 269.5zM877 1645l-45 65q27 7 69 28.5t75 59.5t33 91q0 55 -22.5 78.5t-55 29.5t-63.5 6q-43 0 -95 -16.5t-82 -31.5v83q18 12 68 30t132 18q54 0 101.5 -16.5
t77.5 -56.5t30 -112q0 -57 -22 -99.5t-57 -72.5t-73 -50t-71 -34zM909 1418l-215 158l-213 -156l-62 82l275 201l275 -202z" />
    <glyph glyph-name="uni1ED5" unicode="&#x1ed5;" horiz-adv-x="989" 
d="M477 -24q-123 0 -218.5 57.5t-150 155.5t-54.5 219t54.5 220.5t150 158t218.5 58.5t217.5 -58.5t148.5 -158t54 -220.5t-54 -219t-148.5 -155.5t-217.5 -57.5zM477 79q93 0 162.5 43t108 118t38.5 168q0 94 -38.5 169.5t-108 120t-162.5 44.5q-94 0 -164 -44.5t-109 -120
t-39 -169.5q0 -93 39 -168t109 -118t164 -43zM660 1146l-45 65q27 7 69 28.5t75 59.5t33 91q0 55 -22.5 78.5t-55 29.5t-63.5 6q-43 0 -95 -16.5t-82 -31.5v83q18 12 68 30t132 18q54 0 101.5 -16.5t77.5 -56.5t30 -112q0 -57 -22 -99.5t-57 -72.5t-73 -50t-71 -34zM692 919
l-215 158l-213 -156l-62 82l275 201l275 -202z" />
    <glyph glyph-name="uni1ED6" unicode="&#x1ed6;" horiz-adv-x="1426" 
d="M162 661q0 -163 68.5 -293.5t188.5 -206.5t274 -76q155 0 274 76t187 206.5t68 293.5t-68 293t-187 205.5t-274 75.5q-154 0 -274 -75.5t-188.5 -205.5t-68.5 -293zM46 661q0 144 49 268.5t136.5 217.5t205.5 145t256 52q139 0 256 -52t204.5 -145t135.5 -217.5
t48 -268.5q0 -145 -47.5 -269.5t-135 -218t-205 -145.5t-256.5 -52q-140 0 -258 52t-205 145.5t-135.5 218t-48.5 269.5zM383 1747q9 40 32.5 81t60 70t84.5 29q61 0 100 -19.5t73.5 -38.5t80.5 -19q38 0 60 26t28 51h110q-11 -38 -35.5 -80t-61.5 -71t-85 -29
q-61 0 -101.5 19.5t-73 38.5t-70.5 19q-36 0 -60 -26t-33 -51h-109zM905 1418l-215 158l-213 -156l-62 82l275 201l275 -202z" />
    <glyph glyph-name="uni1ED7" unicode="&#x1ed7;" horiz-adv-x="989" 
d="M477 -24q-123 0 -218.5 57.5t-150 155.5t-54.5 219t54.5 220.5t150 158t218.5 58.5t217.5 -58.5t148.5 -158t54 -220.5t-54 -219t-148.5 -155.5t-217.5 -57.5zM477 79q93 0 162.5 43t108 118t38.5 168q0 94 -38.5 169.5t-108 120t-162.5 44.5q-94 0 -164 -44.5t-109 -120
t-39 -169.5q0 -93 39 -168t109 -118t164 -43zM165 1248q9 40 32.5 81t60 70t84.5 29q61 0 100 -19.5t73.5 -38.5t80.5 -19q38 0 60 26t28 51h110q-11 -38 -35.5 -80t-61.5 -71t-85 -29q-61 0 -101.5 19.5t-73 38.5t-70.5 19q-36 0 -60 -26t-33 -51h-109zM687 919l-215 158
l-213 -156l-62 82l275 201l275 -202z" />
    <glyph glyph-name="uni1ED8" unicode="&#x1ed8;" horiz-adv-x="1426" 
d="M162 661q0 -163 68.5 -293.5t188.5 -206.5t274 -76q155 0 274 76t187 206.5t68 293.5t-68 293t-187 205.5t-274 75.5q-154 0 -274 -75.5t-188.5 -205.5t-68.5 -293zM46 661q0 144 49 268.5t136.5 217.5t205.5 145t256 52q139 0 256 -52t204.5 -145t135.5 -217.5
t48 -268.5q0 -145 -47.5 -269.5t-135 -218t-205 -145.5t-256.5 -52q-140 0 -258 52t-205 145.5t-135.5 218t-48.5 269.5zM692 -273q-34 0 -58 25t-24 57q0 33 24 58t58 25q33 0 57.5 -25t24.5 -58q0 -34 -24.5 -58t-57.5 -24zM479 1407l-61 81l274 201l276 -202l-61 -82
l-215 157z" />
    <glyph glyph-name="uni1ED9" unicode="&#x1ed9;" horiz-adv-x="989" 
d="M477 -24q-123 0 -218.5 57.5t-150 155.5t-54.5 219t54.5 220.5t150 158t218.5 58.5t217.5 -58.5t148.5 -158t54 -220.5t-54 -219t-148.5 -155.5t-217.5 -57.5zM477 79q93 0 162.5 43t108 118t38.5 168q0 94 -38.5 169.5t-108 120t-162.5 44.5q-94 0 -164 -44.5t-109 -120
t-39 -169.5q0 -93 39 -168t109 -118t164 -43zM476 -419q-34 0 -58 25t-24 57q0 33 24 58t58 25q32 0 57 -24.5t25 -58.5q0 -33 -25 -57.5t-57 -24.5zM691 926l-215 158l-213 -156l-62 82l275 201l275 -202z" />
    <glyph glyph-name="uni1EDA" unicode="&#x1eda;" horiz-adv-x="1426" 
d="M162 661q0 -163 68.5 -293.5t188.5 -206.5t274 -76q155 0 274 76t187 206.5t68 293.5t-68 293t-187 205.5t-274 75.5q-154 0 -274 -75.5t-188.5 -205.5t-68.5 -293zM46 661q0 144 49 268.5t136.5 217.5t205.5 145t256 52q139 0 256 -52t204.5 -145t135.5 -217.5
t48 -268.5q0 -145 -47.5 -269.5t-135 -218t-205 -145.5t-256.5 -52q-140 0 -258 52t-205 145.5t-135.5 218t-48.5 269.5zM1192 1096q-30 0 -57 9t-50 22v75q15 -13 40.5 -23t55.5 -10q62 0 93 42t31 93q0 44 -6 67.5t-18 51.5h90q8 -14 17.5 -43.5t9.5 -83.5q0 -51 -28 -97
t-74 -74.5t-104 -28.5zM572 1443l-49 64l294 237l79 -97z" />
    <glyph glyph-name="uni1EDB" unicode="&#x1edb;" horiz-adv-x="989" 
d="M477 -24q-123 0 -218.5 57.5t-150 155.5t-54.5 219t54.5 220.5t150 158t218.5 58.5t217.5 -58.5t148.5 -158t54 -220.5t-54 -219t-148.5 -155.5t-217.5 -57.5zM477 79q93 0 162.5 43t108 118t38.5 168q0 94 -38.5 169.5t-108 120t-162.5 44.5q-94 0 -164 -44.5t-109 -120
t-39 -169.5q0 -93 39 -168t109 -118t164 -43zM795 676q-30 0 -57 9t-50 22v75q15 -13 40.5 -23t55.5 -10q62 0 93 42t31 93q0 44 -6 67.5t-18 51.5h90q8 -14 17.5 -43.5t9.5 -83.5q0 -51 -28 -97t-74 -74.5t-104 -28.5zM354 944l-49 64l294 237l79 -97z" />
    <glyph glyph-name="uni1EDC" unicode="&#x1edc;" horiz-adv-x="1426" 
d="M162 661q0 -163 68.5 -293.5t188.5 -206.5t274 -76q155 0 274 76t187 206.5t68 293.5t-68 293t-187 205.5t-274 75.5q-154 0 -274 -75.5t-188.5 -205.5t-68.5 -293zM46 661q0 144 49 268.5t136.5 217.5t205.5 145t256 52q139 0 256 -52t204.5 -145t135.5 -217.5
t48 -268.5q0 -145 -47.5 -269.5t-135 -218t-205 -145.5t-256.5 -52q-140 0 -258 52t-205 145.5t-135.5 218t-48.5 269.5zM1192 1096q-30 0 -57 9t-50 22v75q15 -13 40.5 -23t55.5 -10q62 0 93 42t31 93q0 44 -6 67.5t-18 51.5h90q8 -14 17.5 -43.5t9.5 -83.5q0 -51 -28 -97
t-74 -74.5t-104 -28.5zM846 1488l-323 205l77 97l296 -238z" />
    <glyph glyph-name="uni1EDD" unicode="&#x1edd;" horiz-adv-x="989" 
d="M477 -24q-123 0 -218.5 57.5t-150 155.5t-54.5 219t54.5 220.5t150 158t218.5 58.5t217.5 -58.5t148.5 -158t54 -220.5t-54 -219t-148.5 -155.5t-217.5 -57.5zM477 79q93 0 162.5 43t108 118t38.5 168q0 94 -38.5 169.5t-108 120t-162.5 44.5q-94 0 -164 -44.5t-109 -120
t-39 -169.5q0 -93 39 -168t109 -118t164 -43zM795 676q-30 0 -57 9t-50 22v75q15 -13 40.5 -23t55.5 -10q62 0 93 42t31 93q0 44 -6 67.5t-18 51.5h90q8 -14 17.5 -43.5t9.5 -83.5q0 -51 -28 -97t-74 -74.5t-104 -28.5zM629 989l-323 205l77 97l296 -238z" />
    <glyph glyph-name="uni1EDE" unicode="&#x1ede;" horiz-adv-x="1426" 
d="M162 661q0 -163 68.5 -293.5t188.5 -206.5t274 -76q155 0 274 76t187 206.5t68 293.5t-68 293t-187 205.5t-274 75.5q-154 0 -274 -75.5t-188.5 -205.5t-68.5 -293zM46 661q0 144 49 268.5t136.5 217.5t205.5 145t256 52q139 0 256 -52t204.5 -145t135.5 -217.5
t48 -268.5q0 -145 -47.5 -269.5t-135 -218t-205 -145.5t-256.5 -52q-140 0 -258 52t-205 145.5t-135.5 218t-48.5 269.5zM1192 1096q-30 0 -57 9t-50 22v75q15 -13 40.5 -23t55.5 -10q62 0 93 42t31 93q0 44 -6 67.5t-18 51.5h90q8 -14 17.5 -43.5t9.5 -83.5q0 -51 -28 -97
t-74 -74.5t-104 -28.5zM674 1374l-45 65q27 7 69 28.5t75 59t33 91.5q0 55 -22.5 78.5t-55 29.5t-63.5 6q-43 0 -95 -16.5t-82 -31.5v83q18 12 68 30t132 18q54 0 101.5 -16.5t77.5 -57t30 -112.5q0 -56 -22 -98.5t-57 -72.5t-73 -50.5t-71 -33.5z" />
    <glyph glyph-name="uni1EDF" unicode="&#x1edf;" horiz-adv-x="989" 
d="M477 -24q-123 0 -218.5 57.5t-150 155.5t-54.5 219t54.5 220.5t150 158t218.5 58.5t217.5 -58.5t148.5 -158t54 -220.5t-54 -219t-148.5 -155.5t-217.5 -57.5zM477 79q93 0 162.5 43t108 118t38.5 168q0 94 -38.5 169.5t-108 120t-162.5 44.5q-94 0 -164 -44.5t-109 -120
t-39 -169.5q0 -93 39 -168t109 -118t164 -43zM795 676q-30 0 -57 9t-50 22v75q15 -13 40.5 -23t55.5 -10q62 0 93 42t31 93q0 44 -6 67.5t-18 51.5h90q8 -14 17.5 -43.5t9.5 -83.5q0 -51 -28 -97t-74 -74.5t-104 -28.5zM456 875l-45 65q27 7 69 28.5t75 59t33 91.5
q0 55 -22.5 78.5t-55 29.5t-63.5 6q-43 0 -95 -16.5t-82 -31.5v83q18 12 68 30t132 18q54 0 101.5 -16.5t77.5 -57t30 -112.5q0 -56 -22 -98.5t-57 -72.5t-73 -50.5t-71 -33.5z" />
    <glyph glyph-name="uni1EE0" unicode="&#x1ee0;" horiz-adv-x="1426" 
d="M162 661q0 -163 68.5 -293.5t188.5 -206.5t274 -76q155 0 274 76t187 206.5t68 293.5t-68 293t-187 205.5t-274 75.5q-154 0 -274 -75.5t-188.5 -205.5t-68.5 -293zM46 661q0 144 49 268.5t136.5 217.5t205.5 145t256 52q139 0 256 -52t204.5 -145t135.5 -217.5
t48 -268.5q0 -145 -47.5 -269.5t-135 -218t-205 -145.5t-256.5 -52q-140 0 -258 52t-205 145.5t-135.5 218t-48.5 269.5zM1192 1096q-30 0 -57 9t-50 22v75q15 -13 40.5 -23t55.5 -10q62 0 93 42t31 93q0 44 -6 67.5t-18 51.5h90q8 -14 17.5 -43.5t9.5 -83.5q0 -51 -28 -97
t-74 -74.5t-104 -28.5zM394 1515q10 39 33.5 80t60 70t84.5 29q60 0 99.5 -19t74 -38.5t80.5 -19.5q38 0 59.5 26.5t28.5 50.5h109q-11 -38 -35 -80t-61 -70.5t-85 -28.5q-61 0 -101.5 19t-73.5 38t-71 19q-35 0 -59.5 -26t-32.5 -50h-110z" />
    <glyph glyph-name="uni1EE1" unicode="&#x1ee1;" horiz-adv-x="989" 
d="M477 -24q-123 0 -218.5 57.5t-150 155.5t-54.5 219t54.5 220.5t150 158t218.5 58.5t217.5 -58.5t148.5 -158t54 -220.5t-54 -219t-148.5 -155.5t-217.5 -57.5zM477 79q93 0 162.5 43t108 118t38.5 168q0 94 -38.5 169.5t-108 120t-162.5 44.5q-94 0 -164 -44.5t-109 -120
t-39 -169.5q0 -93 39 -168t109 -118t164 -43zM795 676q-30 0 -57 9t-50 22v75q15 -13 40.5 -23t55.5 -10q62 0 93 42t31 93q0 44 -6 67.5t-18 51.5h90q8 -14 17.5 -43.5t9.5 -83.5q0 -51 -28 -97t-74 -74.5t-104 -28.5zM176 1016q10 39 33.5 80t60 70t84.5 29q60 0 99.5 -19
t74 -38.5t80.5 -19.5q38 0 59.5 26.5t28.5 50.5h109q-11 -38 -35 -80t-61 -70.5t-85 -28.5q-61 0 -101.5 19t-73.5 38t-71 19q-35 0 -59.5 -26t-32.5 -50h-110z" />
    <glyph glyph-name="uni1EE2" unicode="&#x1ee2;" horiz-adv-x="1426" 
d="M162 661q0 -163 68.5 -293.5t188.5 -206.5t274 -76q155 0 274 76t187 206.5t68 293.5t-68 293t-187 205.5t-274 75.5q-154 0 -274 -75.5t-188.5 -205.5t-68.5 -293zM46 661q0 144 49 268.5t136.5 217.5t205.5 145t256 52q139 0 256 -52t204.5 -145t135.5 -217.5
t48 -268.5q0 -145 -47.5 -269.5t-135 -218t-205 -145.5t-256.5 -52q-140 0 -258 52t-205 145.5t-135.5 218t-48.5 269.5zM1192 1096q-30 0 -57 9t-50 22v75q15 -13 40.5 -23t55.5 -10q62 0 93 42t31 93q0 44 -6 67.5t-18 51.5h90q8 -14 17.5 -43.5t9.5 -83.5q0 -51 -28 -97
t-74 -74.5t-104 -28.5zM693 -318q-34 0 -58 25t-24 57q0 33 24 58t58 25q32 0 57 -24.5t25 -58.5q0 -33 -25 -57.5t-57 -24.5z" />
    <glyph glyph-name="uni1EE3" unicode="&#x1ee3;" horiz-adv-x="989" 
d="M477 -24q-123 0 -218.5 57.5t-150 155.5t-54.5 219t54.5 220.5t150 158t218.5 58.5t217.5 -58.5t148.5 -158t54 -220.5t-54 -219t-148.5 -155.5t-217.5 -57.5zM477 79q93 0 162.5 43t108 118t38.5 168q0 94 -38.5 169.5t-108 120t-162.5 44.5q-94 0 -164 -44.5t-109 -120
t-39 -169.5q0 -93 39 -168t109 -118t164 -43zM795 676q-30 0 -57 9t-50 22v75q15 -13 40.5 -23t55.5 -10q62 0 93 42t31 93q0 44 -6 67.5t-18 51.5h90q8 -14 17.5 -43.5t9.5 -83.5q0 -51 -28 -97t-74 -74.5t-104 -28.5zM476 -419q-34 0 -58 25t-24 57q0 33 24 58t58 25
q32 0 57 -24.5t25 -58.5q0 -33 -25 -57.5t-57 -24.5z" />
    <glyph glyph-name="uni1EE4" unicode="&#x1ee4;" horiz-adv-x="1230" 
d="M977 1320h112v-824q0 -163 -65.5 -279.5t-176.5 -178.5t-249 -62q-137 0 -249 62t-178 178.5t-66 279.5v824h112v-818q0 -127 51 -221t137.5 -146t192.5 -52t191.5 52t136.5 146t51 221v818zM597 -259q-34 0 -58 25t-24 57q0 33 24 58t58 25q33 0 57.5 -25t24.5 -58
q0 -34 -24.5 -58t-57.5 -24z" />
    <glyph glyph-name="uni1EE5" unicode="&#x1ee5;" horiz-adv-x="990" 
d="M221 392q0 -144 63.5 -228.5t191.5 -84.5q129 0 192 84.5t63 228.5v429h114v-449q0 -115 -43 -204.5t-125 -140.5t-201 -51q-118 0 -200 51t-125 140.5t-43 204.5v449h113v-429zM476 -304q-34 0 -58 25t-24 57q0 33 24 58t58 25q32 0 57 -24.5t25 -58.5q0 -33 -25 -57.5
t-57 -24.5z" />
    <glyph glyph-name="uni1EE6" unicode="&#x1ee6;" horiz-adv-x="1230" 
d="M977 1320h112v-824q0 -163 -65.5 -279.5t-176.5 -178.5t-249 -62q-137 0 -249 62t-178 178.5t-66 279.5v824h112v-818q0 -127 51 -221t137.5 -146t192.5 -52t191.5 52t136.5 146t51 221v818zM579 1399l-45 62q27 7 69 25t75 49.5t33 76.5q0 49 -22.5 71t-55 27.5
t-63.5 5.5q-43 0 -95 -16.5t-82 -30.5v78q18 12 68 29.5t132 17.5q54 0 101.5 -15.5t77.5 -53t30 -103.5q0 -49 -22 -85t-57 -62t-73 -44.5t-71 -31.5z" />
    <glyph glyph-name="uni1EE7" unicode="&#x1ee7;" horiz-adv-x="990" 
d="M221 392q0 -144 63.5 -228.5t191.5 -84.5q129 0 192 84.5t63 228.5v429h114v-449q0 -115 -43 -204.5t-125 -140.5t-201 -51q-118 0 -200 51t-125 140.5t-43 204.5v449h113v-429zM457 875l-45 65q27 7 69 28.5t75 59t33 91.5q0 55 -22.5 78.5t-55 29.5t-63.5 6
q-43 0 -95 -16.5t-82 -31.5v83q18 12 68 30t132 18q54 0 101.5 -16.5t77.5 -57t30 -112.5q0 -56 -22 -98.5t-57 -72.5t-73 -50.5t-71 -33.5z" />
    <glyph glyph-name="uni1EE8" unicode="&#x1ee8;" horiz-adv-x="1392" 
d="M977 1320h112v-824q0 -163 -65.5 -279.5t-176.5 -178.5t-249 -62q-137 0 -249 62t-178 178.5t-66 279.5v824h112v-818q0 -127 51 -221t137.5 -146t192.5 -52t191.5 52t136.5 146t51 221v818zM1196 1214q-30 0 -57 9t-50 22v75q15 -13 40.5 -23t55.5 -10q62 0 93 42t31 93
q0 44 -6 67.5t-18 51.5h90q8 -14 17.5 -43.5t9.5 -83.5q0 -51 -28 -97t-74 -74.5t-104 -28.5zM477 1443l-49 64l294 237l79 -97z" />
    <glyph glyph-name="uni1EE9" unicode="&#x1ee9;" horiz-adv-x="1148" 
d="M221 392q0 -144 63.5 -228.5t191.5 -84.5q129 0 192 84.5t63 228.5v429h114v-449q0 -115 -43 -204.5t-125 -140.5t-201 -51q-118 0 -200 51t-125 140.5t-43 204.5v449h113v-429zM952 715q-30 0 -57 9t-50 22v75q15 -13 40.5 -23t55.5 -10q62 0 93 42t31 93q0 44 -6 67.5
t-18 51.5h90q8 -14 17.5 -43.5t9.5 -83.5q0 -51 -28 -97t-74 -74.5t-104 -28.5zM355 944l-49 64l294 237l79 -97z" />
    <glyph glyph-name="uni1EEA" unicode="&#x1eea;" horiz-adv-x="1392" 
d="M977 1320h112v-824q0 -163 -65.5 -279.5t-176.5 -178.5t-249 -62q-137 0 -249 62t-178 178.5t-66 279.5v824h112v-818q0 -127 51 -221t137.5 -146t192.5 -52t191.5 52t136.5 146t51 221v818zM1196 1214q-30 0 -57 9t-50 22v75q15 -13 40.5 -23t55.5 -10q62 0 93 42t31 93
q0 44 -6 67.5t-18 51.5h90q8 -14 17.5 -43.5t9.5 -83.5q0 -51 -28 -97t-74 -74.5t-104 -28.5zM752 1488l-323 205l77 97l296 -238z" />
    <glyph glyph-name="uni1EEB" unicode="&#x1eeb;" horiz-adv-x="1148" 
d="M221 392q0 -144 63.5 -228.5t191.5 -84.5q129 0 192 84.5t63 228.5v429h114v-449q0 -115 -43 -204.5t-125 -140.5t-201 -51q-118 0 -200 51t-125 140.5t-43 204.5v449h113v-429zM952 715q-30 0 -57 9t-50 22v75q15 -13 40.5 -23t55.5 -10q62 0 93 42t31 93q0 44 -6 67.5
t-18 51.5h90q8 -14 17.5 -43.5t9.5 -83.5q0 -51 -28 -97t-74 -74.5t-104 -28.5zM630 989l-323 205l77 97l296 -238z" />
    <glyph glyph-name="uni1EEC" unicode="&#x1eec;" horiz-adv-x="1392" 
d="M977 1320h112v-824q0 -163 -65.5 -279.5t-176.5 -178.5t-249 -62q-137 0 -249 62t-178 178.5t-66 279.5v824h112v-818q0 -127 51 -221t137.5 -146t192.5 -52t191.5 52t136.5 146t51 221v818zM1196 1214q-30 0 -57 9t-50 22v75q15 -13 40.5 -23t55.5 -10q62 0 93 42t31 93
q0 44 -6 67.5t-18 51.5h90q8 -14 17.5 -43.5t9.5 -83.5q0 -51 -28 -97t-74 -74.5t-104 -28.5zM579 1374l-45 65q27 7 69 28.5t75 59t33 91.5q0 55 -22.5 78.5t-55 29.5t-63.5 6q-43 0 -95 -16.5t-82 -31.5v83q18 12 68 30t132 18q54 0 101.5 -16.5t77.5 -57t30 -112.5
q0 -56 -22 -98.5t-57 -72.5t-73 -50.5t-71 -33.5z" />
    <glyph glyph-name="uni1EED" unicode="&#x1eed;" horiz-adv-x="1148" 
d="M221 392q0 -144 63.5 -228.5t191.5 -84.5q129 0 192 84.5t63 228.5v429h114v-449q0 -115 -43 -204.5t-125 -140.5t-201 -51q-118 0 -200 51t-125 140.5t-43 204.5v449h113v-429zM952 715q-30 0 -57 9t-50 22v75q15 -13 40.5 -23t55.5 -10q62 0 93 42t31 93q0 44 -6 67.5
t-18 51.5h90q8 -14 17.5 -43.5t9.5 -83.5q0 -51 -28 -97t-74 -74.5t-104 -28.5zM457 875l-45 65q27 7 69 28.5t75 59t33 91.5q0 55 -22.5 78.5t-55 29.5t-63.5 6q-43 0 -95 -16.5t-82 -31.5v83q18 12 68 30t132 18q54 0 101.5 -16.5t77.5 -57t30 -112.5q0 -56 -22 -98.5
t-57 -72.5t-73 -50.5t-71 -33.5z" />
    <glyph glyph-name="uni1EEE" unicode="&#x1eee;" horiz-adv-x="1392" 
d="M977 1320h112v-824q0 -163 -65.5 -279.5t-176.5 -178.5t-249 -62q-137 0 -249 62t-178 178.5t-66 279.5v824h112v-818q0 -127 51 -221t137.5 -146t192.5 -52t191.5 52t136.5 146t51 221v818zM1196 1214q-30 0 -57 9t-50 22v75q15 -13 40.5 -23t55.5 -10q62 0 93 42t31 93
q0 44 -6 67.5t-18 51.5h90q8 -14 17.5 -43.5t9.5 -83.5q0 -51 -28 -97t-74 -74.5t-104 -28.5zM299 1515q10 39 33.5 80t60 70t84.5 29q60 0 99.5 -19t74 -38.5t80.5 -19.5q38 0 59.5 26.5t28.5 50.5h109q-11 -38 -35 -80t-61 -70.5t-85 -28.5q-61 0 -101.5 19t-73.5 38
t-71 19q-35 0 -59.5 -26t-32.5 -50h-110z" />
    <glyph glyph-name="uni1EEF" unicode="&#x1eef;" horiz-adv-x="1148" 
d="M221 392q0 -144 63.5 -228.5t191.5 -84.5q129 0 192 84.5t63 228.5v429h114v-449q0 -115 -43 -204.5t-125 -140.5t-201 -51q-118 0 -200 51t-125 140.5t-43 204.5v449h113v-429zM952 715q-30 0 -57 9t-50 22v75q15 -13 40.5 -23t55.5 -10q62 0 93 42t31 93q0 44 -6 67.5
t-18 51.5h90q8 -14 17.5 -43.5t9.5 -83.5q0 -51 -28 -97t-74 -74.5t-104 -28.5zM177 1016q10 39 33.5 80t60 70t84.5 29q60 0 99.5 -19t74 -38.5t80.5 -19.5q38 0 59.5 26.5t28.5 50.5h109q-11 -38 -35 -80t-61 -70.5t-85 -28.5q-61 0 -101.5 19t-73.5 38t-71 19
q-35 0 -59.5 -26t-32.5 -50h-110z" />
    <glyph glyph-name="uni1EF0" unicode="&#x1ef0;" horiz-adv-x="1392" 
d="M977 1320h112v-824q0 -163 -65.5 -279.5t-176.5 -178.5t-249 -62q-137 0 -249 62t-178 178.5t-66 279.5v824h112v-818q0 -127 51 -221t137.5 -146t192.5 -52t191.5 52t136.5 146t51 221v818zM1196 1214q-30 0 -57 9t-50 22v75q15 -13 40.5 -23t55.5 -10q62 0 93 42t31 93
q0 44 -6 67.5t-18 51.5h90q8 -14 17.5 -43.5t9.5 -83.5q0 -51 -28 -97t-74 -74.5t-104 -28.5zM598 -304q-34 0 -58 25t-24 57q0 33 24 58t58 25q32 0 57 -24.5t25 -58.5q0 -33 -25 -57.5t-57 -24.5z" />
    <glyph glyph-name="uni1EF1" unicode="&#x1ef1;" horiz-adv-x="1148" 
d="M221 392q0 -144 63.5 -228.5t191.5 -84.5q129 0 192 84.5t63 228.5v429h114v-449q0 -115 -43 -204.5t-125 -140.5t-201 -51q-118 0 -200 51t-125 140.5t-43 204.5v449h113v-429zM952 715q-30 0 -57 9t-50 22v75q15 -13 40.5 -23t55.5 -10q62 0 93 42t31 93q0 44 -6 67.5
t-18 51.5h90q8 -14 17.5 -43.5t9.5 -83.5q0 -51 -28 -97t-74 -74.5t-104 -28.5zM476 -304q-34 0 -58 25t-24 57q0 33 24 58t58 25q32 0 57 -24.5t25 -58.5q0 -33 -25 -57.5t-57 -24.5z" />
    <glyph glyph-name="Ygrave" unicode="&#x1ef2;" horiz-adv-x="1062" 
d="M453 475l-439 845h134l361 -711l359 711h134l-437 -845v-475h-112v475zM567 1376l-323 204l77 98l296 -238z" />
    <glyph glyph-name="ygrave" unicode="&#x1ef3;" horiz-adv-x="875" 
d="M422 110l302 711h118l-550 -1237h-118l186 416l-337 821h119zM573 989l-323 205l77 97l296 -238z" />
    <glyph glyph-name="uni1EF4" unicode="&#x1ef4;" horiz-adv-x="1062" 
d="M453 475l-439 845h134l361 -711l359 711h134l-437 -845v-475h-112v475zM508 -259q-34 0 -58 25t-24 57q0 33 24 58t58 25q33 0 57.5 -25t24.5 -58q0 -34 -24.5 -58t-57.5 -24z" />
    <glyph glyph-name="uni1EF5" unicode="&#x1ef5;" horiz-adv-x="875" 
d="M422 110l302 711h118l-550 -1237h-118l186 416l-337 821h119zM608 -304q-34 0 -58 25t-24 57q0 33 24 58t58 25q32 0 57 -24.5t25 -58.5q0 -33 -25 -57.5t-57 -24.5z" />
    <glyph glyph-name="uni1EF6" unicode="&#x1ef6;" horiz-adv-x="1062" 
d="M453 475l-439 845h134l361 -711l359 711h134l-437 -845v-475h-112v475zM490 1399l-45 62q27 7 69 25t75 49.5t33 76.5q0 49 -22.5 71t-55 27.5t-63.5 5.5q-43 0 -95 -16.5t-82 -30.5v78q18 12 68 29.5t132 17.5q54 0 101.5 -15.5t77.5 -53t30 -103.5q0 -49 -22 -85
t-57 -62t-73 -44.5t-71 -31.5z" />
    <glyph glyph-name="uni1EF7" unicode="&#x1ef7;" horiz-adv-x="875" 
d="M422 110l302 711h118l-550 -1237h-118l186 416l-337 821h119zM400 875l-45 65q27 7 69 28.5t75 59t33 91.5q0 55 -22.5 78.5t-55 29.5t-63.5 6q-43 0 -95 -16.5t-82 -31.5v83q18 12 68 30t132 18q54 0 101.5 -16.5t77.5 -57t30 -112.5q0 -56 -22 -98.5t-57 -72.5
t-73 -50.5t-71 -33.5z" />
    <glyph glyph-name="uni1EF8" unicode="&#x1ef8;" horiz-adv-x="1062" 
d="M453 475l-439 845h134l361 -711l359 711h134l-437 -845v-475h-112v475zM195 1414q9 39 32.5 80t60 70t84.5 29q61 0 100 -19t73.5 -38.5t80.5 -19.5q38 0 60 26.5t28 50.5h110q-11 -38 -35.5 -79.5t-61.5 -70.5t-85 -29q-61 0 -101.5 19t-73 38t-70.5 19q-36 0 -60 -26
t-33 -50h-109z" />
    <glyph glyph-name="uni1EF9" unicode="&#x1ef9;" horiz-adv-x="875" 
d="M422 110l302 711h118l-550 -1237h-118l186 416l-337 821h119zM121 1016q10 39 33.5 80t60 70t84.5 29q60 0 99.5 -19t74 -38.5t80.5 -19.5q38 0 59.5 26.5t28.5 50.5h109q-11 -38 -35 -80t-61 -70.5t-85 -28.5q-61 0 -101.5 19t-73.5 38t-71 19q-35 0 -59.5 -26
t-32.5 -50h-110z" />
    <glyph glyph-name="endash" unicode="&#x2013;" horiz-adv-x="863" 
d="M21 405v101h784v-101h-784z" />
    <glyph glyph-name="emdash" unicode="&#x2014;" horiz-adv-x="1605" 
d="M30 405v101h1506v-101h-1506z" />
    <glyph glyph-name="quoteleft" unicode="&#x2018;" horiz-adv-x="436" 
d="M219 890q-59 0 -98.5 41t-39.5 116q0 72 27.5 126.5t67.5 92t78 57.5l44 -59q-25 -9 -53.5 -36t-48 -60t-21.5 -63q9 11 30.5 20.5t45.5 9.5q43 0 74.5 -30t31.5 -79q0 -62 -39 -99t-99 -37z" />
    <glyph glyph-name="quoteright" unicode="&#x2019;" horiz-adv-x="436" 
d="M150 860l-44 59q25 10 53 36.5t48 60t21 63.5q-7 -12 -29 -21t-47 -9q-43 0 -74.5 30t-31.5 79q0 62 39 99t99 37q59 0 99 -41.5t40 -115.5q0 -72 -27.5 -127t-67.5 -92t-78 -58z" />
    <glyph glyph-name="quotesinglbase" unicode="&#x201a;" horiz-adv-x="466" 
d="M235 210q55 0 93.5 -38.5t38.5 -99.5q0 -67 -26.5 -125t-69.5 -103.5t-94 -72.5l-59 56q29 14 61.5 37t58.5 53.5t33 66.5q-22 -11 -49 -11q-47 0 -79 34.5t-32 78.5q0 37 16 65t44.5 43.5t63.5 15.5z" />
    <glyph glyph-name="quotedblleft" unicode="&#x201c;" horiz-adv-x="862" 
d="M638 890q-59 0 -98.5 41t-39.5 116q0 72 27.5 126.5t67.5 92t78 57.5l44 -59q-25 -9 -53.5 -36t-48 -60t-21.5 -63q9 11 30.5 20.5t45.5 9.5q43 0 74.5 -30t31.5 -79q0 -62 -39 -99t-99 -37zM267 890q-59 0 -98.5 41t-39.5 116q0 72 27.5 126.5t67.5 92t78 57.5l44 -59
q-25 -9 -53.5 -36t-48 -60t-21.5 -63q9 11 30.5 20.5t45.5 9.5q43 0 74.5 -30t31.5 -79q0 -62 -39 -99t-99 -37z" />
    <glyph glyph-name="quotedblright" unicode="&#x201d;" horiz-adv-x="862" 
d="M556 852l-44 58q26 11 53.5 37t48 59.5t21.5 63.5q-8 -12 -30 -21t-46 -9q-43 0 -74.5 30t-31.5 79q0 62 39 99t99 37q59 0 98.5 -41.5t39.5 -115.5q0 -72 -27.5 -126.5t-67 -92t-78.5 -57.5zM185 852l-44 58q25 11 53 37t48 59.5t21 63.5q-7 -12 -29 -21t-47 -9
q-42 0 -74 30t-32 79q0 62 39.5 99t98.5 37t99 -41.5t40 -115.5q0 -72 -27.5 -126.5t-67 -92t-78.5 -57.5z" />
    <glyph glyph-name="quotedblbase" unicode="&#x201e;" horiz-adv-x="810" 
d="M598 210q55 0 93.5 -38.5t38.5 -99.5q0 -67 -26.5 -125t-69.5 -103.5t-94 -72.5l-59 56q29 14 61.5 37t58.5 53.5t33 66.5q-22 -11 -49 -11q-47 0 -79 34.5t-32 78.5q0 37 16 65t44.5 43.5t63.5 15.5zM235 210q55 0 93.5 -38.5t38.5 -99.5q0 -67 -26.5 -125t-69.5 -103.5
t-94 -72.5l-59 56q29 14 61.5 37t58.5 53.5t33 66.5q-22 -11 -49 -11q-47 0 -79 34.5t-32 78.5q0 37 16 65t44.5 43.5t63.5 15.5z" />
    <glyph glyph-name="dagger" unicode="&#x2020;" horiz-adv-x="828" 
d="M347 -244v1654h105v-1654h-105zM108 867v101h588v-101h-588z" />
    <glyph glyph-name="daggerdbl" unicode="&#x2021;" horiz-adv-x="855" 
d="M388 -244v1654h105v-1654h-105zM148 426v101h589v-101h-589zM148 867v101h588v-101h-588z" />
    <glyph glyph-name="bullet" unicode="&#x2022;" horiz-adv-x="985" 
d="M472 752q51 0 92 -24.5t65.5 -65.5t24.5 -92q0 -50 -24.5 -90t-65.5 -64.5t-92 -24.5q-49 0 -89.5 24.5t-65 65t-24.5 89.5q0 51 24.5 92t65 65.5t89.5 24.5z" />
    <glyph glyph-name="ellipsis" unicode="&#x2026;" horiz-adv-x="1486" 
d="M261 -24q-47 0 -79.5 33t-32.5 79q0 48 32.5 81t79.5 33t80 -33t33 -81q0 -46 -33 -79t-80 -33zM742 -24q-47 0 -79.5 33t-32.5 79q0 48 32.5 81t79.5 33t80 -33t33 -81q0 -46 -33 -79t-80 -33zM1221 -24q-47 0 -79.5 33t-32.5 79q0 48 32.5 81t79.5 33t80 -33t33 -81
q0 -46 -33 -79t-80 -33z" />
    <glyph glyph-name="perthousand" unicode="&#x2030;" horiz-adv-x="1719" 
d="M1484 1250l43 -59l-1471 -959l-43 58zM188 1029q0 70 34.5 125t93 86.5t130.5 31.5q70 0 127.5 -31.5t92.5 -86.5t35 -125q0 -68 -33.5 -123t-91 -87t-130.5 -32q-76 0 -134 32t-91 87t-33 123zM278 1029q0 -77 45.5 -120t120.5 -43q70 0 118 42t48 121q0 75 -48.5 119.5
t-117.5 44.5q-71 0 -118.5 -44.5t-47.5 -119.5zM509 290q0 71 34.5 125.5t93 86t130.5 31.5q70 0 127.5 -31.5t92 -86t34.5 -125.5q0 -68 -33 -123t-90.5 -87t-130.5 -32q-77 0 -135 32t-90.5 87t-32.5 123zM599 290q0 -77 45.5 -120t120.5 -43q70 0 118 42.5t48 120.5
q0 75 -48.5 120t-117.5 45q-71 0 -118.5 -45t-47.5 -120zM1132 290q0 71 34.5 125.5t93 86t130.5 31.5q70 0 127.5 -31.5t92.5 -86t35 -125.5q0 -68 -33.5 -123t-91 -87t-130.5 -32q-76 0 -134 32t-91 87t-33 123zM1222 290q0 -77 45.5 -120t120.5 -43q70 0 118 42.5
t48 120.5q0 75 -48.5 120t-117.5 45q-71 0 -118.5 -45t-47.5 -120z" />
    <glyph glyph-name="guilsinglleft" unicode="&#x2039;" horiz-adv-x="570" 
d="M422 131l-60 -49l-286 363l286 362l60 -47l-251 -315z" />
    <glyph glyph-name="guilsinglright" unicode="&#x203a;" horiz-adv-x="568" 
d="M145 82l-61 49l251 314l-251 315l61 47l286 -362z" />
    <glyph glyph-name="fraction" unicode="&#x2044;" horiz-adv-x="408" 
d="M524 1320h75l-768 -1320h-75z" />
    <glyph glyph-name="uni2074" unicode="&#x2074;" horiz-adv-x="460" 
d="M312 1321v-374h60v-42h-60v-111h-44v111h-225v39l225 377h44zM268 947v294h-1l-173 -294h174z" />
    <glyph glyph-name="colonmonetary" unicode="&#x20a1;" horiz-adv-x="1079" 
d="M912 1376h96l-659 -1568h-96zM741 1378h96l-659 -1568h-96zM950 1167q-24 15 -89.5 43t-188.5 28q-99 0 -190.5 -39.5t-163 -114.5t-113 -181.5t-41.5 -241.5q0 -179 69.5 -309t184.5 -199.5t254 -69.5q119 0 185.5 29t92.5 46v-117q-32 -22 -106.5 -43.5t-171.5 -21.5
q-203 0 -342.5 91t-211.5 246t-72 348t77.5 347.5t218.5 245t330 90.5q100 0 168 -16.5t110 -42.5v-118z" />
    <glyph glyph-name="franc" unicode="&#x20a3;" horiz-adv-x="886" 
d="M-19 395h558v-89h-558v89zM119 1320h653v-105h-543v-501h508v-105h-508v-609h-110v1320z" />
    <glyph glyph-name="lira" unicode="&#x20a4;" horiz-adv-x="1197" 
d="M302 590q-5 9 -21 47.5t-34 93.5t-31.5 117t-13.5 118q0 102 42.5 188.5t131.5 139t230 52.5q114 0 197.5 -41.5t136.5 -101t73 -113.5l-95 -52q-16 45 -56.5 92.5t-103.5 81.5t-150 34q-137 0 -215.5 -73.5t-78.5 -210.5q0 -46 12.5 -103.5t30 -113t34.5 -98t24 -57.5
q31 -80 42.5 -129.5t11.5 -102.5q0 -49 -11 -89.5t-14 -51.5q46 -5 88.5 -27t86 -49t89.5 -47t99 -20q56 0 93 24.5t57.5 58t24.5 62.5l97 -38q-13 -44 -47.5 -91.5t-88.5 -80.5t-130 -33q-74 0 -130 24.5t-104.5 56.5t-97.5 56t-111 24q-50 0 -87 -26t-58 -58.5t-24 -52.5
h-97q4 52 39.5 104t89.5 86.5t112 34.5q5 13 14.5 48.5t9.5 82.5q0 56 -17 111t-50 123zM108 715h712v-75h-712v75zM108 509h712v-75h-712v75z" />
    <glyph glyph-name="uni20A6" unicode="&#x20a6;" horiz-adv-x="1315" 
d="M123 0v1320h165l754 -1209l-5 -1v1210h111v-1320h-166l-753 1210l6 -1v-1209h-112zM13 615v90h1242v-90h-1242z" />
    <glyph glyph-name="peseta" unicode="&#x20a7;" horiz-adv-x="1005" 
d="M137 0v1320h324q122 0 220.5 -38.5t157.5 -122.5t59 -223q0 -137 -59 -225.5t-157.5 -130.5t-220.5 -42h-212v-538h-112zM249 638h182q96 0 175 28t126.5 93.5t47.5 175.5q0 111 -47.5 172.5t-126.5 87t-175 25.5h-182v-582zM10 888v77h977v-77h-977z" />
    <glyph glyph-name="uni20A9" unicode="&#x20a9;" horiz-adv-x="1563" 
d="M306 0l-266 1320h126l220 -1176h-2l304 1176h123l304 -1176h-3l221 1176h126l-267 -1320h-149l-306 1213h24l-306 -1213h-149zM21 615v90h1452v-90h-1452z" />
    <glyph glyph-name="dong" unicode="&#x20ab;" horiz-adv-x="1016" 
d="M482 -24q-111 0 -201 51.5t-143 149t-53 233.5t53 233.5t143 149.5t201 52q95 0 168 -35t116 -80.5t47 -78.5v725h116v-1376h-113v172q-7 -32 -50.5 -78t-116.5 -82t-167 -36zM496 76q87 0 159 41t115 116t43 177t-43 177t-115 116.5t-159 41.5q-78 0 -145.5 -40.5
t-109.5 -115.5t-42 -179t42 -179t109.5 -115t145.5 -40zM213 -180v90h558v-90h-558zM471 1065v90h558v-90h-558z" />
    <glyph glyph-name="Euro" unicode="&#x20ac;" horiz-adv-x="1301" 
d="M30 833h995v-82h-995v82zM30 566h995v-83h-995v83zM809 86q138 0 235 37t136 72l50 -97q-44 -40 -154.5 -81t-266.5 -41q-146 0 -269.5 52.5t-215.5 146t-143 217t-51 266.5t50.5 267.5t142.5 218.5t216 147t270 53q156 0 266.5 -41t154.5 -81l-50 -97q-39 35 -136 72
t-235 37q-116 0 -217 -41.5t-178 -117.5t-120 -181.5t-43 -232.5q0 -128 43 -234t120 -182t178 -117.5t217 -41.5z" />
    <glyph glyph-name="uni20AD" unicode="&#x20ad;" horiz-adv-x="946" 
d="M132 0v1320h113v-634l499 634h132l-521 -660l557 -660h-136l-531 625v-625h-113zM19 615v90h856v-90h-856z" />
    <glyph glyph-name="uni20B1" unicode="&#x20b1;" horiz-adv-x="1005" 
d="M137 1320h324q122 0 221.5 -49t158.5 -152t59 -265t-59 -268.5t-158.5 -159.5t-221.5 -53h-212v-373h-112v1320zM249 473h182q96 0 175.5 38t128 122t48.5 219q0 137 -48.5 217t-128 115.5t-175.5 35.5h-182v-747zM20 714v78h954v-78h-954zM20 901v77h954v-77h-954z" />
    <glyph glyph-name="uni20B2" unicode="&#x20b2;" horiz-adv-x="1426" 
d="M671 707h663v-66q0 -137 -48.5 -257t-135.5 -212t-203.5 -144t-253.5 -52q-140 0 -258 54t-205 149t-135.5 218.5t-48.5 263.5q0 139 48.5 262.5t135.5 218.5t205 148.5t258 53.5q85 0 160 -19t139 -54t116.5 -82t91.5 -102l-95 -59q-69 93 -174 150t-238 57
q-115 0 -212.5 -45.5t-169 -124.5t-110.5 -183t-39 -221t39 -221t110.5 -184t169 -125.5t212.5 -45.5q111 0 204.5 41t162.5 113.5t109 167.5t45 203h-543v97zM726 -244h-104v1654h104v-1654z" />
    </font>
</defs>
</svg>
